<svg xmlns="http://www.w3.org/2000/svg" viewBox="0 0 600 600"><defs><filter id="l" color-interpolation-filters="sRGB"><feGaussianBlur stdDeviation="7.214"/></filter><filter id="k" color-interpolation-filters="sRGB"><feGaussianBlur stdDeviation="9.929"/></filter><filter id="f" color-interpolation-filters="sRGB"><feGaussianBlur stdDeviation="11.32"/></filter><filter id="e" color-interpolation-filters="sRGB"><feGaussianBlur stdDeviation="3.565"/></filter><filter id="d" color-interpolation-filters="sRGB"><feGaussianBlur stdDeviation="3.565"/></filter><filter id="c" color-interpolation-filters="sRGB"><feGaussianBlur stdDeviation="9.929"/></filter><filter id="b" width="1.413" y="-.202" x="-.207" height="1.403" color-interpolation-filters="sRGB"><feGaussianBlur stdDeviation="9.929"/></filter><filter id="a" width="1.302" y="-.226" x="-.151" height="1.452" color-interpolation-filters="sRGB"><feGaussianBlur stdDeviation="9.929"/></filter><linearGradient id="g" y2="6087" gradientUnits="userSpaceOnUse" x2="2956.7" gradientTransform="translate(423.3 -2260) scale(.50362)" y1="6045.5" x1="2755.7"><stop offset="0" stop-color="#f4edd8"/><stop offset="1" stop-color="#f4edd8" stop-opacity="0"/></linearGradient><linearGradient id="h" y2="5909" gradientUnits="userSpaceOnUse" x2="2523.4" gradientTransform="translate(567.81 -2231) scale(.50362)" y1="5986.9" x1="2248.6"><stop offset="0" stop-color="#f4edd8"/><stop offset="1" stop-color="#f4edd8" stop-opacity="0"/></linearGradient><linearGradient id="i" y2="5864.7" gradientUnits="userSpaceOnUse" x2="2657.7" gradientTransform="translate(423.3 -2260) scale(.50362)" y1="6035.4" x1="2248.6"><stop offset="0" stop-color="#f4edd8"/><stop offset="1" stop-color="#f4edd8" stop-opacity="0"/></linearGradient><linearGradient id="j" y2="5965.2" gradientUnits="userSpaceOnUse" x2="2512.9" gradientTransform="translate(423.3 -2260) scale(.50362)" y1="6132.4" x1="2160"><stop offset="0" stop-color="#f4eed9"/><stop offset="1" stop-color="#f4eed9" stop-opacity="0"/></linearGradient></defs><path d="M176.72 366.472l33.185 6.36c3.806 9.721 10.527 18.192 24.612 23.507l-9.402 9.125c-28.23.313-42.593-19.31-48.394-38.992z" color="#000" fill-opacity=".961" fill="#f4edd8"/><path d="M576.48 735.37c18.101 43.817 52.911 83.263 99.625 97 14.793 4.517 30.291 6.785 45.844 7.062 3.573-4.096 10.21-8.632 11.969-12.469-32.008-16.538-58.247-43.744-72.844-76.656-28.426-5.234-56.764-10.93-85.156-16.344l.371.929.191.478z" transform="matrix(.27376 0 0 .27376 25.66 171.278)" color="#000" filter="url(#a)" fill="#778590"/><path d="M343.491 382.236l12.168-15.486c11.151 3.505 23.162 6.15 27.93 16.04-7.275 20.293-22.94 25.481-41.205 25.994z" color="#000" fill-opacity=".961" fill="#f4edd8"/><path d="M1211 732.62c-11.386 14.219-22.978 29.258-34.469 43.75l-3.031 74.375c35.307-2.477 72.614-13.777 95.674-42.198 8.345-10.799 17.21-21.908 19.67-35.646-16.672-22.932-46.045-30.346-71.906-38.469-1.896-.727-3.84-1.92-5.938-1.812z" transform="matrix(.27376 0 0 .27376 25.66 171.278)" color="#000" filter="url(#b)" fill="#778590"/><path d="M215.967 362.07h38.439l-2.212 24.335c-7.964 1.112-36.043-1.263-39.545-12.998z" color="#000" fill-opacity=".961" fill="#f4edd8"/><path d="M221.892 404.74c9.578-10.819 18.24-14.706 29.871-19.951l9.129 37.584c-7.884 3.933-19.946 12.824-18.082 27.127 10.252 30.624 25.642 38.24 55.815 34.696 22.063-5.592 30.998-13.258 51.517-16.776 16.443-3.046 32.528 1.631 49.659 15.917 18.28 13.797 15.383 45.21-.16 64.148-7.214 11.73-40.618 31.27-60.425 28.745 21.051-12.621 38.003-28.917 44.007-55.027 3.931 2.785 6.646 5.772 9.025 8.816 7.9-10.334 6.63-23.087 1.068-32.888-8.608-12.39-37.854-16.418-54.059-8.298-26.821 10.373-49.232 25.57-84.244 12.678-14.16-5.428-28.544-17.522-36.302-32.999-10.44-20.828-10.467-46.992 3.177-63.773z" color="#000" fill-opacity=".961" fill="#f4edd8"/><path d="M812.29 803.56c-41.311 18.928-81.748 46.601-101.63 88.851-26.311 56.963-20.144 124.88 5.96 180.68 37.785 80.573 124.05 135.54 213.17 135.33 54.798.795 106.92-18.814 156.21-40.918 41.14-17.893 83.163-38.382 128.95-38.814 42.472-1.234 86.054 8.608 121.53 32.438 30.75 23.97 42.406 65.946 37.815 103.77-2.989 22.405-11.55 44.807-27.595 61.039-7.795 4.902-18.638.428-22.067-7.746-3.167-3.9-6.253-7.682-9.714-11.192-18.667 58.976-58.212 110.62-105.97 148.44 41.389-12.619 79.45-34.023 114.16-59.625 49.617-40.542 79.619-105.86 72.344-170.28-2.861-30.83-19.042-60.287-44.557-78.004-39.45-31.712-88.638-56.122-140.53-52.464-61.383 3.462-116.36 33.877-173.6 53.343-29.761 10.23-61.243 15.172-92.75 13.75-40.46-.903-82.88-13.076-111.34-42.968-27.308-27.627-44.632-63.802-54.906-101-6.294-31.896 9.433-64.024 31.75-85.75 9.293-9.053 19.943-16.778 31.219-23.28l-25.937-106.72-2.5 1.124z" transform="matrix(.27376 0 0 .27376 25.66 171.278)" color="#000" filter="url(#c)" fill="#778590"/><path d="M87.356 90.513c2.72-23.428 25.375-40.774 45.221-40.282 29.15.034 46.439 14.47 53.69 41.093 4.37 18.543 1.615 34.238-3.166 49.121-5.906 16.708-11.007 33.319-8.551 46.076 2.479 12.874 14.486 25.018 29.004 37.262l-55.989-7.154c-7.442-21.332-2.02-43.659 5.457-62.011 8.111-16.846 18.938-31.147 19.252-55.304-7.787-27.87-24.563-35.511-47.336-31.909 5.018 4.252 6.761 8.503 8.751 12.755-12.515-6.934-35.005-3.498-46.351 10.351z" color="#000" fill-opacity=".961" fill="#f4edd8"/><path d="M388.1-428.22c-58.556 1.256-112.92 40.432-137.09 93.062 33.624-20.422 74.85-28.523 113.75-22.062-10.109-12.507-23.478-21.891-37.375-29.781 41.842-9.84 87.532-15.269 128.63.504 40.279 14.903 68.105 51.562 83.281 90.496 6.353 14.78 10.794 30.563 9.787 46.843-2.045 51.253-5.426 93.572-29.11 138.4-13.511 24.938-31.275 52.051-40.435 79.089-17.548 49.957-25.56 96.361-16.33 149.04a217.148 217.148 0 005.657 23.531c50.286 6.389 87.432 24.964 137.71 31.403-31.947-29.842-63.113-64.091-74.947-107.22-10.386-43.369.43-88.195 12.914-129.92 16.692-53.027 38.148-106.38 35.978-162.95-.505-56.995-19.276-116.1-60.805-156.43-35.071-32.722-84.543-44.911-131.61-44.008z" transform="matrix(.27376 0 0 .27376 25.66 171.278)" opacity=".7" color="#000" filter="url(#d)" fill="#778590"/><path d="M134.05 63.927c-17.244-.21-34.98 7.43-45.599 20.866a41.13 41.13 0 00-.718 3.25l.547 1.403c11.604-12.951 33.25-16.034 45.436-9.282-1.99-4.251-3.734-8.504-8.752-12.755 22.773-3.603 39.557 4.04 47.344 31.91-.315 24.156-11.146 38.454-19.258 55.298-7.063 17.339-12.288 38.223-6.57 58.468 17.585-3.846 32.651-.137 47.403 4.517-8.082-5.506-16.39-11.41-23.748-16.127-10.353-6.635-18.283-12.278-16.306-23.004 9.87-31.433 39.87-58.125 17.102-97.486-9.259-11.56-22.904-16.887-36.881-17.058z" opacity=".3" color="#000" fill="#080740"/><path d="M280.49 66.09c-1.41-17.54 7.733-34.601 22.858-38.173 20.673-3.408 34.194 3.556 44.473 15.22 12.286 15.79 17.133 32.643 11.183 51.04-5.511 22.81-24.671 31.516-45.603 38.39-18.738 6.659-31.367 7.715-43.997 8.775-14.761 2.522-18.111 8.698-20.57 15.069-2.021 5.235-1.72 15.564 8.745 20.22l-7.913 32.414-25.047 1.99c-30.094-13.653-22.158-69.442 7.436-86.679 17.667-11.228 35.932-13.87 56.195-14.761 15.861-.699 38.782-1.972 48.415-16.979 8.305-11.891 8.315-25.56 1.136-40.77-4.508-11.342-20.234-20.635-28.8-11.524l7.493 9.66c-18.254-3.517-28.458 6.186-36 16.11z" color="#000" fill="#f4edd8"/><path d="M1046.8-512.94c-25.813-.363-53.771 7.215-70.594 27.702-15.846 16.963-25.551 39.065-29.624 61.736 22.98-21.248 53.156-35.835 84.875-36.375-4.711-6.094-9.477-12.146-14.094-18.313 14.846-27.182 53.084-34.824 79.531-20.75 34.159 14.429 67.348 49.087 77.762 83.639 15.478 43.482 25.089 101.04-1.341 139.74-20.062 31.265-66.366 65.521-102.28 73.429-69.155 17.771-88.88 23.892-149.57 28.428-67.972 5.08-123.51 41.184-153.56 84.952-38.645 56.275-31.386 123.03 4.344 164.71 40.811 10.766 17.12 50.582 34.767 48.881 7.51-32.697 16.683-65.413 23.438-98.031-30.592-18.579-41.75-61.725-25.78-93.302 12.083-29.603 41.453-49.99 72.792-54.363 33.992-6.455 69.24-5.61 102.65-14.78 51.275-11.709 101.61-28.822 148.21-53.087 31.652-18.046 59.291-45.347 70.89-80.59 16.461-42.207 19.001-91.127.422-133-17.527-43.693-50.067-83.693-94.812-101.09-18.42-7.111-38.283-9.95-58.03-9.531z" transform="matrix(.27376 0 0 .27376 25.66 171.278)" opacity=".7" color="#000" filter="url(#e)" fill="#778590"/><path d="M251.028 180.084l15.643 29.82-32.753 3.031 8.701-19.456c1.07-5.797 3.95-10.204 8.409-13.395z" color="#000" fill-opacity=".961" fill="#ede490"/><path d="M351.373 112.55c-.426-.003-.805.063-1.095.188-1.336.578-1.908 2.27-2.678 3.764-4.394 3.394-7.105 4.546-9.992 5.93-6.09-.02-10.047-.236-13.286-.514-3.58-.14-5.796.563-5.989 2.506-1.525 4.613-4.191 9.795-7.802 15.45-1.733-.19-3.456-.393-5.697-.076l-9.248 2.412-2.319-1.275-2.737 1.934c-5.69 9.036-10.01 17.88-13.885 26.657-2.279.618-6.16 3.06-8.495 2.361-2.816-.842-1.35-2.427-8.735.667-3.143 1.317-5.767 4.756-8.29 7.383-2.1 8.37-2.77 16.74-3.062 25.11-5.52.367-4.899-6.553-4.705-12.97-4.793.491-7.524 5.112-10.147 9.941-3.754 2.425-8.019 6.904-12.507 12.268l-3.337-.222c-9.621 12.353-24.022 4.389-32.954-.385-12.875-6.882-34.435-5.674-44.948 3.422-7.948 5.878-16.519 13.238-20.84 21.738-5.215 10.26-3.023 22.536-7.066 36.607-3.977 10.792-8.23 19.337-14.5 22.748-18.85 10.255-41.867-.482-54.554-13.491-22.918-22.769-17.554-52.577 1.377-75.216 15.75-14.516 28.076-35.249 21.516-56.016-4.44-14.057-21.669-27.87-39.301-26.486 8.336 3.7 15.585 10.068 18.393 16.408 3.11 7.022 1.701 16.443-.111 23.245 3.591-1.297 6.08-2.81 8.384-4.364 2.147 18.233-8.563 25.446-16.092 35.384-14.497 16.969-30 33.222-30.927 59.832-2.025 22.528 19.382 64.68 69.405 75.796 23.121 2.28 40.077-5.501 52.074-14.783 11.901-9.562 23.991-22.623 23.398-35.349-.466-9.992.253-21.037 8.315-25.613 17.218-8.516 27.565 7.408 46.454 10.856-20.601 16.515-27.294 38.153-19.873 64.99-6.236-1.137-12.414-2.063-18.137-1.146-27.456 3.895-45.19 37.27-37.103 58.44l8.12 20.712c6.467 16.505 10.71 32.11 3.652 48.473-10.359 17.416-30.24 24.876-49.388 16.562 5.997-4.478 7.022-10.444 9.633-15.938-27.086 9.529-49.724-2.454-57.799-16.425 5.37 28.773 48.06 67.665 82.178 52.014 28.03-8.05 36.291-30.928 40.996-56.473.748-7.945-1.768-18.471-6.424-29.463-6.139-14.491-9.446-26.968.838-36.992 6.723-5.057 20.787-6.597 36.581-1.249 10.379 3.515 28.817 5.346 44.161-1.6l10.249-5.098c-5.243 15.527-5.367 36.967 4.064 57.174 11.412 15.037 24.45 27.447 46.684 24.963 21.876 3.225 44.365-16.54 40.431-43.75 5.303-9.545 10.387-19.211 12.43-30.567 20.278-6.07 28.705 14.9 31.697 28.565-.64 19.355-.67 38.025 17.401 52.707 27.198 22.099 45.742 14.001 68.584 2.54 18.891-13.702 33.99-28.94 42.458-46.29 5.268-9.47 9.159-23.143 12.859-34.597 4.708-14.58 12.274-26 25.151-27.992 12.956 1.153 20.055 5.317 22.67 10.197 3.047 5.684-.326 14.499-3.866 20.968-2.603-2.525-5.379-4.973-10.797-6.22 5.287 15.597-.6 34.547-14.398 48.089 18.74-2.589 38.918-21.643 46.137-44.649 5.335-23.234-16.487-53.567-45.94-50.517-21.39 1.786-37.12 15.477-42.895 35.691-3.232 11.906-6.727 25.084-13.346 36.496-8.563 14.76-21.303 26.7-34.52 30.464-9.84.735-18.115-1.844-22.782-5.835-9.066-7.751-8.618-22.208-8.846-36.717.411-29.78-17.256-60.626-52.715-67.344 1.107-1.885 3.72-4.15 6.904-6.553 2.448-2.98 5.296-5.111 9.556-4.21l27.743 3.542c3.977-2.34 8.807-3.208 13.98-3.481 4.985-.264 9.216.216 15.467.085 2.787-3.323 6.7-5.307 12.353-5.244L477 297.577c7.536 1.119 12.185-2.525 16.845-6.595 4.994-5.848 12.4-11.69 19.077-17.538l1.84-.992c5.71-5.499 11.943-13.358 15.86-21.396 5.231-10.733 8.757-22.692 12.585-34.434 8.704-7.992 15.278-19.057 20.67-31.833 1.567-3.686.751-7.63-3.85-5.8-8.758.377-21.028-4.764-32.15-8.102-3.73-3.285-7.024-5.402-9.65-5.74-21.001-13.619-37.734-24.223-58.337-27.667-4.074-3.058-8.728-4.391-13.722-4.688l-2.977-1.916c-6.34-.392-11.085-1.222-14.963-.71-5.38-1.834-9.845-2.68-14.851-4.663-5.7-2.258-9.646-4.986-17.333-8.033-8.314.38-18-1.093-24.22 1.147-1.836-1.791-2.458-3.4-4.944-4.32-2.61-.967-7.439-.841-12.448-.66-.951-.747-2.124-1.08-3.062-1.086zM230.095 303.145c.144 18.615-8.821 21.409-19.223 29.455-2.944-6.286-.711-12.259 2.592-17.854 3.458-5.859 8.753-10.274 16.63-11.6zm75.389 41.296s8.474 5.049 6.228 21.464c-1.93 14.097-23.236 14.415-23.236 14.415 3.547-12.61 10.908-22.111 17.008-35.88zm10.266 69.045c1.64 5.951-.749 9.292-4.8 11.754-7.544-1.273-11.905-4.472-16.348-10.582 6.579.648 13.647.208 21.148-1.172z" color="#000" fill="#f4edd8"/><path d="M1194.9-189.16c-8.738 12.747-23.762 18.9-36.687 26.393-15.865 7.548-34.167 8.184-51.364 5.361-6.41-.528-12.872-1.017-19.293-.41-8.705 23.005-20.74 44.609-35.594 64.094-8.855 5.426-18.736-3.027-27.988.72-13.991 2.338-27.579 8.832-42.075 7.749-19.211 31.16-34.879 64.317-49.562 97.844-17.611 2.971-34.279 16.287-52.75 10.563-4.93-4.027-11.826-2.264-16.375 1.5-12.118 6.322-22.705 18.209-22.67 32.61-4.796 26.634-5.712 53.823-6.705 80.858-16.56 14.308-43.9 7.075-54.844-10.688-1.46-1.84-2.178-6.355-4.03-2.375-10.469 11.546-24.376 19.888-33.858 32.563-7.775 8.172-14.622 18.467-25.643 22.312-3.036.358-6.686-3.449-8.187.969-25.75 25.23-67.463 26.914-98.875 12.094-29.686-12.447-57.882-31.903-91.154-32.164-38.788-2.813-78.673 10.672-106.37 38.043-25.91 21.097-52.385 46.558-59.474 80.62-7.646 41.239-5.8 84.755-22.656 123.84-11.166 28.772-26.354 58.359-52.397 76.208-36.865 24.157-84.99 25.534-126.38 13.484-51.05-14.961-96.161-48.007-127.73-90.503-28.938-39.754-43.507-90.55-36.32-139.68 7.424-60.831 54.414-113.2 98.184-155.11 32.12-33.91 57.207-83.082 58.633-130.89 2.03-40.267-26.14-95.762-72.471-109.49 6.433 15.602 28.357 57.045 27.224 73.962 5.1-3.423 10.176-6.894 15.156-10.5 20.777 51.353 6.352 113.71-32.726 152.31-40.633 49.945-88.74 96.24-114.3 156.35-23.935 55.339-16.673 126.53 13.714 179.04 42.733 65.103 119.24 125.63 209.71 151.41 73.473 8.728 147.83-23.382 198.34-75.907 17.382-17.921 34.346-37.613 43.043-61.41 6.065-17.281-9.636-34.747-9.38-52.708.952-29.192 12.466-75.878 37.049-93.528 29.042-21.22 78.918-14.23 110.66.63 33.956 14.88 68.015 45.893 106.08 48.606 9.1-.013 15.706 9.479 13.5 18-1.79 10.115-13.324 12.419-19.562 19.124-38.588 30.993-68.73 76.414-72.703 126.9-3.902 41.77 5.889 83.343 20.202 122.26-36.515-8.62-75.378-19.088-112.53-8.5-64.117 21.105-109.82 87.858-106.1 155.4 1.993 24.753 13.582 47.128 22.572 69.972 19.137 45.754 37.6 93.139 39.954 143.25 1.941 36.515-6.869 74.25-29.566 103.35-36.178 48.533-101.29 73.173-160.78 60.645-29.824-5.908-56.254-21.798-83.05-35.623 19.69.805 40.479-5.693 53.126-21.438-36.262 5.042-73.96.828-107.88-12.97 35.393 45.598 84.622 82.336 140.91 97.439 30.97 7.401 64.268 4.003 93.344-8.438 36.83-12.347 71.116-35.183 90.75-69.344 22.272-36.277 32.947-78.076 39.28-119.81 3.526-45.603-20.165-86.535-34.187-128.47-9.738-28.239-14.633-59.992-3.906-88.656 8.577-25.102 29.246-45.473 54.75-52.906 40.09-13.473 83.55-6.392 123.15 5.324 27.529 7.79 56.004 13.722 84.78 10.82 35.618-2.323 69.773-15.166 100.25-33.32 18.207-9.004 36.267-18.311 54.249-27.762-44.047 73.849-47.673 170.19-9.344 246.94 24.624 32.663 54.922 64.146 95.531 75.406 28.924 6.934 59.075 4.212 88.5 3.093 54.544-9.247 97.552-63.685 93.102-119.22-.5-11.348-3.995-24.239 3.992-33.939 19.417-34.888 37.36-71.807 42.094-111.81 7.481-4.074 15.476-6.899 23.701-8.559l-9.718-57.362c32.892-.039 93.386 9.08 133.14 46.316 80.454 75.354 52.214 177.15 101.83 245.39 48.9 67.256 129.22 69.608 231.76 1.8 108.81-78.56 120.16-175.43 179.04-270.47 18.716-28.508 48.9-52.639 84.182-54.272 24.178-.674 47.738 7.134 69.375 17.25 22.73 11.502 40.479 34.876 39.53 61.188-.893 30.024-14.803 57.87-30.561 82.72-6.34 5.392-16.054 1.816-20.438-4.345-.19 27.627-21.998 85.278-33.621 110.27 39.1-28.8 95.964-93.695 110.81-139.89 9.025-40.396-8.064-95.66-34.952-125.85-29.788-34.374-90.886-60.708-135.94-52.206-57.423 9.084-115.87 61.765-130.2 118.69-14.123 45.64-27.314 97.493-51.507 139.08-28.96 53.19-54.424 78.4-111.13 101.84-33.717 11.746-66.07 19.607-96.946 2.8-22.872-13.081-45.087-44.097-51.672-69.41-14.14-49.231.764-93.341-9.24-143.2-11.476-65.02-71.758-128.88-131.01-158.61-24.849-13.198-44.463-5-72.208-8.71-5.037.616-1.448-5.352-1.325-8.248 5.85-23.304 25.56-39.266 42.937-54.312 11.252-11.626 27.473-18.872 43.936-16.733 22.229 1.46 44.1 6.53 66.25 8.42 11.372 1.153 22.84 3.748 34.25 3.156 16.952-7.232 35.275-10.396 53.657-11.07 15.786-.803 31.78.336 47.438-.087 17.392-16.88 43.23-17.539 65.52-22.696 21.623-6.507 43.323-15.565 66.356-14.46 23.984-3.923 38.22-26.368 54.875-41.594 31.328-29.446 69.878-52.778 92.344-90.5 28.596-43.908 41.77-95.555 58.78-144.78 7.752-18.476 25.493-29.96 36.126-46.46 14.627-20.752 27.543-42.999 36.53-66.697-38.484-2.23-74.081-18.964-110.59-29.5-12.981-4.824-21.761-16.592-34.968-21.094-12.89-4.723-23.801-12.66-35.122-20.198-49.805-31.982-101.73-63.405-159.94-76.913-18.513-1.1-33.565-13.348-50.952-18.16-11.765-1.992-23.472-4.922-34.225-10.02-24.751-3.489-51.022.415-74.608-9.49-30.207-9.154-59.086-22.124-87-36.594-14.79-4.812-30.656-1.054-45.906-2.844-16.091-.468-32.067 2.76-47.906 3.938-12.562-.928-16.064-18.378-29-17.844-11.83-.364-23.93 1.86-35.562-.938l-.5.782zM751.51 458.75c12.576-.254 20.204 14.37 17.312 25.531 1.622 39.21-16.156 79.965-49.763 101.22-15.675 11.614-32.572 22.32-46.362 36.028-26.865-24.2-29.243-67.46-12.062-97.844 16.755-35.109 51.138-62.338 90.875-64.937zm262.09 142.19c23.239 11.188 42.947 31.221 50.125 56.438 6.63 24.254 7.045 51.239-2.375 74.719-10.236 24.576-34.551 39.444-59.083 47.006-16.195 4.72-33.595 7.02-50.386 4.838-13.684-4.534-17.049-22.723-11.105-34.591 13.657-38.59 35.316-73.42 53.761-109.72 6.372-12.936 12.334-26.284 16.906-40.063l2.156 1.375zm61.938 260.19c9.625 21.227 11.7 48.194-2.125 68.156-9.858 15.906-31.112 25.004-48.969 17.469-27.947-8.96-54.042-28.478-65.188-56.156-1.998-15.771 16.407-28.72 30.844-23 28.58 1.904 57.077-2.184 84.938-8.25l.27.963z" transform="matrix(.27376 0 0 .27376 25.66 171.278)" opacity=".706" color="#000" filter="url(#f)" fill="#778590"/><path d="M1860.5 808.59c3.158-16.441 16.831-40.392 29.101-63.342l2.715-35.969-35.738-24.248c36.451 13.591 61.662 28.586 87.594 43.491l-16.01 34.79-10.597 44.418-15.35 24.262-9.668 62.712c-18.92 17.069-37.806 33.965-54.075 37.776l-24.687-13.145 43.625-37.017c3.833-19.904 3.161-47.315 3.089-73.728z" color="#000" fill="url(#g)" transform="translate(-540.37 -229.4) scale(.54358)"/><path d="M1785.9 784.32l26.009-76.901-82.358-49.404-46.224-6.812 5.355-8.22 40.604 4.62 68.684 21.802 32.922 8.613 22.1 16.255 24.355 12.264-.953 42.094-24.728 63.738c-10.522-19.443 20.57 86.264-3.511 66.822l-38.72 32.974-24.285-15.64-37.478 12.217 38.23-44.119z" color="#000" fill="url(#h)" transform="translate(-540.37 -229.4) scale(.54358)"/><path d="M1683.6 702.36l-23.847-10.256-24.871 1.47-24.857-7.83 5.355-8.22 28.903-8.099 36.124 1.962 33.939-1.562 69.922 32.535-15.327 77.382.065 81.266-35.92 46.95c-10.522-19.443-26.744-38.885-50.824-58.328l18.259-37.74-2.918-26.324 13.395-24.41 4.144-39.033z" color="#000" fill="url(#i)" transform="translate(-540.37 -229.4) scale(.54358)"/><path d="M1559.4 737.41l41.067-17.237 2.906-24.455c30.981 8.538 59.45 19.087 83.658 33.043-.177 39.482-6.104 76.09-19.84 108.79-23.402-1.858-47.238-.673-71.99 6.937-20.689-10.434-38.317-23.49-49.536-42.04.94-23.24 3.404-45.826 13.736-65.041z" color="#000" fill="url(#j)" transform="translate(-540.37 -229.4) scale(.54358)"/><path d="M170.47 255.136c-8.786 5.243-14.482 13.016-14.33 25.571-5.3 23.455-25.207 22.909-32.962 12.114-6.871-6.06-11.185-12.002-11.182-17.743-.12.017-.24.025-.36.043.229-.81.436-1.614.625-2.413.013-.06.03-.12.043-.18.017-.07.026-.142.043-.213l.017-.069c1.292-5.622 1.732-10.931 2.224-15.937-6.853.966-13.927 1.177-19.616 6.1-13.385 10.465-3.223 34.48 3.918 45.563 5.443 6.917 17.508 14.816 27.538 18.034 24.417 5.573 48.45-.939 53.974-24.724 1.36-2.729 2.983-4.42 4.833-5.193 3.422-10.443 10.144-19.673 20.148-27.692-14.305-2.612-23.712-12.373-34.913-13.26z" color="#000" fill-opacity=".961" fill="#f4edd8"/><path d="M542.48 313.14c-26.363 15.034-51.3 55.998-50.32 85.914-4.286 36.33-27.434 72.601-63.375 83.969-28.597 8.669-61.581-.908-80.83-23.694-19.162-18.688-39.293-38.391-46.826-64.837-3.384-7.63-5.052-16.464-1.313-24.281 3.885-13.507 5.288-27.493 6.938-41.375-20.861 2.774-43.823 9.933-54.719 29.531-11.894 22.778-6.333 49.969 1.062 73.125 9.765 32.174 26.426 64.399 54.714 83.787 34.474 27.289 78.422 42.792 122.6 40.744 38.03-.438 78.567-13.416 101.69-45.094 9.8-12.998 14.514-28.626 19.5-43.75 3.996-9.125 10.564-17.095 18.438-23.25 10.792-30.96 48.301-62.37 70.423-85.634-30.905-11.536-65.272-38.987-97.977-45.155z" transform="matrix(.27376 0 0 .27376 25.66 171.278)" color="#000" filter="url(#k)" fill="#778590"/><path d="M341.371 274.825c8.874 5.015 17.546 10.27 27.67 13.786-1.179 9.312-7.257 14.234-15.84 16.914-7.842 2.335-18.456-3.705-21.02-12.221-2.461-9.72-.073-16.315 9.19-18.48z" color="#000" fill-opacity=".961" fill="#ede490"/><path d="M221.077 170.827l3.664-.899c.81 4.998 2.694 8.922 5.531 11.892l-1.521 2.696c-5.068-1.623-8.995-4.582-7.674-13.688zM211.292 188.597l1.314-1.59c1.793 4.515 4.217 7.96 6.844 11.06l-.83 1.798c-4.773-1.506-7.884-4.617-7.328-11.269zM231.84 143.246c-3.194 4.37-5.038 8.932-6.983 13.481-.534.09-3.099-6.567-1.59-9.54 1.583-3.12 4.818-4.692 8.573-3.94zM254.779 125.34c-4.577 1.398-9.6 4.094-13.136 9.265-1.086-2.894.407-7.877 3.664-9.61 3.797-2.02 8.69-2.48 9.472.345zM368.659 360.439c5.376-1.096 10.5-.043 15.14 5.116l-2.973.345c-3.448-.413-6.76-1.505-10.024-2.834zM395.24 377.344c5.022 2.552 6.756 7.97 6.052 13.537l-2.56-1.551c-1.018-.782-2.34-3.124-4.103-6.176-.385-2.01-.467-3.982.61-5.81zM403.557 405.447c5.022 2.552 5.436 10.024 4.732 15.59l-1.436.356c-1.106-.644-4.418-5.259-5.227-9.795-.385-2.01.169-4.47 1.93-6.15zM414.265 433.605c6.28-.42 7.214 6.568 9.432 11.72l-1.54-.036c-3.146-1.444-3.157-3.324-6.156-6.822-1.352-1.536-2.401-2.52-1.736-4.862zM437.259 453.065c5.256-3.5 12.235-2.306 16.84-.7l-.562 1.063c-.876.934-6.115 3.126-10.717 2.898-2.045-.076-4.32-1.167-5.562-3.261zM466.503 443.443c1.314-3.324 5.16-5.91 10.724-6.624l1.396.09c-.346 1.233-1.735 4.179-5.923 6.1-1.85.877-4.128 1.719-6.197.435z" color="#000" fill-opacity=".961" fill="#f4edd8"/><path d="M337.947 577.599c-1.581-.107-2.921-.21-2.977-.228-.056-.018 2.008-1.358 4.586-2.976 23.888-14.993 35.762-29.597 41.656-51.234.59-2.168 1.12-3.987 1.175-4.043.24-.24 5.176 3.885 7.354 6.147 2.712 2.816 2.377 2.846 3.976-.353 3.752-7.502 3.457-16.29-.85-25.343-3.936-8.273-18.015-13.7-34.525-13.31-10.388.246-9.378-.068-36.684 11.405-18.424 7.74-27.61 10.005-40.516 9.989-8.943-.011-15.149-1-23.407-3.732-18.768-6.208-34.768-21.046-42.308-39.236-8.065-19.459-7.301-40.937 1.99-55.891l1.388-2.235-1.683-.182c-.925-.1-2.791-.428-4.146-.728-16.152-3.579-28.402-14.847-35.458-32.613l-1.172-2.952-1.67.174c-4.592.48-10.14 2.472-11.962 4.292-4.517 4.516-6.466 10.215-5.736 16.767.54 4.851 1.922 9.431 5.717 18.955 4.468 11.213 6.337 18.923 6.34 26.16 0 2.783-.169 4.038-1.234 9.093-4.217 20.02-10.556 32.587-20.934 41.5-4.553 3.91-9.965 6.915-17.085 9.486-11.607 4.192-12.069 4.291-19.877 4.293-6.219 0-7.703-.183-13.093-1.626-23.891-6.393-48.46-31.219-53.537-54.098-.144-.65-.04-.762 1.106-1.2 1.171-.447 1.284-.45 1.518-.03 2.7 4.825 9.86 11.018 16.18 13.995 11.962 5.635 24.46 6.152 39 1.613 1.719-.537 3.193-.907 3.277-.823.223.224-4.442 11.056-5.563 12.92a27.343 27.343 0 01-2.181 3.021c-.674.789-1.13 1.491-1.015 1.56.464.28 4.209 1.3 6.384 1.738 3.544.715 10.257.632 13.804-.17 9.861-2.23 17.834-7.772 23.655-16.444 3.452-5.143 5.306-14.1 4.667-22.547-.694-9.159-2.399-14.928-10.661-36.077-6.467-16.553-7.028-18.881-6.34-26.352 2.157-23.412 20.985-43.852 41.948-45.538 2.954-.238 8.573.023 12.119.562 2.39.364 2.416.361 2.293-.198-2.477-11.296-2.89-20.109-1.321-28.257.626-3.258.134-2.894-.985.727-2.324 7.52-5.876 12.96-11.165 17.1-9.736 7.621-23.468 10.224-39.626 7.512-3.12-.524-7.607-1.85-9.352-2.765-.719-.376-.945-.295-5.452 1.958-11.4 5.7-21.955 7.99-34.953 7.582-5.066-.16-5.548-.223-9.444-1.248-17.68-4.648-32.784-13.285-44.635-25.52-15.129-15.622-23.269-34.782-22.075-51.96 1.291-18.568 7.174-31.01 24.264-51.316 2.266-2.692 5.212-6.203 6.548-7.802 1.336-1.6 3.843-4.57 5.572-6.603 6.868-8.075 9.262-12.373 10.35-18.583.419-2.39.553-7.265.197-7.103-.113.052-1.076.545-2.14 1.096-2.5 1.296-6.69 2.985-6.69 2.697 0-.123.359-1.807.796-3.743 1.92-8.494 2.051-14.098.448-19.172-1.829-5.79-8.42-12.474-16.208-16.433l-2.045-1.04.165-1.068c.255-1.647.167-1.618 4.359-1.458 15.911.604 32.187 12.967 36.667 27.85 5.192 17.25-1.328 35.965-18.74 53.793-9.478 9.705-15.926 21.544-18.336 33.673-.574 2.885-.651 4.018-.637 9.308.02 6.791.387 9.208 2.19 14.386 8.32 23.908 38.176 41.39 59.25 34.697.978-.311 1.812-.593 1.853-.626.042-.033-.283-.858-.72-1.834-3.053-6.804-4.582-13.99-4.342-20.41.274-7.338 2.436-11.837 7.552-15.71 3.63-2.748 7.555-4.165 14.251-5.143 4.448-.65 4.401-.633 4.401-1.577 0-1.502.887-6.67 1.66-9.67.97-3.773 2.78-7.543 5.386-11.224 3.882-5.483 15.797-16.24 22.065-19.921 1.948-1.144 2.132-1.325 1.995-1.962l-.56-2.618c-2.035-9.524-1.626-22.201 1.097-34 2.293-9.936 5.217-17.799 10.315-27.733 8.133-15.849 9.023-17.747 11.167-23.836 2.328-6.61 3.591-12.709 4.079-19.692.29-4.163.064-5.29-2.213-11.027-5.577-14.053-14.11-21.697-26.657-23.882-2.897-.504-10.474-.676-12.673-.288l-1.174.208 1.047 1.137a26.148 26.148 0 011.912 2.397c1.281 1.864 5.752 10.923 5.392 10.923-.07 0-1.08-.475-2.244-1.056-6.275-3.132-12.184-4.274-18.746-3.623-11.487 1.14-19.901 5.294-27.152 13.401-1.496 1.673-2.766 2.994-2.824 2.936-.174-.174 1.262-8.087 1.893-10.426 4.498-16.682 19.325-30.539 36.912-34.497 3.102-.698 11.977-.858 16.776-.303 19.974 2.31 33.55 11.652 41.813 28.772 4.229 8.762 6.267 16.925 6.837 27.381.672 12.34-1.062 22.813-6.455 38.981-6.205 18.6-8.029 27.258-7.704 36.562.277 7.948 2.53 13.483 8.92 21.916 2.283 3.013 13.934 14.862 15.317 15.576 1.198.62 5.338.873 7.494.459 2.842-.546 5.425-1.992 7.746-4.335l2.035-2.055 1.587.158c1.543.153 1.607.132 2.339-.753l.752-.91-1.847-1.192c-2.437-1.572-6.76-5.885-8.477-8.456-9.12-13.651-9.424-34.815-.777-53.963 4.743-10.505 11.67-18.577 20.873-24.325 14.971-9.35 29.835-13.396 54.29-14.777 10.588-.597 14.232-.876 18.478-1.415 16.205-2.054 25.745-6.74 31.556-15.498 7.661-11.546 7.812-24.372.467-39.655-2.265-4.714-5.144-8.012-9.362-10.724-5.39-3.465-11.886-3.99-15.073-1.217l-.854.742 4.236 5.447c2.33 2.996 4.177 5.506 4.104 5.578-.072.073-1.522-.095-3.222-.372-13.862-2.258-23.37 1.86-33.548 14.534-1.572 1.957-2.97 3.6-3.106 3.65-.61.226-.38-10.484.316-14.63 2.56-15.27 12.776-26.738 25.444-28.567 10.658-1.538 21.68.199 29.906 4.712 16.62 9.118 28.822 31.068 27.757 49.93-.54 9.58-4.102 20.947-8.773 28-.84 1.269-1.496 2.32-1.46 2.336.038.016.534.241 1.104.5.841.383 1.867.472 5.475.476 6.825.007 9.077.656 11.695 3.368l1.42 1.471 1.548-.41c1.2-.317 3.883-.435 11.95-.524l10.403-.114 2.738 1.218c1.506.67 4.955 2.292 7.665 3.604 6.583 3.186 9.08 4.157 15.878 6.172 4.845 1.437 6.041 1.697 7.603 1.656 1.02-.027 4.469.152 7.666.398l5.81.448 1.476.963c1.125.735 1.935 1.026 3.422 1.227 2.088.282 4.72.882 6.053 1.378 1.393.519 4.63 2.161 5.114 2.596.253.226 1.81.698 3.46 1.047 14.562 3.084 27.078 8.92 48.782 22.743 3.88 2.472 7.223 4.495 7.427 4.495 1.108 0 4.973 2.256 7.768 4.532 1.295 1.056 2.165 1.407 8.683 3.508 16.225 5.229 19.217 5.837 26.227 5.33 2.554-.185 3.685 1.174 3.685 4.424 0 2.69-.564 4.19-4.635 12.32-4.416 8.817-9.264 15.886-14.616 21.312l-2.004 2.032-2.743 8.356c-7.17 21.84-11.128 30.213-18.767 39.702-2.712 3.368-7.359 8.189-8.428 8.742-1.447.749-11.88 9.91-16.555 14.537-8.33 8.244-11.76 10.159-18.486 10.32-2.906.07-3.304.16-11.348 2.561-4.585 1.369-8.836 2.49-9.445 2.493-3.358.015-6.82 1.37-9.35 3.66l-1.642 1.485-9.977.131c-11.522.153-14.059.531-18.596 2.778l-1.238.613-14.372-1.875c-8.763-1.144-14.97-1.833-15.902-1.765-1.992.143-2.797.587-5.406 2.978-1.19 1.09-3.06 2.778-4.156 3.749-1.884 1.669-1.957 1.776-1.337 1.962.361.108 2.048.583 3.748 1.056 20.144 5.597 36.134 21.145 43.222 42.029 1.514 4.463 2.505 8.773 3.493 15.193.081.527.33 6.502.551 13.278.424 12.923.779 16.829 1.92 21.116 2.749 10.328 9.386 15.388 21.707 16.548 5.443.512 7.57.08 12.977-2.629 13.4-6.715 25.794-21.588 32.642-39.172 1.775-4.558 3.969-11.43 6.198-19.415.884-3.167 1.995-6.862 2.47-8.213 5.662-16.117 18.397-27.823 34.545-31.753 18.703-4.552 35.208 1.2 46.971 16.37 8.172 10.539 11.62 25.21 8.364 35.588-5.625 17.932-21.74 35.953-37.53 41.968-3.658 1.394-13.218 3.7-13.218 3.188 0-.07 1.401-1.58 3.113-3.355 13.576-14.081 18.53-31.02 13.61-46.53-.31-.978-.565-1.86-.567-1.959-.005-.222 3.96.87 6.085 1.675.864.327 2.524 1.279 3.689 2.115 1.164.835 2.255 1.572 2.423 1.636.99.38 4.225-9.578 4.225-13.008 0-7.157-6.964-12.077-19.583-13.835-2.719-.379-3.044-.372-4.874.1-8.957 2.31-15.87 10.113-20.747 23.413-.442 1.205-2.105 6.256-3.697 11.224-4.071 12.71-5.98 17.698-9.533 24.912-5.505 11.178-10.994 18.927-20.135 28.428-7.555 7.852-20.877 18.824-25.94 21.364-10.28 5.157-18.074 8.137-25.253 9.655-3.366.712-13.125.716-16.426.006-13.483-2.896-28.433-12.956-36.074-24.275-6.15-9.11-8.466-20.118-8.206-39.01l.068-4.928-1.002-3.285c-1.069-3.503-2.99-8.627-3.232-8.62-.08.006-.595.837-1.143 1.854-4.807 8.909-13.628 15.326-24.527 17.841-3.26.752-7.312 1.377-8.97 1.384-.752.005-1.504.095-1.67.206-.166.111-.378 1.484-.474 3.076-1.186 19.74-18.008 35.92-37.277 35.856-10.812-.036-16.563-.198-17.931-.504-7.773-1.742-12.624-3.925-18.525-8.34-3.413-2.552-9.166-8.203-12.099-11.884-1.194-1.499-2.142-2.456-2.327-2.349-4.6 2.668-9.347 7.52-11.472 11.728-2.075 4.11-2.756 9.772-1.57 13.056 7.368 20.403 16.327 29.464 31.922 32.282 3.88.701 13.826.85 18.861.281 5.413-.61 12.916-2.998 27.171-8.644 13.15-5.208 19.006-7.01 27.59-8.49 16.894-2.912 32.864 2.1 49.608 15.568 7.294 5.867 10.925 11.677 12.928 20.686 4.114 18.504-4.735 42.182-20.522 54.912-11.17 9.008-27.334 16.917-39.897 19.52-5.158 1.069-8.224 1.248-14.307.837zm11.087-3.04c14.37-2.107 37-13.791 46.219-23.863 10.652-11.638 16.76-28.204 15.53-42.119-.958-10.843-4.496-17.955-12.024-24.17-13.543-11.181-25.889-16.323-39.216-16.333-9.965-.008-19.182 2.33-36.665 9.3-13.344 5.319-21.72 7.965-27.09 8.558-5.21.574-15.657.44-19.437-.25-16.831-3.072-26.696-12.75-34.086-33.442l-1.022-2.863.129-3.57c.318-8.785 5.023-15.91 14.646-22.178.034-.022-.548-1.479-1.293-3.237-4.037-9.526-6.566-21.12-6.57-30.12 0-2.588.45-2.62-5.483.392-11.85 6.017-19.91 13.435-24.583 22.626-11.336 22.292-4.575 54.159 15.46 72.872 10.693 9.987 22.093 15.54 37.224 18.13 4.779.817 15.289.89 20.087.14 9.932-1.554 16.949-3.853 34.63-11.347 21.59-9.15 23.376-9.648 34.624-9.644 16.377.005 30.54 5.873 35.04 14.523 4.973 9.56 5.154 20.93.464 29.277-1.07 1.904-3.177 4.932-3.42 4.914-.101-.008-.861-.877-1.69-1.932-1.505-1.916-6.24-6.688-6.439-6.49-.058.059-.54 1.54-1.071 3.293-5.534 18.257-17.395 33.347-36.091 45.916-1.616 1.086-2.938 2.028-2.938 2.093 0 .141 2.403-.083 5.065-.474zm-231.19-77.03c5.158-1.143 15.778-5.158 20.067-7.587 14.15-8.012 22.32-21.611 27.31-45.458 2.193-10.482 1.028-17.91-5.289-33.73-2.703-6.768-3.558-9.25-4.587-13.309-2.398-9.453-1.394-16.157 3.363-22.47 2.635-3.498 5.802-5.365 11.376-6.706 3.058-.735 3.48-.768 9.766-.754 7.443.017 10.825.542 18.48 2.871 9.07 2.76 17.304 3.717 26.032 3.024 8.193-.65 13.69-2.274 22.457-6.632l5.92-2.943 2.54-2.747c9.92-10.723 14.368-21.12 15.121-35.335l.066-1.231 1.472 2.028 1.473 2.03-.184 2.213c-.832 9.98-4.889 17.852-16.002 31.05-2.53 3.007-2.783 3.415-3.438 5.564-1.78 5.837-2.6 11.218-2.806 18.435-.303 10.553 1.294 20.377 4.863 29.91 1.942 5.19 2.27 5.769 5.635 9.932 9.999 12.37 19.782 18.713 31.193 20.225 3.175.42 18.64.346 21.21-.102 14.736-2.57 26.349-14.628 28.88-29.988.37-2.238.547-10.152.235-10.463-.084-.084-1.218.462-2.521 1.212-7.352 4.23-13.998 6.691-20.65 7.646l-2.381.341.022 2.387c.024 2.605-.729 4.706-2.436 6.793l-.764.935 1.372-.162c1.327-.156 1.393-.131 1.977.76l.605.922-1.252.188c-7.15 1.072-14.065-1.089-19.227-6.01-8.016-7.64-12.394-17.394-12.373-27.575.019-9.77 2.432-17.54 9.624-30.989 5.676-10.613 6.619-12.432 7.971-15.383 3.154-6.88 3.197-13.065.14-19.87-.423-.94-.414-1.038.245-2.46l.687-1.482.54.682c1.28 1.616 2.704 5.043 3.118 7.503.38 2.254.186 7.106-.398 9.968l-.577 2.827 1.464 1.582c1.79 1.934 3.513 5.17 4.308 8.094.84 3.086 1.049 9.42.43 12.977-1.416 8.13-8.286 13.257-20.145 15.04l-3.148.473-.61 2.421c-2.42 9.603-.742 19.152 4.766 27.126 1.316 1.904 1.333 1.917 2.827 2.094 3.634.431 12.116-.012 16.423-.859.828-.162 2.676-.357 4.107-.433 5.417-.286 10.712-1.741 16.289-4.477 3.359-1.648 9.38-5.467 10.452-6.629.784-.85 5.402-9.958 6.99-13.787 1.622-3.91 3.108-8.555 3.938-12.305.365-1.648.785-3.072.935-3.165.445-.275.732-5.384.484-8.62-.436-5.687-2.834-14.157-6.24-22.039-3.036-7.026-5.571-14.233-5.152-14.645.05-.05.694-.126 1.432-.171l1.342-.082.624 2.727c.706 3.091 1.198 4.542 3.904 11.513 4.937 12.722 6.963 23.714 5.532 30.03-.203.897-.174 1.018.218.904 3.996-1.162 9.476-.805 13.32.868 7.975 3.473 14.283 12.8 17.684 26.149.832 3.268.848 3.446.681 7.726-1.034 26.464 5.584 40.57 24.726 52.704 9.473 6.004 16.793 8.18 26.422 7.85 8.27-.283 14.606-2.21 27.385-8.331 4.64-2.223 5.98-3.01 8.897-5.237 22.905-17.48 35.726-33.573 43.757-54.924.906-2.409 2.837-8.076 4.29-12.593 3.633-11.284 4.69-14.3 6.238-17.794 5.125-11.57 12.128-18.445 21.033-20.648 2.54-.628 4.68-.489 10.084.656 7.758 1.643 14.128 5.578 16.3 10.07 2.39 4.941 1.025 12.76-3.756 21.51l-1.096 2.007-1.264-1.217c-2.527-2.433-7.152-5.486-7.612-5.026-.074.074.072 1.098.323 2.277.707 3.325.846 9.46.3 13.23-1.356 9.334-5.219 18.122-11.342 25.801-1.912 2.399-1.84 2.468 1.338 1.296 13.351-4.923 25.965-16.99 33.503-32.05 3.852-7.696 5.007-12.116 4.722-18.056-.717-14.93-10.76-29.912-24.584-36.676-5.395-2.64-10.533-3.828-16.554-3.828-21.252 0-38.57 12.667-45.098 32.988a166.647 166.647 0 00-1.82 6.16c-2.588 9.572-5.694 18.775-8.267 24.501-8.183 18.21-22.566 33.163-36.69 38.145-3 1.059-5.469 1.283-9.8.89-11.054-1.004-18.183-5.206-22.021-12.981-2.95-5.978-3.58-10.108-4.14-27.149-.222-6.776-.47-12.75-.551-13.278-1.494-9.702-3.175-15.38-6.686-22.585-8.546-17.536-23.181-29.073-42.382-33.411l-2.884-.652-3.17 1.076c-6.718 2.278-7.641 2.447-17.268 3.16-4.893.362-10.683.902-12.866 1.2-5.666.772-7.737.873-13.112.638l-4.761-.208-.836-1.034-.837-1.035 2.158-2.17c2.139-2.152 2.158-2.184 2.274-3.788.219-3.02-1.154-6.021-5.185-11.333-6.845-9.022-19.074-17.84-29.248-21.094-1.05-.336-1.91-.687-1.914-.782-.005-.095.786-.371 1.754-.614l1.76-.442 2.278.972c13.201 5.632 26.297 16.927 31.197 26.908 1.083 2.207 1.162 2.524 1.175 4.694.017 3.043-.463 4.01-3.063 6.159-3.467 2.866-2.624 2.967 13.896 1.668 23.587-1.856 34.003-3.485 35.45-5.545 1.546-2.203 9.981-9.928 11.902-10.901 2.396-1.215 3.292-1.176 18.752.81 7.825 1.005 14.477 1.767 14.783 1.695.306-.073 1.328-.457 2.27-.854 4.442-1.87 8.37-2.362 18.74-2.349l7.932.01 1.275-1.126c2.661-2.351 5.761-3.637 9.544-3.96 1.479-.126 4.695-.939 10.483-2.648 8.178-2.416 8.415-2.468 11.498-2.53 6.158-.126 8.383-1.412 16.98-9.816 4.653-4.549 14.97-13.58 16.717-14.635 2.316-1.396 8.28-8.34 12.174-14.17 4.656-6.971 7.843-14.51 13.94-32.97l2.939-8.896 2.854-2.954c6.249-6.468 12.109-15.765 16.897-26.804 1.984-4.575 1.712-6.646-.78-5.931-.452.13-1.5.252-2.329.272-1.332.031-1.396.057-.55.22.952.183.948.187-.641.536-2.157.475-3.512 1.055-4.043 1.733-.921 1.177-3.523 1.007-12.836-.839-4.592-.91-9.828-1.915-11.635-2.232-1.806-.318-3.519-.647-3.805-.732-.487-.144-.482-.101.067.67.98 1.377.011 1.307-1.15-.084-.549-.656-.997-1.24-.997-1.3 0-.527 7.735.764 17.93 2.991 9.167 2.003 10.06 2.061 11.918.774.613-.424 1.74-.984 2.505-1.243 1.542-.522 1.395-.642-1.145-.942-.828-.098-3.031-.547-4.896-.998-2.937-.71-6.157-1.695-19.641-6.008-2.045-.655-2.881-1.104-4.59-2.468-1.355-1.082-2.242-1.61-2.523-1.501-.24.092-1.514-.32-2.834-.914-8.284-3.73-19.982-6.315-28.577-6.315-3.164 0-3.088.037-3.356-1.637l-.188-1.175 1.342.189c11.343 1.597 21.073 3.867 26.116 6.094 2.148.948 1.674.605-5.064-3.668-20.955-13.29-32.58-18.795-46.167-21.861-1.673-.378-3.167-.645-3.32-.594-.468.156 7.37 5.161 22.6 14.43 2.777 1.69 2.653 1.561 2.462 2.559-.101.53-.27.72-.547.613-1.242-.476-8.903-2.457-11.712-3.028-9.026-1.835-18.727-2.59-26.665-2.077-2.62.17-4.816.255-4.88.19-.066-.064.079-.418.32-.785.545-.833 2.33-1.023 9.57-1.02 10.81.007 20.305 1.25 28.978 3.797 1.016.298 1.847.503 1.847.454 0-.049-1.262-.802-2.806-1.673-7.577-4.278-25.26-15.122-25.03-15.352.053-.053.815.15 1.692.453 1.874.644 2.175.562.877-.24-2.508-1.55-5.741-2.59-9.523-3.064-1.778-.223-2.486-.46-3.626-1.21-1.414-.932-1.424-.934-7.025-1.39-3.085-.252-6.405-.393-7.377-.315-.972.078-2.082.022-2.466-.124-.384-.146-2.793-.877-5.353-1.623-6.96-2.031-9.48-3.01-16.837-6.536-10.381-4.976-7.992-4.448-19.536-4.321-9.142.1-10.053.153-11.994.703l-2.1.596-2.143-2.165c-2.718-2.746-2.898-2.8-9.944-2.96-3.087-.07-5.755-.244-5.928-.386-.174-.142-.721-.374-1.217-.517-1.201-.344-1.956.165-2.846 1.921-.954 1.884-4.755 4.61-9.44 6.774l-2.06.95-8.349-.172c-6.518-.134-8.493-.095-9.002.178-.457.245-.893 1.006-1.453 2.54-1.114 3.053-3.658 8.189-5.877 11.862l-1.873 3.102-2.6-.18c-2.512-.173-2.784-.132-7.917 1.192l-5.316 1.372-1.047-.534c-1.046-.534-1.046-.534-1.94.052-1.625 1.065-8.618 13.733-13.517 24.483l-1.377 3.023-3.508 1.305c-4 1.488-5.416 1.631-7.406.751-1.698-.75-1.884-.737-4.807.363-3.13 1.179-4.026 1.804-7.032 4.912l-2.425 2.507-.615 2.872c-.905 4.228-1.612 9.654-1.945 14.916-.161 2.56-.428 5.96-.592 7.555-.164 1.596-.213 3.29-.11 3.765.135.61.084.898-.173.981-.2.065-1.086.319-1.968.564-1.33.37-1.656.58-1.904 1.238-.893 2.366-12.767 4.662-18.886 3.65l-1.04-.171 2.135-1.158 2.136-1.158 4.517-.144c6.725-.214 8.527-.573 9.606-1.915.477-.594 1.41-1.306 2.094-1.6 1.162-.498 1.223-.578 1.063-1.38-.094-.467-.17-1.128-.17-1.467 0-.433-.256-.723-.858-.972-2.65-1.098-3.54-3.13-3.732-8.53l-.134-3.752-.836.432c-1.417.733-3.393 3.009-5.025 5.787-.857 1.46-1.84 2.934-2.183 3.273-.625.616-1.597 3.31-1.916 5.307-.19 1.182-.473 1.283-1.461.524-.617-.474-.64-.565-.263-1.02.493-.596 1.351-2.437 1.351-2.9 0-.441-5.247 4.783-8.012 7.976l-2.222 2.566-1.62-.147-1.619-.147-1.502 1.502c-3.071 3.072-6.786 4.718-11.169 4.95-5.137.274-10.043-1.19-19.026-5.677-9.099-4.544-12.177-5.307-21.49-5.325-8.119-.016-12.553.818-18.52 3.484-5.76 2.574-19.147 14.198-23.559 20.456-4.435 6.293-5.555 10.078-6.921 23.407-.678 6.609-1.39 11.465-2.15 14.678-.722 3.04.226 6.658 2.727 10.42 1.791 2.695 9.811 10.99 12.191 12.61 4.803 3.268 11.805 3.425 16.345.366 1.048-.706 1.398-1.187 2.163-2.971 1.766-4.118 1.999-5.597 2.097-13.339.118-9.204.758-12.765 3.126-17.384 3.94-7.684 14.592-10.897 24.807-7.483.91.304 5.412 2.384 10.005 4.622 8.961 4.368 11.314 5.36 15.251 6.44l2.522.69 1.722-1.346c2.14-1.674 4.28-2.884 6.392-3.617 1.877-.652 5.343-1.429 5.531-1.24.378.377-1.405 1.842-3.221 2.647-4.918 2.178-13.405 9.26-18.832 15.713-11.713 13.928-15.274 31.658-10.316 51.373l.436 1.737 6.486 1.095c8.89 1.5 11.427 1.514 14.207.07l1.974-1.024-.453-1.166c-.817-2.106-.66-7.487.303-10.336 3.22-9.532 9.954-16.305 18.353-18.458 1.326-.34 1.349-.365 1.714-1.826 1.416-5.67 7.66-12.652 10.946-12.241.598.075.488.217-1.023 1.314-2.353 1.708-4.408 4.07-5.687 6.534-1.516 2.922-1.887 4.535-2.056 8.935-.364 9.473-2.887 15.397-8.66 20.33-3.686 3.151-12.914 9.69-14.92 10.573-2.512 1.105-5.71 1.122-12.03.064-2.4-.402-5.727-.845-7.392-.984-1.665-.14-3.698-.384-4.519-.544-16.545-3.216-28.896.472-40.003 11.946-11.126 11.493-16.587 28.576-13.127 41.061.29 1.047 2.748 7.58 5.462 14.518 2.714 6.939 5.56 14.447 6.326 16.684 5.369 15.696 5.881 28.4 1.596 39.594-2.231 5.827-8.925 13.216-15.669 17.296-9.208 5.572-20.386 7.01-30.96 3.986-1.694-.484-6.966-2.417-7.254-2.66-.07-.058.484-.616 1.232-1.24 3.479-2.904 5.072-5.117 7.1-9.864 1.463-3.425 1.437-3.274.487-2.91-5.04 1.935-17.03 2.837-23.749 1.789-9.696-1.514-18.656-5.662-25.039-11.592-2.686-2.495-2.686-2.408-.005 3.068 10.43 21.307 33.903 39.25 54.75 41.85 2.207.275 10.857-.073 12.866-.518zm323.805-40.385c-1.645-.278-3.495-1.4-4.784-2.902l-1.208-1.408 1.721-.946c4.306-2.366 9.63-2.605 16.012-.719l1.971.583-.646 1.276c-.516 1.017-.943 1.422-2.108 1.998-3.391 1.676-8.137 2.593-10.958 2.118zm6.754-2.596c1.31-.38 2.772-.895 3.247-1.145l.864-.454-1.147-.338c-3.37-.995-7.982-.987-11.01.02-1.745.579-1.867.786-.879 1.49 1.922 1.369 5.144 1.523 8.924.428zm-25.044-8.258c-2.646-.199-3.67-.94-6.122-4.427-.808-1.15-1.981-2.707-2.607-3.46-1.326-1.596-1.668-2.607-1.471-4.35l.142-1.262h1.657c4.013 0 5.654 1.871 8.699 9.918 1.46 3.86 1.439 3.791 1.14 3.722-.114-.026-.76-.09-1.438-.14zm-1.525-2.891c-1.682-5.366-3.988-8.692-6.028-8.692-1.324 0-1.027.747 1.804 4.539 3.065 4.106 4.719 5.731 4.224 4.153zm44.95 1.325c-1.597-.594-1.663-.76-.9-2.25 1.592-3.11 5.34-5.532 9.852-6.366 1.662-.308 4.017-.134 4.017.296 0 .14-.331.954-.736 1.81-2.058 4.355-8.628 7.85-12.233 6.51zm5.527-2.667c2.318-1.106 5.215-3.871 4.208-4.016-1.068-.154-4.272.981-5.97 2.115-1.65 1.102-2.961 2.55-2.621 2.896.363.37 2.577-.133 4.383-.995zm-67.24-21.2c-2.54-2.848-4.43-7.399-4.4-10.596.017-1.918.571-3.46 1.78-4.956l.838-1.037.86.445c1.89.977 3.668 3.451 4.627 6.44.48 1.494.792 6.983.52 9.154-.185 1.48-.227 1.544-1.2 1.814-1.505.418-1.54.404-3.026-1.263zm2.351-4.407c-.188-4.794-.785-6.777-2.64-8.777-.941-1.015-1.272-.946-1.827.383-1.078 2.58.414 7.762 3.21 11.154 1.326 1.609 1.42 1.4 1.257-2.76zm-7.363-25.092c-2.513-1.54-2.88-1.935-4.88-5.25l-1.75-2.903.018-2.233c.013-1.686.164-2.551.615-3.533.706-1.54.597-1.516 2.231-.468 2.856 1.833 5.1 5.142 5.726 8.446.3 1.584.324 5.193.041 6.352l-.173.71-1.828-1.12zm-.084-6.072c-.489-2.197-1.757-4.364-3.332-5.693-1.164-.982-1.325-.823-1.325 1.3 0 1.58.11 1.885 1.57 4.33.863 1.448 1.972 2.971 2.464 3.386l.893.755.087-1.04c.048-.571-.112-1.939-.357-3.039zm-22.212-18.845c-1.672-.382-6.418-1.932-7.248-2.367-.428-.225-3.532-3.874-3.532-4.153 0-.078.998-.296 2.217-.486 4.296-.668 8.145.116 11.471 2.338 2.017 1.348 5.114 4.363 4.726 4.602-.629.39-6.016.435-7.634.066zm2.908-2.345c-1.304-1.093-3.937-2.347-5.694-2.713-1.767-.367-4.435-.396-4.435-.048 0 1.06 6.877 3.465 10.13 3.542l.957.023-.958-.804zm-32.86-56.945c-3.593-.43-6.13-1.512-8.986-3.83-1.24-1.008-1.908-1.375-2.327-1.28-1.177.267-4.861-4.785-5.784-7.93-.526-1.794-.948-5.85-.793-7.627l.12-1.368-1.08 2.19c-1.231 2.501-1.441 2.098-.713-1.37.955-4.552 3.8-8.32 7.874-10.428l2.126-1.1-1.582-.757-1.583-.756-7.25 1.78a735.544 735.544 0 00-14.306 3.694l-7.054 1.914-7.242-3.606c-3.984-1.984-7.246-3.76-7.25-3.949-.005-.188.232-.58.523-.873.525-.524.502-.549-2.121-2.248-3.295-2.135-5.248-2.956-7.032-2.96-3.213-.005-3.97 1.378-3.97 7.253v4.136l-1.427.994c-.785.547-1.472.951-1.526.897-.212-.212.548-8.877.926-10.553.953-4.226 3.466-6.077 7.134-5.253 1.689.38 17.141 11.106 16.169 11.224-.383.046-1.443-.293-2.355-.753-2.453-1.239-2.397-1.013.106.423 7.516 4.311 7.426 4.294 12.796 2.475 5.996-2.03 10.917-3.43 18.275-5.195l6.16-1.477 17.422 8.711c19.27 9.636 19.779 9.84 24.464 9.867 3.035.018 5.046-.277 8.851-1.298l2.556-.685 2.646.87c3.449 1.133 12.161 4.588 16.33 6.476 4.326 1.958 5.28 2.02 6.601.43 1.576-1.897 5.402-3.882 8.87-4.6l.958-.2-.684.535c-11.369 8.882-11.052 8.805-19.608 4.796-2.54-1.19-7.042-3.127-10.001-4.303l-5.382-2.14-2.284.733c-3.968 1.271-9.362 1.401-14.32.345-1.05-.224-1.993-.355-2.096-.29-.104.063-.276.762-.384 1.553-.849 6.25-4.577 11.777-9.448 14.007-2.464 1.128-8.94 1.93-12.317 1.525zm6.443-1.988c8.307-2.9 13.35-8.259 14.498-15.409l.178-1.11-2.41-.909c-1.326-.5-3.692-1.509-5.257-2.243-1.566-.734-2.939-1.334-3.051-1.334-.113 0-1.05 1.2-2.082 2.669-1.032 1.468-3.057 3.9-4.5 5.407-2.358 2.46-2.626 2.843-2.643 3.786-.046 2.58-3.455 3.68-5.204 1.678-1.566-1.79-.16-4.496 2.348-4.517 1.254-.01 1.319-.056 3.265-2.259a43.645 43.645 0 005.085-7.06l.73-1.255-2.943-1.595a450.968 450.968 0 01-6.966-3.893l-4.024-2.298-1.983.69c-6.635 2.307-9.116 7.59-7.515 15.998 1.9 9.98 13.248 16.874 22.474 13.654zm-79.102-5.332c.09-.414.274-1.101.409-1.526.24-.76.228-.77-.639-.589-.485.102-1.448.542-2.138.979-1.48.935-1.658.959-2.083.277-.291-.466-.172-.573 1.234-1.108 2.667-1.015 3.698-1.836 3.507-2.793-.175-.877.029-.864 1.073.072.545.489.614.478 2.738-.436 4.307-1.854 10.491-3.197 14.395-3.126.96.018 1.498.086 1.197.151s-1.84.367-3.422.669c-4.052.773-8.091 2.187-11.837 4.144-3.317 1.733-3.364 1.782-3.23 3.423.039.493-.092.616-.66.616-.631 0-.691-.083-.544-.753zm160.818-.795c-4.482-.427-13.691-2.663-13.687-3.324 0-.106.278-.538.616-.959l.615-.765 3.011 1.272c3.773 1.594 8.278 2.755 12.411 3.2 3.186.343 3.19.344 1.551.52-1.754.187-2.978.202-4.517.056zm20.52-17.42c-1.249-1.085-2.313-1.85-2.365-1.7-.319.91-.55 1.014-1.351.6-1.448-.749-5.114-3.505-10.781-8.107-10.612-8.617-12.302-9.751-14.132-9.477-2.01.302-5.566 1.654-10.517 4-4.994 2.366-9.752 3.812-12.546 3.812-3.698 0-5.322-1.653-14.289-14.54-8.972-12.894-13.915-17.795-22.02-21.832-9.44-4.702-25.094-4.683-40.106.048l-2.053.647-2.5-1.157c-5.115-2.368-8.953-4.95-10.64-7.16-.527-.69-.958-1.345-.958-1.453 0-.11 1.878.756 4.174 1.923 2.297 1.166 5.5 2.653 7.119 3.304l2.943 1.182 5.543-1.04c14.077-2.645 23.567-2.816 32.36-.585 6.29 1.595 12.75 5.831 18.801 12.328 3.714 3.987 5.908 6.83 13.367 17.325 6.469 9.102 8.02 9.442 20.737 4.545 5.986-2.305 9-3.112 11.628-3.115l1.83-.003 2.275 1.96c8.785 7.566 13.42 11.028 18.107 13.52l2.38 1.268 1.694-.572c.93-.314 1.786-.572 1.9-.572.512 0-.789 1.623-1.465 1.826l-.755.228 1.98 2.132 1.979 2.133.89-.554c.497-.31.89-.785.89-1.075 0-.443.333-.567 2.258-.838 13.631-1.918 29.491-8.225 35.678-14.187 1.295-1.248 1.32-1.302.663-1.382-.856-.105-3.053-.802-4.593-1.458l-1.172-.5.716-1.08.715-1.081 1.592 1.029c1.529.988 4.82 2.246 6.867 2.624l.976.18 1.258-2.553c1.771-3.593 2.788-6.646 4.339-13.03.741-3.053 1.348-5.602 1.348-5.664 0-.062-.36-.151-.8-.199l-.8-.085 4.29-8.128 4.29-8.128 1.929-1.11c2.518-1.45 5.71-2.598 9.119-3.282 2.784-.558 6.337-1.786 7.845-2.712.498-.306 1.504-1.633 2.545-3.356 4.076-6.751 11.608-16.835 15.942-21.344l2.486-2.585-.73 1.41c-.795 1.537-2.845 4.117-6.323 7.962-3.297 3.646-7.397 9.96-10.39 16.003l-1.314 2.653-2.865 1.127c-1.576.62-4.785 1.678-7.132 2.35-2.789.8-5.255 1.719-7.115 2.653l-2.847 1.43-2.985 5.886-2.985 5.886-1.093 5.338c-1.939 9.469-3.348 14.387-5.434 18.962-.73 1.6-.928 1.835-1.456 1.727-.336-.068-1.268-.199-2.071-.29l-1.46-.166-1.92 1.587c-10.52 8.689-19.44 12.495-35.13 14.99-2.258.359-4.553.842-5.1 1.074l-.993.422-2.269-1.973zm20.863-8.923c.507-1.338 13.882-15.175 16.167-16.725l.998-.677.006-8.168c.011-14.815.706-23.434 2.08-25.793.64-1.101 3.057-3.522 7.159-7.17 1.841-1.638 2.242-2.143 2.386-3.011.096-.574.61-4.033 1.144-7.687 1.303-8.923 2.251-12.069 4.64-15.394.486-.677 1.723-2.71 2.748-4.517 2.974-5.242 4.912-7.893 7.617-10.417 1.643-1.533 2.57-2.221 2.751-2.04.18.18-.521 1.055-2.083 2.595-2.39 2.358-4.017 4.47-5.66 7.347-.853 1.49-.88 1.613-.426 1.944.45.329.38.537-.981 2.927a96.553 96.553 0 01-3.023 4.9c-1.874 2.799-2.452 4.303-3.365 8.774-.925 4.524-1.268 7.46-1.268 10.853v2.806l-.89.455c-2.685 1.373-9.144 7.368-9.907 9.196-1.5 3.587-1.898 8.153-1.917 21.926l-.016 11.989-2.053 1.398c-3.533 2.406-5.8 4.42-10.87 9.657-4.422 4.568-5.52 5.582-5.237 4.832zm-34.385-3.072c3.15-3.327 14.755-13.573 20.554-18.145l3.05-2.405.18-1.825c.099-1.004.503-4.474.898-7.71.981-8.042 1.02-15.527.113-21.628-.825-5.544-.85-5.225.779-10.129 2.332-7.027 5.234-13.325 12.283-26.651 2.585-4.889 2.982-5.806 2.762-6.383-.447-1.175-.279-4.76.427-9.135.925-5.726.902-5.64 1.38-5.161.338.337.28.96-.426 4.605-.853 4.405-1.04 7.826-.527 9.67.273.986.202 1.176-1.742 4.654-6.128 10.964-10.436 20.56-12.93 28.802-.738 2.439-.74 2.478-.434 6.337.532 6.708.057 23.29-.951 33.147l-.145 1.422-6.478 5.422a762.433 762.433 0 00-12.448 10.692c-3.806 3.36-6.185 5.27-6.56 5.27-.556 0-.544-.047.215-.85zm-197.249-2.23c.433-1.243 1.42-4.415 2.193-7.05.773-2.635 1.89-5.83 2.48-7.099.683-1.463.98-2.403.815-2.569-.57-.57-7.657-.535-12.205.06-2.41.315-5.12.567-6.023.56l-1.643-.012 1.232-.633c1.475-.758 4.922-1.04 13.808-1.132l5.731-.058.702-.98c.673-.94 2.056-1.794 2.38-1.47.085.084-.204.686-.643 1.337-2.763 4.101-4.347 8.38-7.455 20.14-.286 1.079-.375 1.164-1.233 1.164h-.925l.787-2.259zm160.514-1.16c-.096-.25 1.003-1.969 2.843-4.449 4.364-5.883 9.442-13.21 12.795-18.461l2.933-4.593.51-5.962c.791-9.243 1.178-22.717.846-29.497l-.282-5.742 2.198-5.756c3.788-9.922 9.956-27.529 12.98-37.05.09-.289.226-.28.688.043 1.49 1.044 1.487 1.08-.733 6.369-4.098 9.759-7.594 19.486-11.648 32.41l-1.933 6.16.18 4.513c.1 2.483.031 11.352-.152 19.711-.317 14.547-.355 15.23-.885 15.947-.305.412-.501.796-.437.854.065.058 1.72.85 3.677 1.76 7.882 3.666 14.625 6.043 20.007 7.051 2.305.432 2.402.43 3.105-.09l.726-.537.81.662c.447.364 1.612 1.149 2.59 1.743 2.3 1.397 1.738 1.415-3.834.126-9.343-2.162-21.154-6.032-26.244-8.6-2.139-1.078-1.9-1.231-4.753 3.05-3.642 5.465-15.217 20.744-15.715 20.744-.064 0-.186-.183-.272-.406zm82.026-7.67c0-.075.062-.136.137-.136s.137.061.137.137c0 .075-.062.137-.137.137s-.137-.062-.137-.137zm-6.703-.976c-5.753-.99-8.85-1.873-12.118-3.457-2.679-1.298-2.731-1.349-2.18-2.102.331-.454.391-.448 1.088.1 2.222 1.747 6.85 3.366 14.438 5.049 6.886 1.527 6.334 1.71-1.228.41zm-110.162-26.382c-.643-.344-.635-.36 2.8-5.435 3.81-5.63 5.311-8.377 6.205-11.348l.596-1.982-.98-3.63c-1.2-4.438-1.696-7.02-1.936-10.063l-.184-2.327 3.46-4.927c4.458-6.349 5.15-7.506 6.001-10.044.907-2.699.898-2.79-.322-3.342-.564-.256-1.334-.71-1.71-1.008l-.685-.542 1.555-1.43c1.746-1.604 2.033-2.48 2.716-8.276l.32-2.715-1.2-1.07c-2.991-2.663-7.001-4.815-12.094-6.49-2.731-.9-3.819-1.42-5.58-2.678-1.203-.858-3.225-2.052-4.492-2.652l-2.305-1.09h-3.832c-3.941 0-5.913.33-10.888 1.826-1.538.462-1.927.496-2.283.2-.388-.321-.383-.39.054-.71.266-.194.431-.403.367-.464-.319-.303-4.222-1.82-9.014-3.506-3.917-1.377-4.974-1.835-3.97-1.72 3.292.378 9.876 2.047 14.145 3.587 1.867.674 1.935.678 3.775.26 4.437-1.01 9.28-1.296 11.927-.706.749.167 3.12 1.291 5.268 2.498 2.384 1.34 4.666 2.404 5.857 2.735 4.561 1.264 9.824 3.857 14.231 7.012 1.907 1.365 2.153 1.637 2.035 2.25-.073.385-.472 3.268-.887 6.41l-.753 5.71-1.381.605-1.381.606 1.174.665 1.174.664-.17 1.369c-.511 4.135-1.667 6.763-5.056 11.498-2.214 3.094-2.726 4.234-3.007 6.701-.297 2.598.005 5.9.985 10.86 1.083 5.469.4 7.603-5 15.624-1.847 2.744-3.608 5.477-3.912 6.073-.687 1.347-.822 1.43-1.623 1.002zM264.75 228.56c.443-.466 1.297-1.095 1.9-1.4 1.241-.626 4.619-3.097 9.927-7.262 6.69-5.249 11.884-8.334 16.436-9.763 2.792-.876 3.437-.903 1.423-.06-5.883 2.465-11.306 6.05-20.12 13.302-5.653 4.65-7.862 6.03-9.656 6.03h-.713l.804-.847zm-31.36-6.435c0-.136.291-.61.646-1.054.578-.721.79-.8 1.992-.736 1.8.096 6.14-.623 8.732-1.446l2.1-.667-.593.632c-.743.79-3.731 2.179-5.898 2.741-1.947.505-6.982.887-6.98.53zm62.69-12.84c0-.075.062-.137.137-.137s.137.062.137.137c0 .075-.062.137-.137.137s-.137-.062-.137-.137zm6.21-.9c-.698-.089-.446-.328 2.644-2.512 1.878-1.328 7.966-5.865 13.53-10.082 11.097-8.412 15.887-11.78 21.28-14.966 7.509-4.433 17.735-9.1 27.573-12.584l3.482-1.233-.164.88c-.09.485-.24.955-.334 1.045-.187.182-8.087 3.749-15.089 6.812-14.852 6.499-19.406 9.274-39.876 24.308-3.752 2.755-11.366 8.027-12.002 8.309-.15.067-.62.077-1.044.023zm-7.304-12.126c.005-5.359 1.485-11.954 5.363-23.857.995-3.052 1.9-5.647 2.01-5.765.11-.118 2.777-.88 5.926-1.694 6.194-1.6 10.823-3.116 14.097-4.613l2.075-.95 1.166-4.613c1.292-5.108 3.278-11.376 4.932-15.564l1.081-2.736 2.549-.769c4.448-1.341 17.013-3.807 19.017-3.731.277.01-2.522 1.045-6.221 2.299-10.869 3.684-12.395 4.669-14.74 9.512-1.647 3.402-2.027 4.819-3.144 11.713l-.865 5.338-2.32.993c-4.787 2.049-13.808 5.213-19.456 6.824l-2.08.594-1.41 3.323c-2.858 6.737-5.507 15.21-7.03 22.486-.41 1.957-.791 3.61-.848 3.673-.056.063-.102-1.046-.102-2.464zm98.97-37.551c-.47-1.393-.569-1.34 4.786-2.577 15.027-3.474 27.398-5.13 34.426-4.609 1.392.103 2.532.125 2.532.05 0-.436-12.946-8.235-26.555-16l-9.17-5.232-3.667-.29c-2.017-.161-5.874-.292-8.571-.292h-4.904l-3.475-1.405c-6.305-2.548-12.372-5.619-12.372-6.262 0-.795 1.324-.46 4.716 1.191 3.61 1.758 6.108 2.833 9.52 4.097 1.582.587 2.416.681 7.528.854 3.162.107 6.91.31 8.33.452l2.581.258 11.107 6.534c11.746 6.91 16.864 9.838 23.23 13.295 3.39 1.84 3.982 2.264 4.449 3.178.296.58.538 1.108.538 1.172 0 .064-3.435.05-7.634-.029-12.801-.243-23.39 1.298-34.237 4.985-3.308 1.125-3.012 1.066-3.158.63zm-81.592 263.88c1.846-1.725 2.515-3.195 2.498-5.482-.008-1-.05-1.852-.093-1.895-.043-.043-.68.034-1.416.171-2.54.475-9.562 1.074-12.584 1.074h-3.032l1.496 1.524c2.513 2.559 5.844 4.496 9.356 5.442 2.14.576 2.31.538 3.776-.833zm39.526-15.867c12.76-1.969 21.127-7.171 26.935-16.746.712-1.174 1.526-2.649 1.808-3.277l.513-1.143-.891-1.454c-4.875-7.96-12.1-11.717-19.864-10.336-2.566.456-2.484.391-2.849 2.25-1.24 6.322-4.938 15.355-10.387 25.37-1.362 2.505-1.401 2.638-1.227 4.175l.18 1.588h1.506c.828 0 2.752-.192 4.276-.427zm-128.878-4.853a94.215 94.215 0 014.309-4.205l2.15-1.936-2.412-1.316c-6.964-3.796-12.962-9.856-16.148-16.313-.718-1.456-1.253-2.21-1.62-2.283-.3-.06-1.953-.375-3.671-.7s-5.168-1.197-7.666-1.94c-2.498-.741-6.13-1.658-8.073-2.037-4.006-.782-10.293-1.224-10.293-.724 0 .501 2.673 6.586 3.864 8.794 7.981 14.808 21.224 23.728 36.959 24.895.243.018 1.414-.988 2.6-2.235zm12.163-9.982c1.64-1.016 3.88-2.337 4.975-2.934l1.993-1.085-3.072-.33c-10.327-1.109-19.672-4.293-23.877-8.136l-.94-.86.495.82c1.97 3.263 6.199 7.746 9.53 10.102 2.12 1.5 7.01 4.263 7.55 4.268.2.005 1.706-.829 3.346-1.845zm13.245-9.17c.262-3.538.888-7.754 1.676-11.291.369-1.656.67-3.098.67-3.206 0-.108-2.088.831-4.64 2.087-8.835 4.344-16.914 6.181-27.19 6.181-3.157 0-3.173.083-.38 1.98 5.65 3.838 16.76 6.638 26.768 6.748l2.907.032.188-2.532zm44.316-4.057c7.815-1.161 13.693-4.261 16.165-8.526 1.377-2.376 1.682-4.052 1.68-9.25-.006-5.182-.42-7.466-1.892-10.35-.77-1.507-2.264-3.615-2.556-3.605-.112.006-.564.815-1.005 1.801-.737 1.65-2.262 4.558-7.896 15.058-3.198 5.961-7.21 15.164-6.61 15.164.08 0 1.032-.132 2.114-.292zm-200.2-46.794c6.068-.87 11.848-2.407 17.017-4.524 3.48-1.425 7.347-3.337 7.347-3.634 0-.116-1.195-.885-2.656-1.708-5.365-3.022-11.39-7.632-14.627-11.193-1.554-1.71-3.835-5.239-5.198-8.044-.722-1.488-.544-1.434-2.502-.76-5.007 1.722-13.83 2.118-19.64.88-19.52-4.16-37.733-19.835-43.64-37.558-1.831-5.496-2.179-7.852-2.198-14.903-.022-8.229.817-12.743 3.816-20.534 3.433-8.92 8.285-16.392 15.466-23.815 16.67-17.234 23.03-33.984 19.01-50.07-3.112-12.454-15.442-23.795-29.188-26.847-3.167-.703-3.32-.492-.867 1.2 2.642 1.824 7.819 6.957 9.321 9.244 3.899 5.934 4.788 13.996 2.645 23.973-.228 1.063-.039.997 3.845-1.333 1.912-1.147 3.56-2 3.664-1.897.104.104.183 2.798.177 5.987-.011 5.398-.062 5.984-.74 8.491-1.366 5.054-4.07 9.857-8.579 15.238-2.632 3.143-8.929 10.635-13.945 16.596C14.41 226.44 8.812 238.078 7.375 255.897 5.302 281.6 25.418 311.13 54.27 324.737c7.702 3.632 17.73 6.917 22.66 7.42 2.694.276 12.988.082 15.605-.293zm123.74-4.726c8.705-6.284 11.36-10.415 12.33-19.188.165-1.483.233-2.763.152-2.844-.263-.263-4.361 1.31-6.049 2.323-3.95 2.37-6.557 5.364-9.155 10.51-1.98 3.925-2.612 6.468-2.41 9.695.179 2.877.295 3.064 1.392 2.234.476-.36 2.159-1.589 3.74-2.73zm-65.691-1.145c8.892-1.448 14.762-4.244 20.13-9.59 3.98-3.964 5.876-7.118 7.701-12.809.543-1.692 1.38-3.692 1.86-4.445.865-1.354 3.182-3.695 3.658-3.695.136 0 .53-.77.876-1.711 2.726-7.41 7.386-14.424 13.895-20.91l3.644-3.63-1.18-.318c-2.956-.795-6.97-2.517-14.32-6.144-8.384-4.136-10.86-5.158-13.948-5.752l-1.903-.367-2.038 1.41c-7.08 4.893-11.254 12.66-11.27 20.963-.006 2.92-1.583 7.924-3.665 11.628-3.912 6.958-9.71 10.664-16.727 10.69-6.358.024-9.283-1.506-16.122-8.434-6.28-6.361-9.063-10.416-10.022-14.604-.204-.893-.474-1.437-.712-1.437-.487 0-.482-.39.023-2.092.955-3.215 2.605-13.331 2.605-15.97 0-.911.419-.912-5.281.01-9.167 1.484-14.568 5.42-16.889 12.305-.781 2.32-1.06 8.042-.557 11.455.986 6.691 4.415 15.673 8.818 23.098 3.632 6.124 15.378 14.521 25.68 18.359 6.175 2.3 18.152 3.226 25.744 1.99zm1.085-36.699c0-.075-.062-.137-.137-.137s-.137.062-.137.137c0 .075.062.137.137.137s.137-.062.137-.137zm1.326-2.798a26.448 26.448 0 002.066-8.973c.37-7.105 3.262-13.439 8.474-18.563 2.339-2.298 2.325-2.327-.642-1.355-4.99 1.633-7.644 4.346-9.282 9.491-1.222 3.836-1.479 6.019-1.534 13.028-.027 3.538-.143 6.987-.257 7.665-.278 1.647.12 1.21 1.175-1.293zm35.957-74.389c-15.43-15.81-18.802-26.658-14.55-46.799 1.184-5.609 2.404-9.862 5.745-20.02 5.937-18.054 7.465-26.86 6.835-39.387-1.117-22.176-11.325-40.305-27.218-48.339-4.912-2.482-10.251-4.145-16.308-5.078-3.883-.598-13.227-.841-16.187-.422-9.346 1.325-18.185 5.923-25.562 13.299-3.9 3.9-6.389 7.298-8.62 11.772-1.523 3.055-3.406 8.132-3.222 8.685.045.133.865-.388 1.824-1.158 5.171-4.15 12.027-7.172 19.326-8.52 5.89-1.087 13.758-.737 18.362.817.817.276 1.486.439 1.486.363s-.579-1.136-1.286-2.353c-.912-1.57-2.178-3.11-4.35-5.297-2.646-2.66-2.985-3.1-2.479-3.213 3.639-.817 12.036-1.335 15.85-.978 17.293 1.617 28.055 11.335 34.318 30.993l.928 2.914-.287 4.204c-.911 13.351-4.006 22.656-13.638 40.998-4.938 9.403-5.306 10.167-6.88 14.282-3.772 9.866-6.217 19.674-7.141 28.654-.635 6.167-.107 16.072 1.17 21.925.363 1.67.047 1.628 3.852.5 4.675-1.388 6.96-1.666 13.752-1.674 9.813-.012 13.786.955 22.956 5.59 2.989 1.512 5.5 2.748 5.578 2.748.079 0-1.836-2.028-4.254-4.506zm37.179-5.592c1.329-1.338 3.269-3.113 4.31-3.945 1.527-1.217 2.184-2.006 3.379-4.05 1.892-3.24 4.473-5.904 6.611-6.826.863-.373 1.572-.78 1.574-.905.006-.124.33-1.048.729-2.053 1.252-3.159 2.937-5.422 6.868-9.222l3.686-3.564-1.875-1.911c-4.778-4.872-6.069-12.117-3.37-18.913 3.901-9.82 10.93-13.997 25.997-15.45 14.296-1.38 22.979-3.103 34.748-6.896l5.319-1.714 1.148-2.465c.632-1.356 1.37-3.143 1.64-3.971.285-.874.865-1.873 1.381-2.38 1.55-1.52 2.662-1.635 12.706-1.304l6.16.203 2.327-1.59c11.082-7.576 16.351-15.872 19.705-31.025 2.278-10.29.829-21.077-4.224-31.451-10.039-20.61-26.034-30.256-46.848-28.255-6.993.672-11.456 2.72-16.208 7.438-5.719 5.68-9.909 15.862-9.914 24.093v1.842l2.066-2.209c7.841-8.385 15.157-11.843 25.105-11.867 2.221-.006 4.038-.046 4.038-.09s-1.293-1.753-2.874-3.798c-1.581-2.045-2.875-3.815-2.875-3.933 0-.478 2.892-2.77 4.472-3.545 6.254-3.064 14.68-.65 21.405 6.13 2.929 2.952 4.457 5.34 6.566 10.254 6.614 15.412 6.075 28.087-1.698 39.853-4.276 6.474-10.346 10.835-19.077 13.706-7.894 2.596-14.608 3.515-33.02 4.52-23.512 1.283-37.942 5.127-52.443 13.97-7.201 4.392-12.389 9.495-16.643 16.373-13.26 21.436-13.17 49.291.203 62.615 1.976 1.97 5.66 4.767 6.279 4.767.127 0 1.319-1.095 2.648-2.433zm-9.109-6.17c-1.696-.697-2.025-.907-3.445-2.196-2.058-1.871-3.05-4.362-3.05-7.665 0-2.254.28-2.86 2.329-5.03.045-.048.645 1.1 1.332 2.55 1.605 3.388 2.865 5.45 4.878 7.983l1.619 2.037-.684 1.493c-.777 1.698-.83 1.712-2.979.829zm1.118-2.333c-1.963-2.638-3.565-5.042-4.53-6.799l-1.16-2.113-.005 1.701c-.005 2.309.786 4.324 2.253 5.739 1.797 1.734 4.495 2.888 3.44 1.471zm8.676-13.164c-4.694-1.992-6.701-5.27-6.7-10.942 0-3.83-.092-3.682 2.768-4.389 1.348-.333 2.518-.538 2.6-.455.083.082.449 1.355.814 2.827.79 3.194 2.172 6.103 3.96 8.34l1.31 1.637-1.1 1.906c-.604 1.049-1.242 1.903-1.417 1.898-.175-.005-1.181-.375-2.235-.822zm1.81-3.517c-1.768-2.22-3.775-6.542-4.25-9.15-.167-.907-.267-1.018-.792-.867-.33.095-.816.232-1.08.306-.41.114-.479.483-.479 2.569 0 4.255 1.437 6.827 4.734 8.474l1.677.838.38-.726c.343-.653.324-.798-.19-1.444zm-4.244-23.82c-1.834-1.914-2.943-7.725-1.963-10.29.6-1.57 2.368-3.39 4.123-4.245 1.163-.567 1.746-.663 3.874-.643 1.377.014 2.64.108 2.804.21.191.118-.18.897-1.026 2.155-1.87 2.778-3.324 5.521-5.109 9.635-.849 1.957-1.633 3.652-1.743 3.766-.11.114-.542-.15-.96-.587zm2.74-7.755c.943-1.914 2.027-3.94 2.408-4.501.86-1.265.796-1.33-.915-.92-1.8.432-3.418 1.629-4.154 3.07-.655 1.286-.63 4.336.054 6.23l.34.947.277-.672c.152-.37 1.048-2.239 1.99-4.153zm13.671-14.933c-1.59-6.492 3.23-12.167 10.387-12.23 2.339-.02 3.543.582 4.455 2.23l.622 1.123-1.99.752c-5.608 2.117-8.121 3.987-12.145 9.038l-.845 1.06-.484-1.973zm3.22-4.162c1.771-1.806 4.51-3.638 7.152-4.786l2.176-.944-.807-.312c-1.728-.669-6.42.742-7.95 2.39-.91.98-1.67 2.466-1.991 3.893-.32 1.422-.188 1.4 1.42-.24zm2.927 71.372c.008-3.135.937-11.934 1.786-16.904l.164-.959-.994 1.093c-.547.601-1.448 2.01-2.003 3.133l-1.01 2.04-.093 4.242c-.098 4.404.21 6.994.969 8.152.728 1.111 1.178.808 1.181-.797zm12.042-30.543c4.55-2.036 6.52-2.363 8.345-1.386 1.427.765 3.082.585 6.154-.67 1.664-.678 2.393-1.127 2.588-1.59.949-2.263 5.67-12 7.18-14.806 4.176-7.765 6.244-10.975 7.72-11.982.76-.52 1.35-.977 1.31-1.017-.04-.04-.988.102-2.107.316-3.254.622-9.801 1.472-15.859 2.058-14.263 1.38-20.319 4.96-23.847 14.097-2.16 5.589-.912 11.944 3.103 15.812l1.63 1.57 1.002-.803c.551-.441 1.803-1.161 2.782-1.599zm263.631-2.924a.137.137 0 10-.274 0 .137.137 0 00.274 0zm-.547-.273c0-.076-.062-.137-.137-.137s-.137.061-.137.137a.137.137 0 10.274 0zm-.548-.274a.137.137 0 10-.274 0 .137.137 0 00.274 0zm-.942-.556c-.292-.222-.662-.398-.821-.393-.16.006.018.186.394.401.887.507 1.103.503.427-.008zm-1.248-.54a.137.137 0 100 0zm-218.97-27.273c3.414-.917 4.717-1.14 6.911-1.184l2.705-.054 1.05-1.746c.577-.96 1-1.795.94-1.856s-1.257.266-2.66.726a137.622 137.622 0 01-11.446 3.19c-4.26.98-4.082.893-3.135 1.517 1.042.688.752.718 5.635-.593z"/><path d="M1047.9 199.26l-62.553-59.818c3.04-41.43 8.28-85.941 30.101-153.66l77.358-23.244 28.827-80.645 70.137-24.371c17.327-20.788 34.654-32.681 51.98-40.171l19.728-4.505c-8.12-26.286-49.056-19.756-75.768-27.45l-47.17 35.406-65.989-5.564-34.618 70.738-56.944 6.177C941.371-92.454 942.04-40.06 921.565-6.167c-4 75.303-28.779 147.64-50.886 220.35 50.833 21.95 101.67 44.581 152.5 95.518 32.878 22.261 69.396 39.063 113.02 45.2 103.02 7.237 138.36 42.254 206.34 57.175 34.788 30.243 85.393 13.036 129.85 14.26 44.86 32.255 75.824 29.773 110.67 36.997l85.298-11.732c37.136-24.289 69.13-50.712 95.504-88.453 36.436-19.999 53.763-57.856 76.55-107.1 10.819-23.383 27.564-37.965 40.455-81.297l-76.595 29.78-28.945 46.238-25.161 92.73-15.284 1.726c-46.515 43.315-99.711 49.883-151.28 65.4l-87.746-60.399c-20.767-32.583-83.441.973-127.85 5.71-48.292-93.651-108.78-181.48-269.36-125.42z" transform="matrix(.27376 0 0 .27376 25.66 171.278)" opacity=".302" color="#000" fill-opacity=".961" filter="url(#l)" fill="#b32727"/><path d="M304.19 216.216c28.316 6.17 49.214 1.953 66.496-7.32l8.443-13.089c4.414-5.48 8.179-11.032 9.304-16.877l-2.033-2.476 2.613-2.05.984-10.455c-5.345-4.014-10.815-7.529-16.89-8.624l-9.13-6.188-15.884 1.477-16.569-5.525c1.327-8.122 11.93-9.371 19.762-12.674-5.732 3.751-10.962 7.503-12.693 11.255l13.163 4.918c5.395-.723 10.815-1.539 15.493.247l13.798 4.396c9.106 1.404 16.33 3.227 20.748 5.674.87 5.457 2.58 10.577 1.013 17.01l-1.51 1.988 1.245 2.88c-.497 5.392-6.237 11.946-8.814 19.939.614 8.079-.515 14.213-1.881 18.827l-9.428 13.186c7.262 8.908 13.528 18.81 19.32 29.187l5.935 2.636 18.772-25.128.413-40.965 15.323-42.132-3.632-3.903-38.29-22.938-17.904-.505-16.077-7.636 1.905-.507c4.13 2.154 9.03 4.308 14.635 6.462 8.144.22 13.526.073 18.978-.065 19.267 9.497 38.536 18.178 57.804 31.177-.71 15.383-8.435 29.49-17.146 43.42-1.442 13.731-3.01 27.442-7.517 40.663-3.76 6.36-11.93 13.211-20.288 20.083 6.598-.992 12.888-3.203 17.903-2.413 4.262.67 7.601 3.941 9.426 7.353l25.822-17.572.532-39.727c2.52-10.019 8.348-21.692 15.003-33.779l2.238-20.46-24.237-16.085c15.33 6.313 29.762 10.385 47.858 23.615-1.373 6.143-2.707 12.294-.478 19.158-4.92 10.892-12.254 23.231-24.529 38.535-7.007 10.207-8.676 22.016-8.345 34.425-12.264 4.996-21.103 10.372-26.73 16.105l12.011 8.671 15.43-5.13c4.093-6.082 10.704-12.162 17.895-18.243 1.018-11.64-.96-22.422 3.333-34.997l9.746-9.264 3.198-20.235c4.623-8.258 9.035-17.466 14.651-21.255l20.602 11.182-19.88 16.64-7.044 16.385-17.466 11.747-5.461 30.855c-6.777 4.829-13.607 9.658-16.318 14.487l23.451-9.178 5.917-21.167 8.236-15.613 18.282-8.83 23.736-27.022-21.86 29.063-17.743 7.376-7.746 14.121-7.694 24.373-3.978-.981c-10.328 9.702-25.39 13.995-40.787 17.903l-29.194-19.96-8.728 1.035c-4.166 2.048-12.316 4.909-22.578 3.125-14.658-29.205-38.072-42.775-73.367-35.127-9.883-2.47-16.061-8.643-21.57-15.486zM278.316 257.099c-4.254.033-5.174 2.888-6.673 5.252 1.78 12.685 2.253 22.767 1.95 31.286 7.808-10.653 12.39-16.25 31.671-6.527l15.681 4.8 25.606 22.567c9.64 3.576 19.224 6.244 28.35.59l14.86-7.195 23.441 1.669c6.015-2.095 9.562-4.808 12.662-7.632l7.297-1.197c7.435 2.243 14.003-.703 20.738-2.661-12.937-1.186-24.76-3.92-34.023-10.249-9.235 6.615-20.168-2.013-30.91-8.957-6.576.91-13.37 6.337-21.164 3.44-11.882-4.418-25.31-18.863-37.702-24.87-4.396 10.841-14.144 15.569-25.801 18.111-5.073-3.345-9.842-7.743-13.876-14.723-5.802-2.729-9.553-3.724-12.106-3.704zm52.767 30.48c18.218 11.987 32.17 13.097 37.454 6.94-2.194 3.776-2.486 8.188-9.779 10.265-5.58 1.45-11.14 2.991-17.991-.385-7.165-5.314-9.537-10.985-9.685-16.819zM226.784 209.992c1.625 1.414 3.806 1.716 6.164 1.665 1.545-2.101 1.97-3.642 6.972-7.472 1.521 1.976 3.675 3.194 7.035 2.963l.708 3.812c-11.637 5.154-19.778 4.48-28.207 4.286zM235.319 249.679c6.222-1.236 12.444-2.164 18.666-1.936-4.572 13.035-7.17 25.812-3.318 37.747l-21.294 17.422c-10.092 4.042-25.317 18.458-17.828 29.18-4.537 2.319-9.075 3.805-13.613 1.74.226-22.017 8.886-41.535 29.011-57.657l22.114-24.158c-2.35-1.467-9.077-1.586-13.738-2.34z" opacity=".302" color="#000" fill="#080740"/><path d="M290.927 284.245c13.1 7.676 27.582 12.748 34.367 32.354l-4.663 7.68 7.493.428c14.053-1.019 26.42-.481 44.935-5.618-9.817 5.951-14.53 17.645-18.528 30.143l-3.732-10.06c-15.6-15.305-28.853-3.711-45.216-6.81 17.087-6.058-.565-35.862-14.656-48.117zM84.638 302.265l10.248-1.66c-3.174-8.797-5.592-17.702-5.145-27.017 7.88 23.594 23.123 45.064 47.463 43.02 18.256 2.085 30.08-16.06 40.63-38.22-5.702-10.399-12.324-11.583-19.498-7.254 2.258-4.93 4.465-9.852 11.037-15.502-9.573-.01-15.702 6.485-18.639 19.01-.455 10.376-2.578 19.43-5.239 22.456l-9.445 2.227c5.06-12.717 3.886-29.332 5.218-44.38 1.997-14.82 29.19-19.734 42.83-5.966 5.779 6.113 19.08 9.969 32.02 13.934l-11.614 5.43-25.926 34.75c-7.814 27.307-31.957 27.673-60.462 20.838-21.336 12.563-42.671 12.07-64.007 3.273-30.85-16.569-47.663-39.986-48.283-71.301 16.771 51.688 54.766 65.528 74.405 63.512.68-5.401 1.202-10.74 4.41-17.151z" opacity=".302" color="#000" fill="#080740"/><path d="M49.523 451.651c25.223 50.438 75.884 50.317 95.458 27.69 10.91-20.14 18.144-40.688 10.445-62.893-5.058-16.217-9.147-32.469 3.835-45.68 23.146-17.925 49.796-8.15 76.66-11.197 17.538-9.028 31.446-23.197 36.52-49.882 13.351 21.382 3.407 41.402-19.555 55.533-25.502 12.819-45.428 7.795-65.898 4.516-23.183-1.91-34.316 6.445-29.354 28.511 8.27 18.884 12.63 38.048 6.37 57.968-8.452 26.298-26.543 38.828-49.561 44.319-31.112-3.729-60.702-22.137-64.92-48.886z" opacity=".3" color="#000" fill="#080740"/><path d="M177.645 369.353c9.233-.045 20.41 2.132 33.293 6.258 4.198 7.109 12.24 13.737 20.532 20.335l-11.001 9.777-11.478-3.33c3.18-4.694 6.613-8.634 10.83-10.218l-10.688-8.68c-11.4-4.837-18.953-4.541-25.71-3.186zM216.348 376.529l36.37-9.778-2.737 20.337c-2.108-2.738-4.299-5.475-4.888-8.213-10.557 3.117-19.73.698-28.745-2.347z" opacity=".3" color="#000" fill="#080740"/><path d="M276.359 427.408c11.956 6.279 24.828 9.81 39.9 6.74l11.553-4.55-12.05-9.076 1.413-6.494-21.718-.185 3.996 7.17c-14.612-8.119-22.464-25.587-20.423-38.922 2.205-14.408 20.975-24.464 25.386-57.31.928 12.71 6.168 15.689-7.304 37.6-3.086 5.02-5.502 9.38-6.972 17.25l13.866-2.227c-5.58 12.023.015 20.204 11.075 26.507 14.836-3.443 24.86-12.955 30.388-26.252 5.041-12.126 6.342-27.829 4.141-36.433 17.743 17.302 41.692 27.834 49.09 56.418 5.614 20.403 6.673 43.69 42.315 45.075 39.673.41 73.058-31.003 87.61-63.832-10.143 25.662-17.28 52.226-47.445 71.883-25.001 19.453-48.92 21.034-70.959 7.35-16.754-8.928-21.455-31.073-22.139-57.625l-5.886-14.352-2.653 4.653c-2.172-5.712-5.502-10.476-13.362-11.534.87 9.764-1.351 18.926-7.816 27.265l-13.564 2.497c-2.326 14.706-7.454 28.645-28.158 38.326-27.36 3.994-44.472-8.236-59.446-23.856l-15.112 17.747c-10.093-15.396-9.706-33.903-2.264-48.088l9.111-5.923 1.759-10.042c.114 12.633 1.138 37.765 25.67 50.217zM573.588 390.825l6.097-1.808c7.01-3.901 12.022-13.385 15.67-26.676-1.005 9.664-1.976 19.314-11.615 32.575-9.732 16.179-20.887 22.876-32.827 24.335 9.087-6.57 20.492-8.737 22.675-28.426zM216.239 460.675c18.325 22.6 41.344 38.627 78.004 35.56 18.39-2.39 43.756-13.425 72.986-14.543 20.705.653 40.153 14.566 30.42 36.226l-3.923-20.469c-7.402-5.496-15.428-10.795-36.564-11.954-26.934 6.75-55.69 22.61-80.64 19.426-37.172-3.671-49.962-23.159-60.283-44.246zM363.169 556.834c15.005-.967 29.829-4.736 43.801-21.705-15.7 30.228-39.632 35.806-64.92 40.868zM208.52 157.227c9.26-4.316 18.52-3.194 27.78-2.519 3.097-10.009 11.293-17.59 29.834-20.244 15.885.537 34.402-1.56 52.381-3.118-24.21 7.099-63.115 7.98-70.29 22.286-.589 8.959.887 16.771 6.913 22.055l-12.49 15.577-20.163 19.267c-11.227-9.122-22.271-29.423-13.965-53.304z" opacity=".3" color="#000" fill="#080740"/><path d="M312.127 25.73a53.735 53.735 0 00-7.015.547c-10.764 1.553-19.752 10.072-23.783 21.96 12.552-10.395 23.328-7.155 33.93-1.967-.05-.063-.089-.117-.138-.18l-4.235-5.45.856-.744c3.187-2.772 9.683-2.25 15.074 1.215 2.5 1.608 4.519 3.428 6.228 5.62 8.308-3.75 14.33-.914 20.267 1.891-4.81-7.407-11.139-13.707-18.29-17.631-6.17-3.385-13.912-5.21-21.893-5.261a47.256 47.256 0 00-1 0zM133.12 49.032c-3.645.022-7.22.249-8.966.642-17.587 3.957-32.417 17.811-36.914 34.494-.631 2.34-2.065 10.254-1.89 10.428.057.058 1.327-1.262 2.822-2.934 7.251-8.108 15.667-12.265 27.154-13.406 6.562-.651 12.469.487 18.743 3.619 1.164.58 2.18 1.06 2.25 1.06.361 0-4.117-9.06-5.398-10.924a26.09 26.09 0 00-1.908-2.396l-1.043-1.137 1.172-.206c2.198-.388 9.773-.222 12.67.283 9.686 1.686 16.974 6.63 22.362 15.262 2.665-6.715 7.079-11.2 17.23-8.299-8.36-15.455-21.544-23.963-40.474-26.152-2.1-.243-4.975-.351-7.81-.334zM27.28 125.651c-1.355.049-1.373.39-1.549 1.522l-.162 1.07 2.044 1.035c7.787 3.959 14.374 10.644 16.203 16.434 1.603 5.074 1.475 10.678-.445 19.172-.437 1.935-.795 3.624-.795 3.747 0 .287 4.19-1.4 6.69-2.695a148.268 148.268 0 012.138-1.095c.357-.163.222 4.71-.196 7.1-1.088 6.212-3.484 10.507-10.352 18.582a1177.231 1177.231 0 00-5.57 6.604c-1.335 1.6-4.278 5.11-6.544 7.802-17.09 20.306-22.98 32.745-24.27 51.313-1.194 17.178 6.951 36.342 22.08 51.963 11.85 12.237 26.952 20.871 44.631 25.52 3.897 1.024 4.38 1.09 9.445 1.249 5.567.174 10.683-.154 15.613-1.027-19.108-7.468-37.912-13.792-37.993-39.19-12.06-6.407-22.588-17.304-27.017-30.028-1.802-5.178-2.171-7.599-2.19-14.39-.015-5.29.068-6.423.642-9.308 2.41-12.128 8.855-23.968 18.333-33.672.32-.328.629-.656.941-.984 4.285-14.076 10.918-27.726 19.53-40.73a40.566 40.566 0 00-1.727-12.08c-4.48-14.883-20.756-27.242-36.667-27.847-1.31-.05-2.199-.09-2.814-.068zm461.83 20.566c17.998 18.642 8.697 35.713 2.235 57.081-7.267 24.033.186 53.466-44.937 70.611-10.214 16.803-32.492 9.949-46.789 6.04-10.814-2.957-19.46 6.51-38.327 6.139-7.277 6.16 49.683 19.22 41.525 24.763l.573.077 14.373 1.882 1.24-.616c4.538-2.246 7.069-2.628 18.59-2.78l9.984-.128 1.643-1.489c2.53-2.29 5.993-3.647 9.35-3.662.61-.002 4.86-1.12 9.445-2.49 8.044-2.4 8.438-2.487 11.344-2.557 6.726-.162 10.158-2.082 18.487-10.326 4.675-4.627 15.107-13.786 16.554-14.535 1.069-.553 5.715-5.374 8.427-8.743 7.639-9.489 11.6-17.863 18.77-39.704l2.746-8.35 2.002-2.036c5.352-5.426 10.196-12.493 14.612-21.31 4.07-8.129 4.636-9.629 4.637-12.32 0-3.25-1.134-4.607-3.688-4.422-7.01.507-9.996-.1-26.22-5.33-6.52-2.101-7.389-2.453-8.684-3.508-2.795-2.276-6.66-4.534-7.768-4.534-.204 0-3.553-2.02-7.434-4.491-8.833-5.626-16.142-9.927-22.688-13.26zM386.7 321.065c-3.892 12.5-12.057 26.216-33.037 24.296-2.2 29.373-37.813 38.264-41.432 10.953.417 1.753-1.783 1.447-1.781 4.489 0 5.198-.3 6.872-1.677 9.248-2.473 4.265-8.354 7.369-16.169 8.53-1.083.16-2.033.29-2.113.29-.6 0 3.406-9.207 6.604-15.168 1.656-3.086 2.88-5.37 3.91-7.306-14.43 17.625-35.502 24.446-46.58 8.607-11.606 1.295-23.307 1.795-35.018 1.967-31.436.464-58.217 5.802-84.418-13.644-4.267 6.823-7.101 14.707-7.862 22.96-.688 7.472-.127 9.806 6.34 26.36 8.262 21.148 9.966 26.917 10.66 36.075.639 8.447-1.22 17.4-4.672 22.543-5.82 8.671-13.793 14.212-23.654 16.442-3.548.803-10.255.886-13.8.172-2.175-.44-5.917-1.457-6.382-1.737-.115-.07.336-.769 1.01-1.557a27.34 27.34 0 002.181-3.02c1.122-1.863 5.785-12.695 5.561-12.918-.084-.084-1.55.285-3.268.821-14.54 4.54-27.04 4.018-39.002-1.617-6.32-2.977-13.486-9.17-16.186-13.996-.235-.419-.343-.413-1.515.034-1.145.438-1.247.549-1.103 1.198 5.078 22.88 29.646 47.708 53.537 54.102 5.39 1.442 6.87 1.625 13.09 1.625 7.807-.005 8.274-.103 19.881-4.294 7.12-2.571 12.532-5.577 17.085-9.488 10.378-8.912 16.716-21.48 20.934-41.5 1.065-5.055 1.235-6.312 1.232-9.094-.006-7.237-1.871-14.949-6.34-26.162-3.794-9.523-5.182-14.097-5.723-18.949-.73-6.551 1.224-12.251 5.74-16.768 1.822-1.82 7.368-3.814 11.96-4.294l1.669-.171 1.172 2.951c7.055 17.767 19.308 29.033 35.46 32.612 1.355.3 3.224.627 4.15.727l1.685.18-1.395 2.241c-9.29 14.955-10.05 36.431-1.985 55.89 7.54 18.19 23.537 33.027 42.305 39.234 8.258 2.732 14.464 3.72 23.407 3.73 12.907.017 22.092-2.242 40.516-9.983 3.131-1.316 5.8-2.44 8.247-3.465 7.985-2.813 15.98-5.635 23.834-7.802 1.331-.074 2.788-.094 4.603-.137 4.963-.117 9.707.293 14.022 1.147 4.758 1.04 8.51 2.395 11.686 3.935 4.18 2.187 7.28 4.986 8.82 8.221 4.307 9.053 4.598 17.846.847 25.348-1.6 3.199-1.267 3.167-3.978.35-2.178-2.26-7.109-6.382-7.35-6.142-.055.056-.59 1.87-1.18 4.038-5.893 21.637-17.767 36.244-41.654 51.237-2.58 1.618-4.642 2.958-4.586 2.977.056.019 1.396.115 2.977.222 6.084.411 9.154.239 14.313-.83 12.562-2.603 28.723-10.515 39.892-19.522 15.787-12.733 24.637-36.411 20.523-54.913-2.003-9.009-5.633-14.819-12.926-20.686-16.745-13.468-32.716-18.482-49.61-15.57-8.584 1.48-14.441 3.287-27.59 8.495-14.255 5.646-21.76 8.03-27.171 8.64-5.036.569-14.984.42-18.864-.282-15.595-2.817-24.551-11.874-31.919-32.277-1.186-3.285-.501-8.945 1.574-13.055 2.125-4.208 6.872-9.06 11.473-11.729.184-.107 1.132.846 2.326 2.344 2.934 3.681 8.685 9.33 12.097 11.883 5.902 4.414 10.75 6.6 18.522 8.341 1.369.307 7.12.47 17.93.505 19.27.064 36.097-16.114 37.283-35.854.096-1.592.304-2.968.47-3.08.167-.11.916-.202 1.67-.205 1.657-.007 5.713-.625 8.973-1.377 10.9-2.516 19.72-8.937 24.527-17.846.549-1.017 1.058-1.854 1.138-1.857.242-.007 2.165 5.12 3.234 8.624l1.001 3.285-.068 4.928c-.26 18.892 2.054 29.9 8.204 39.01 7.64 11.319 22.593 21.374 36.076 24.27 3.302.71 13.06.712 16.425 0 7.18-1.518 14.975-4.5 25.255-9.658 5.062-2.54 18.384-13.51 25.938-21.362 9.141-9.5 14.633-17.25 20.139-28.428 3.553-7.215 5.459-12.203 9.53-24.912 1.591-4.969 3.254-10.02 3.696-11.224 4.876-13.301 11.788-21.105 20.745-23.416 1.83-.472 2.158-.481 4.877-.102 12.618 1.758 19.582 6.686 19.582 13.842 0 3.43-3.235 13.384-4.226 13.003-.168-.064-1.257-.798-2.421-1.634-1.165-.836-2.823-1.785-3.687-2.113-2.124-.805-6.087-1.9-6.083-1.677.005.099.254.98.565 1.96 4.92 15.51-.036 32.449-13.612 46.53-1.712 1.775-3.114 3.284-3.114 3.353 0 .512 9.56-1.797 13.218-3.19 15.79-6.016 31.905-24.03 37.531-41.963 3.256-10.379-.195-25.05-8.367-35.589-11.762-15.17-28.264-20.926-46.967-16.374-16.148 3.93-28.883 15.639-34.545 31.756-.474 1.35-1.588 5.046-2.472 8.213-2.23 7.985-4.42 14.854-6.194 19.411-6.848 17.584-19.246 32.458-32.645 39.173-5.407 2.71-7.536 3.139-12.978 2.627-12.322-1.16-18.956-6.217-21.705-16.546-1.14-4.287-1.501-8.19-1.924-21.114-.222-6.775-.467-12.75-.548-13.277-.988-6.42-1.976-10.73-3.49-15.194-6.324-18.632-19.738-33.015-36.864-39.875zM214.12 378.462l.941.855c4.204 3.843 13.55 7.036 23.877 8.145l3.071.325-1.993 1.086c-1.096.597-3.33 1.918-4.97 2.934s-3.146 1.851-3.346 1.848c-.54-.005-5.434-2.77-7.554-4.269-3.332-2.357-7.56-6.84-9.53-10.103zm100.378 36.658c.077-.006.126-.006.136.008.043.043.087.9.095 1.9.017 2.286-.653 3.757-2.499 5.483-1.466 1.371-1.632 1.406-3.772.83-3.512-.945-6.847-2.882-9.36-5.441l-1.497-1.523h3.037c3.023 0 10.044-.603 12.585-1.078.551-.103 1.042-.17 1.274-.18z" opacity=".264" color="#000" fill-opacity=".961"/></svg>