<svg xmlns="http://www.w3.org/2000/svg" viewBox="0 0 160 200"><defs><filter id="g" width="1.207" y="-.308" x="-.103" height="1.615" color-interpolation-filters="sRGB"><feGaussianBlur stdDeviation="2.462"/></filter><filter id="f" width="2.098" y="-.549" x="-.549" height="2.098" color-interpolation-filters="sRGB"><feGaussianBlur stdDeviation="1.791"/></filter><filter id="e" width="2.098" y="-.549" x="-.549" height="2.098" color-interpolation-filters="sRGB"><feGaussianBlur stdDeviation="1.791"/></filter><filter id="d" width="1.129" y="-.19" x="-.064" height="1.379" color-interpolation-filters="sRGB"><feGaussianBlur stdDeviation="1.639"/></filter><filter id="b" color-interpolation-filters="sRGB"><feGaussianBlur stdDeviation="3.734"/></filter><filter id="a" color-interpolation-filters="sRGB"><feGaussianBlur stdDeviation="5.393"/></filter><linearGradient id="c" y2="1979.5" gradientUnits="userSpaceOnUse" x2="766.43" gradientTransform="translate(-188.09 -200.99) scale(.57069)" y1="2011.6" x1="856.43"><stop offset="0"/><stop offset="1" stop-opacity="0"/></linearGradient></defs><path d="M305.14 770.3c-3.295-.045-6.54.764-8.719 2.875-5.34-4.953-16.709-2.272-20.062 1.031-4.126 4.064-9.983 5.972-14.063 10.22-.719.11-1.435.226-2.156.343-2.836.485-3.948 4.897-6.438 7.656-2.073 2.3-12.959 7.819-8.187 9.469.372-.084.75-.138 1.125-.219-9.325 12.513-18.942 34.772-24.656 53.656a78.52 78.52 0 01-6.625-2.437h-.031c-.474-.2-.914-.422-1.375-.625-.588-.259-1.184-.518-1.75-.782-3.012-1.4-5.73-2.837-8.188-4.187-.013-.01-.018-.024-.03-.031-1.633-.896-3.156-1.741-4.563-2.5-.013-.01-.019-.024-.032-.031a55.766 55.766 0 00-3.906-1.938h-.031c-4.299-1.89-9.456-4.34-14.438-6.28-.232-.092-.456-.162-.688-.25-.125-.049-.25-.079-.375-.126-.736-.278-1.466-.562-2.187-.812-.15-.052-.288-.106-.438-.156-.602-.205-1.195-.383-1.78-.563a39.81 39.81 0 00-2.625-.719l-.126-.03a29.307 29.307 0 00-2.125-.438 19.429 19.429 0 00-1.594-.188c-.152-.012-.288-.024-.437-.03-.406-.022-.811-.046-1.188-.032-.63.025-1.21.116-1.75.25-.791.193-1.472.51-2.03.97-.075.06-.15.12-.22.187-.12.113-.206.245-.312.375-.047.056-.112.097-.156.156a4.368 4.368 0 00-.344.562c-.026.05-.038.105-.062.157-.116.243-.233.5-.313.78-.1.352-.16.724-.219 1.126-.008.055-.024.1-.03.156-.054.414-.084.85-.095 1.313-.002.084 0 .165 0 .25-.004.835.059 1.754.188 2.718.044.33.097.658.156 1 .082.476.17.97.281 1.47.035.151.088.313.125.468.115.481.234.969.375 1.469.032.112.06.23.094.343.103.352.229.704.344 1.063.09.28.152.559.25.844.026.077.067.141.094.218.126.361.268.727.406 1.094.074.198.14.395.219.594.112.288.223.583.343.875.213.517.452 1.038.688 1.562.02.043.043.082.062.125.332.736.656 1.473 1.031 2.22.059.114.129.227.188.343.212.414.431.834.656 1.25.143.264.29.517.438.781a62.025 62.025 0 004.625 7.094c.501.662 1.027 1.32 1.562 1.968.141.171.295.33.438.5.503.596 1 1.202 1.53 1.782.417 9.854.656 19.569.532 29.062-.002.188.003.374 0 .562a378.992 378.992 0 01-.187 7.188c-.005.156-.026.312-.032.469-.172 4.962-.417 9.874-.812 14.687l5.875-5.532c-.557-7.716-.987-14.782-1.281-21.656-.081-1.879-.159-3.736-.219-5.593-.012-.367-.02-.728-.031-1.094-.016-.51-.017-1.022-.031-1.531-.029-1.044-.041-2.081-.063-3.125a482.04 482.04 0 01-.062-3.5c-.019-1.365-.056-2.749-.063-4.125-.004-.739 0-1.476 0-2.22.174.159.355.314.531.47.376.332.739.676 1.125 1 .544.452 1.092.851 1.657 1.28.034.028.058.068.093.095.064 3.259.095 6.504.094 9.719 0 1.324-.019 2.652-.031 3.968-.003.28.003.564 0 .844-.002.176.002.355 0 .531-.003.21.003.416 0 .625-.11 7.573-.436 15.001-1.031 22.25l5.875-5.53c-.788-10.92-1.307-20.539-1.563-30.126.61.383 1.245.772 1.875 1.125.082.045.168.08.25.125.718.396 1.444.771 2.188 1.125.003 4.583-.038 9.113-.188 13.594l-.031.969c-.173 4.79-.462 9.536-.844 14.187h.031l5.875-5.531a925.875 925.875 0 01-.968-14.72c-.026-.465-.039-.911-.063-1.374-.051-.956-.11-1.899-.156-2.844-.045-.937-.085-1.885-.125-2.813.396.142.791.281 1.187.407.24.079.48.144.72.218.543.16 1.08.336 1.624.47a408.754 408.754 0 01-.281 13.28c-.072 1.799-.15 3.596-.25 5.375-.007.125-.024.25-.031.375a295.027 295.027 0 01-.5 7.156h.03l5.876-5.53c-.512-7.1-.896-13.647-1.188-20 .24.032.48.064.72.093.3.036.604.065.905.094.55.053 1.077.095 1.625.125v1.125c0 .268.002.544 0 .813-.01 1.717-.04 3.462-.093 5.25-.012.375-.05.745-.063 1.125-.037 1.05-.072 2.128-.125 3.219a243.969 243.969 0 01-.187 3.437 289.246 289.246 0 01-.407 5.688l5.875-5.532c-.376-5.22-.725-9.299-1.03-13.03-.06-.718-.102-1.348-.157-2.032.478-.015.96-.065 1.437-.094.75-.045 1.502-.08 2.25-.156.283-.03.562-.061.844-.094-.056.899-.085 1.775-.156 2.75-.022.305-.04.624-.063.937-.235 3.147-.56 6.605-.937 11.187h.031l5.875-5.53c-.315-4.371-.54-7.265-.719-9.938.282-.05.563-.103.844-.157a88.951 88.951 0 002.344-.468 60.396 60.396 0 001.594 5.218c-6.113 36.58-6.14 73.195-4.938 100.5-.097-3.32-.147-6.74-.125-10.219.178 6.238.425 11.964.719 17.375-1.162 9.205-4.442 15.787-10.719 19.25 3.375 2.133 7.353 3.903 11.688 5.282l-15.062 10.656 18.344 2.469 4.344 11.969 1.094-.625.25.656 17.125-10 16.688 2.156-.063-.187 1.406.187-4.562-15.156c-.414.081-.833.145-1.25.219l-.094-.25c3.322-.65 6.525-1.53 9.563-2.657-3.89-1.31-10.216-6.055-10.094-13.094.943-1.897 2.475-3.372 4.75-4.343 10.347-4.421 33.935-4.583 46.688-1.938 5.034 1.045 7.246 3.015 8.187 5.563.231 6.007-2.662 11.39-7.219 14.53a77.957 77.957 0 005.75 1.876l-11.406 12.688 1.344-.062-.031.062 13.625-.5 12.906 13.562.625-.719.687.719 12.063-13.562 16.594 2.531-.125-.219 1.469.22-8-14.407c-.378.118-.774.203-1.156.313l-.188-.313c3.888-1.212 7.564-2.846 10.875-4.937-4.562-4.06-7.247-12.023-8.562-20.406 5.515-34.464 9.081-69.21 8.187-102.03 1.477-1.818 2.774-3.835 3.719-5.875.416.064.833.128 1.25.187-.183 3.193-.48 7.19-.938 13.531l5.875 5.531c-.697-8.493-1.138-13.715-1.343-18.625a69.12 69.12 0 005.03.344c-.388 5.134-.893 10.808-1.468 18.781l5.875 5.531c-.777-9.473-.95-16.833-.812-24.313a46.213 46.213 0 003.343-.25c-.295 7.479-.734 15.153-1.343 23.594l5.875 5.532c-.788-9.597-1.09-19.517-1.063-29.656a37.478 37.478 0 003.656-.907c-.291 7.935-.758 16.048-1.406 25.031l5.875 5.532c-.842-10.265-1.11-20.902-1.031-31.781a36.07 36.07 0 003.187-1.532c.405-.218.792-.456 1.188-.687-.22 10.545-.759 20.99-1.625 33l5.875 5.531c-1.072-13.056-1.248-26.689-.906-40.688a45.505 45.505 0 003.343-2.656c.068 15.049-.548 28.752-1.75 45.406l5.875 5.531c-1.422-17.324-1.269-35.684-.406-54.53 11.876-12.764 16.83-30.873 14.22-37.688-3.174-8.28-21.057 2.767-32.532 9.063-5.63 3.088-13.425 9.675-24.719 14.5-3.329-19.706-9.332-43.938-16.937-57.22 5.192.651-3.41-6.98-5.344-10.28-1.67-2.85-2.593-8.168-7.375-8.313-1.62-.38-3.214-.7-4.812-1.031-4.08-5.008-10.52-6.868-14.97-11.25-1.987-1.958-6.77-3.717-11.468-3.781z" transform="translate(-86.09 -411.73) scale(.57069)" opacity=".3" filter="url(#a)"/><path d="M14.82 77.96l2.446.611c-.278 11.225.059 20.37.906 32.104l-3.352 3.157c.93-11.337.692-23.453 0-35.872zM18.57 73.64l2.446.611c-.278 11.225.059 20.37.905 32.104l-3.351 3.157c.93-11.337.692-23.453 0-35.872zM22.89 71.05l2.446.611c-.278 11.225.059 20.37.906 32.104l-3.352 3.157c.93-11.337.692-23.453 0-35.872zM26.92 71.05l2.446.611c-.278 11.225.059 20.37.905 32.104l-3.351 3.157c.93-11.337.692-23.453 0-35.872zM30.67 74.5l2.446.611c-.278 11.225.347 14.317 1.194 26.051l-3.352 3.157c.93-11.337.404-17.4-.288-29.82zM36 75.95l2.446.611c-.278 11.225-.373 9.418.473 21.151l-3.351 3.157c.93-11.337 1.124-12.5.432-24.92z" fill="#e86abf"/><path d="M56.24 78.02l-6.091 11.012c-8.333 2.278-17.131 5.616-25.876 1.848C12.309 85.726 5.8 70.693 7.265 65.567c1.39-4.866 12.11.52 18.948 3.526 5.5 2.418 14.732 9.966 30.027 8.927z" fill="#e86abf"/><path d="M62.48 40.63c10.52-13.759 39.309-15.028 49.36 7.564 15.024 33.77 11.046 78.761 3.22 121.64l5.46 9.808-10.152-1.552-6.963 7.856-7.381-7.779-8.505.314 7.782-8.647c-.76-4.828 2.05-9.641-5.11-11.127-7.277-1.51-20.727-1.404-26.632 1.12-3.515 1.501-3.97 5.066-2.846 10.006l3.041 10.11-10.142-1.296-9.927 5.768-2.478-6.844-10.472-1.397 8.974-6.341c-1.752-22.683-6.977-90.3 22.771-129.21z" fill="#fbc3c3"/><path d="M296.64 780.79c-14.684.49-28.691 6.696-36.645 16.993-41.399 53.599-43.59 139.02-41.299 190.53-1.052-35.509 3.839-80.334 39.819-133.32 2.542-3.744 5.263-7.098 8.136-10.037 14.392-14.717 29.826 6.5 47.463-4.546 4.79 4.46 9.31 10.746 13.346 19.037 22.103 45.417 36.332 82.032 25.087 149.92 12.353-70.47 17.608-143.35-7.243-198.64-9.77-21.74-29.785-30.558-48.665-29.929z" transform="translate(-86.09 -411.73) scale(.57069)" opacity=".25" filter="url(#b)"/><path d="M234.66 915.97c-1.573.028-2.712.593-3.103 1.962-1.03 3.602 1.892 12.098 7.865 18.619.433 10.24.471 20.222-.303 29.658l3.352-3.157c-.646-8.965-.993-16.426-.998-24.45.62.563 1.272 1.114 1.944 1.623.144 7.44.018 14.688-.553 21.65l3.352-3.157c-.45-6.232-.745-11.72-.891-17.192.796.5 1.623.949 2.479 1.356.004 5.606-.17 11.095-.607 16.407l3.353-3.157c-.319-4.42-.58-8.477-.749-12.412.672.24 1.343.46 2.015.624-.026 5.098-.19 10.095-.588 14.945l3.353-3.156a433.339 433.339 0 01-.678-11.414c.618.086 1.237.144 1.855.178.01 3.587-.128 7.26-.5 11.788l3.353-3.157c-.253-3.5-.483-6.188-.678-8.595a30.432 30.432 0 002.604-.197c-.142 2.265-.358 4.818-.66 8.49l3.353-3.157c-.18-2.494-.308-4.146-.41-5.672 3.939-.705 7.833-1.958 11.628-2.996l6.1-11.02c-15.296 1.039-24.533-6.5-30.033-8.918-4.915-2.16-11.834-5.564-15.854-5.493z" opacity=".8" fill="url(#c)" transform="translate(-224.29 -852.36)"/><path d="M83.54 30.69c-8.497.286-16.602 3.914-21.205 9.933-23.955 31.332-25.224 81.264-23.898 111.37-.609-20.757 2.221-46.96 23.042-77.934 1.471-2.188 3.045-4.149 4.708-5.867 8.328-8.603 17.26 3.8 27.464-2.657 2.772 2.607 5.387 6.281 7.722 11.128 12.79 26.549 21.024 47.952 14.517 87.636 7.149-41.194 10.19-83.796-4.19-116.12-5.655-12.708-17.236-17.863-28.16-17.495z" fill="#e86abf"/><path d="M284.44 832.79c13.452.443 10.733 17.135 29.327 7.478.406-.211-.064-1.137-.65-1.692.93-.17 2.579-.052 3.55.664 1.04.768 2.568 2.477 2.328 4.747-.505-1.535-3.371-2.651-3.883-1.954-3.204 4.36-10.9 10.658-21.497 11.45-11.071.827-20.213-11.751-35.774-.511 1.796-12.542 14.44-20.582 26.599-20.182z" transform="translate(-86.09 -411.73) scale(.57069)" opacity=".1" filter="url(#d)"/><path d="M-547.5 513.32a3.914 3.914 0 11-7.829 0 3.914 3.914 0 017.829 0z" transform="translate(536.22 -347.57) scale(.78212)" opacity=".2" filter="url(#e)"/><path d="M108.1 53.808a3.061 3.061 0 11-6.124 0 3.061 3.061 0 016.123 0z" fill="#fbc3c3"/><path d="M-547.5 513.32a3.914 3.914 0 11-7.829 0 3.914 3.914 0 017.829 0z" transform="translate(494.36 -347.57) scale(.78212)" opacity=".2" filter="url(#f)"/><path d="M66.45 53.808a3.061 3.061 0 11-6.124 0 3.061 3.061 0 016.123 0z" fill="#fbc3c3"/><path d="M286.26 829.96c12.563.41 10.024 15.869 27.391 6.925.38-.195-.06-1.053-.607-1.567.869-.157 2.408-.048 3.316.616.97.71 2.398 2.293 2.174 4.396-.472-1.422-3.149-2.456-3.627-1.81-2.992 4.038-10.179 9.87-20.077 10.604-10.34.766-18.878-10.883-33.411-.473 1.677-11.616 13.487-19.061 24.842-18.691z" transform="translate(-86.09 -411.73) scale(.57069)" opacity=".3" filter="url(#g)"/><path d="M76.96 61.83c7.17.234 5.72 9.056 15.631 3.952.216-.111 1.48-1.105 1.167-1.398.416.68.154 1.592-.45 2.331-1.805 2.206-5.81 5.633-11.458 6.052-5.901.437-10.773-6.211-19.067-.27.957-6.63 7.696-10.878 14.177-10.667z" fill="#fbc3c3"/><path d="M56.44 44.29l7.494-1.441c-8.765 15.528-17.152 35.666-20.753 55.63-2.166-2.687-4.119-10.664-3.891-14.412C41.869 71.79 49.443 52.735 56.44 44.29z" fill="#9e247b"/><g fill="#c8c821"><path d="M86.234 91.082a6.337 6.337 0 11-12.675 0 6.337 6.337 0 0112.675 0z"/><path d="M97.253 96.728a6.337 6.337 0 11-12.674 0 6.337 6.337 0 0112.674 0z"/><path d="M103.864 107.474a6.337 6.337 0 11-12.674 0 6.337 6.337 0 0112.674 0z"/><path d="M103.45 120.425a6.337 6.337 0 11-12.674 0 6.337 6.337 0 0112.674 0zM73.97 93.286a6.337 6.337 0 11-12.674 0 6.337 6.337 0 0112.675 0z"/><path d="M64.468 101.686a6.337 6.337 0 11-12.675 0 6.337 6.337 0 0112.675 0z"/><path d="M60.333 113.671a6.337 6.337 0 11-12.674 0 6.337 6.337 0 0112.674 0z"/><path d="M62.815 126.07a6.337 6.337 0 11-12.674 0 6.337 6.337 0 0112.674 0z"/><path d="M72.181 134.613a6.337 6.337 0 11-12.674 0 6.337 6.337 0 0112.674 0z"/><path d="M84.853 136.545a6.337 6.337 0 11-12.674 0 6.337 6.337 0 0112.674 0zM96.98 131.308a6.337 6.337 0 11-12.674 0 6.337 6.337 0 0112.674 0z"/></g><path d="M111.91 44.58l-7.494-2.018c8.765 15.528 10.379 38.836 13.115 59.666 3.752-1.39 7.722-7.205 7.494-10.953-.994-12.277-6.117-38.249-13.115-46.695zM83.44 29.77c2.798-3.482 9.898-1.884 11.914.102 2.826 2.783 7.056 3.782 9.274 7.46l-23.43-1.326c-.288-1.739.484-4.048 2.243-6.236z" fill="#9e247b"/><path d="M84.29 29.86c-2.798-3.482-9.898-1.884-11.914.102-2.826 2.783-7.056 3.782-9.274 7.46l23.43-1.326c.288-1.739-.484-4.048-2.243-6.236z" fill="#9e247b"/><path d="M63.12 35.98c14.393-2.333 28.038-2.715 43.515.917 2.729.083 3.249 3.119 4.202 4.745 1.12 1.912 6.187 6.379 2.932 5.854-18.74-4.852-41.797-5.605-59.005-1.733-2.723-.941 3.488-4.104 4.671-5.416 1.42-1.575 2.067-4.09 3.685-4.367z" fill="#c62e2e"/><path d="M108.53 83.39l7.03 10.437c8.5 1.541 17.556 4.097 25.938-.42 11.468-6.181 16.638-21.725 14.73-26.704-1.81-4.726-12.019 1.576-18.568 5.169-5.267 2.89-13.804 11.217-29.13 11.518z" fill="#e86abf"/><path d="M38.84 155.64l22.01 6.253c-.336 4.243 3.458 7.108 5.753 7.881-10.788 4-25.555 2.61-33.942-2.689 3.685-2.033 5.569-5.953 6.18-11.445zM116.98 154.94l-22.112 6.966a9.59 9.59 0 01-4.122 8.29c10.788 3.998 23.007 3.73 31.395-1.569-2.972-2.645-4.55-8.195-5.16-13.687z" fill="#fbc3c3"/><path d="M93.71 114.071c0 9.665-7.834 17.5-17.5 17.5s-17.5-7.835-17.5-17.5 7.836-17.5 17.5-17.5 17.5 7.835 17.5 17.5z" stroke="#a00" stroke-width="4.565711149999999" fill="none"/><path d="M77.63 93.44l-4.612 40.642M75.54 111.09l14.124 17.294M76.47 111.31l-17.583 12.971" stroke="#a00" stroke-width="4.566" fill="none"/><path d="M40.09 170.14l-8.614 6.064 10.486 1.408 2.48 6.849 9.915-5.779 10.148 1.302-2.604-8.65c-7.195 1.409-15.242.896-21.811-1.194zm54.697 1.141l-6.527 7.241 8.507-.321 7.383 7.776 6.973-7.847 10.148 1.551-4.566-8.221c-6.639 2.071-14.485 1.936-21.918-.179z" fill="#e86abf"/><g fill="#e86abf"><path d="M148.346 83.473l-2.446.612c.277 11.225-.06 20.37-.906 32.104l3.352 3.156c-.931-11.337-.693-23.453 0-35.872zM144.596 79.136l-2.446.611c.278 11.225-.059 20.37-.905 32.105l3.351 3.156c-.93-11.337-.692-23.453 0-35.872zM140.276 76.568l-2.446.611c.278 11.225-.059 20.37-.905 32.105l3.351 3.156c-.93-11.337-.692-23.453 0-35.872zM136.218 76.568l-2.445.611c.277 11.225-.06 20.37-.906 32.105l3.351 3.156c-.93-11.337-.692-23.453 0-35.872zM132.509 79.992l-2.446.612c.278 11.224-.347 14.317-1.194 26.051l3.352 3.156c-.93-11.337-.405-17.4.288-29.818zM127.144 81.419l-2.445.611c.277 11.225.373 9.418-.474 21.151l3.352 3.156c-.93-11.336-1.125-12.5-.433-24.918z"/></g></svg>