<?xml version="1.0" standalone="no"?>
<!DOCTYPE svg PUBLIC "-//W3C//DTD SVG 20010904//EN"
 "http://www.w3.org/TR/2001/REC-SVG-20010904/DTD/svg10.dtd">
<svg version="1.0" xmlns="http://www.w3.org/2000/svg"
 width="1200.000000pt" height="1200.000000pt" viewBox="0 0 1200.000000 1200.000000"
 preserveAspectRatio="xMidYMid meet">
<metadata>
Created by potrace 1.11, written by Peter Selinger 2001-2013
</metadata>
<g transform="translate(0.000000,1200.000000) scale(0.100000,-0.100000)"
fill="#000000" stroke="none">
<path d="M5728 10015 c-2 -2 -34 -6 -73 -10 -38 -4 -72 -8 -75 -10 -3 -1 -36
-6 -75 -9 -38 -4 -77 -9 -85 -11 -13 -3 -70 -10 -160 -20 -36 -4 -129 -15
-170 -20 -19 -3 -64 -7 -100 -10 -65 -6 -76 -7 -160 -20 -78 -12 -256 -54
-337 -80 -43 -13 -163 -47 -267 -75 -379 -103 -773 -231 -1092 -356 -142 -55
-425 -174 -439 -184 -5 -4 -28 -14 -51 -23 -69 -26 -353 -168 -474 -236 -263
-147 -575 -363 -759 -526 -128 -112 -249 -226 -331 -311 -85 -88 -98 -107
-119 -169 -13 -38 -31 -81 -40 -95 -25 -36 -61 -125 -62 -152 0 -13 2 -81 4
-153 l5 -130 81 -77 c88 -84 129 -104 195 -94 72 11 81 23 81 108 0 40 -5 98
-10 128 -13 82 -10 107 19 148 14 21 26 43 26 48 0 23 269 302 389 404 30 25
59 50 65 55 35 32 204 160 286 217 180 124 315 201 635 361 369 185 722 340
1080 476 105 40 206 79 225 87 19 7 145 41 280 75 135 33 321 81 415 106 93
25 181 47 195 50 14 2 41 8 60 13 19 5 50 12 69 15 19 3 37 8 40 10 6 3 27 6
131 20 25 3 56 8 70 10 14 2 57 7 95 10 39 4 84 9 100 11 239 26 770 26 1000
0 72 -8 343 -98 397 -132 72 -45 102 -87 122 -166 17 -69 17 -78 1 -151 -25
-119 -70 -250 -126 -364 -54 -109 -89 -164 -234 -363 -151 -206 -306 -432
-301 -437 2 -2 32 6 67 17 42 13 105 47 183 100 65 44 120 80 123 80 2 0 0
-12 -3 -27 l-7 -28 24 20 c40 33 200 197 261 265 235 269 310 445 332 775 5
74 -50 251 -104 334 -55 84 -171 199 -261 258 -173 112 -381 176 -684 209 -27
3 -63 7 -80 9 -16 3 -86 7 -155 10 -69 3 -146 7 -172 9 -26 2 -48 2 -50 1z"/>
<path d="M3682 8947 c-28 -9 -34 -17 -48 -66 -66 -240 -188 -615 -274 -846
-28 -77 -83 -228 -120 -335 -38 -107 -83 -235 -100 -285 -50 -143 -74 -222
-155 -515 -42 -151 -109 -387 -150 -525 -62 -209 -135 -475 -150 -543 -2 -9
-12 -51 -23 -92 -18 -71 -60 -246 -67 -281 -2 -9 -13 -61 -25 -115 -12 -55
-23 -106 -25 -114 -2 -8 -14 -73 -28 -145 -25 -125 -29 -153 -42 -240 -3 -22
-10 -62 -15 -90 -5 -27 -12 -72 -15 -100 -8 -68 -14 -123 -20 -165 -3 -19 -8
-62 -11 -95 -2 -33 -7 -76 -9 -95 -2 -19 -7 -71 -10 -115 -3 -44 -8 -100 -11
-125 -2 -25 -7 -204 -10 -398 -7 -335 -6 -353 12 -373 10 -11 19 -30 20 -42 2
-49 15 -65 67 -86 29 -12 80 -24 114 -27 61 -6 62 -6 69 20 3 14 16 34 29 44
20 16 22 25 22 122 -1 95 9 254 19 303 4 22 13 177 19 302 1 44 19 159 38 255
20 96 38 198 42 225 3 28 8 64 10 80 2 17 7 55 9 85 17 181 16 174 42 320 13
72 56 207 96 305 24 57 28 79 23 116 -5 36 0 67 25 145 61 193 65 209 74 314
2 19 31 121 64 225 80 252 96 305 143 470 22 77 60 208 85 290 66 217 87 290
139 475 25 91 53 183 61 205 14 36 22 54 55 130 106 243 249 652 249 712 0 59
15 91 45 99 26 6 29 16 26 69 -1 17 12 70 29 119 51 151 39 223 -48 305 -79
74 -187 105 -270 78z"/>
<path d="M6020 7256 c-115 -34 -367 -159 -486 -242 -126 -87 -257 -190 -390
-305 -210 -183 -242 -210 -329 -277 -57 -44 -94 -81 -118 -120 -19 -31 -64
-86 -99 -122 -124 -128 -195 -276 -184 -389 3 -31 5 -59 5 -62 1 -4 17 -24 36
-45 20 -21 41 -57 47 -79 6 -22 25 -55 42 -73 40 -43 158 -132 219 -166 44
-24 219 -89 270 -101 12 -2 49 -11 82 -20 33 -8 94 -17 135 -21 41 -3 113 -12
160 -20 47 -9 96 -17 110 -19 92 -14 243 -58 248 -73 2 -6 -21 -27 -50 -46
-55 -35 -84 -64 -133 -131 -16 -22 -76 -87 -132 -144 -276 -280 -371 -428
-401 -621 -7 -50 -5 -67 27 -163 40 -120 66 -155 136 -183 30 -12 48 -27 51
-41 5 -18 60 -64 86 -72 4 -1 22 -7 40 -12 57 -18 198 -19 266 -4 36 9 131 50
230 101 137 71 177 97 222 144 30 31 80 75 111 97 41 30 82 78 151 175 131
184 141 202 186 358 3 8 6 58 7 112 3 124 -14 200 -85 373 -13 30 -12 32 51
92 150 143 242 224 405 354 76 61 152 121 168 134 23 19 32 22 47 12 10 -6 15
-15 13 -19 -9 -14 -22 -9 -27 10 -9 38 -25 -36 -29 -135 -4 -110 -13 -132 -46
-114 -17 9 -20 7 -26 -21 -3 -17 -4 -33 -1 -36 3 -3 5 2 5 11 0 21 19 22 26 2
4 -8 -5 -24 -20 -37 -27 -24 -30 -41 -21 -115 6 -47 -10 -67 -32 -38 -7 11
-13 14 -13 8 0 -6 -3 -18 -6 -26 -4 -11 2 -16 17 -19 20 -3 21 -5 7 -18 -25
-26 -39 -60 -36 -88 2 -22 -1 -27 -19 -26 -19 1 -21 -2 -12 -18 7 -12 7 -24 1
-31 -5 -7 -13 -27 -17 -45 -6 -30 -5 -33 24 -38 l31 -6 -30 -35 c-17 -18 -30
-41 -31 -51 0 -9 -1 -80 -2 -157 -2 -137 -1 -141 23 -170 14 -16 34 -43 44
-59 34 -54 295 -147 414 -148 176 0 342 79 439 210 15 20 30 39 33 42 21 18
111 175 162 277 33 68 67 129 77 135 10 7 28 34 41 61 13 26 32 55 42 64 17
15 18 15 16 -8 -6 -91 39 -269 98 -386 37 -74 60 -106 120 -162 110 -106 204
-145 357 -150 62 -2 71 0 92 23 12 13 41 29 63 35 48 13 93 56 85 79 -4 9 -14
25 -24 35 -10 9 -16 24 -13 32 6 14 2 15 -38 15 -2 0 -43 11 -92 25 -49 13
-93 22 -97 19 -11 -6 -35 43 -66 134 -25 74 -26 86 -27 322 -1 167 -6 259 -14
288 -11 37 -11 55 2 110 28 124 38 207 51 412 4 52 8 111 10 130 6 53 17 182
19 205 1 22 -76 73 -153 101 -64 24 -69 32 -63 116 8 141 6 177 -18 211 -41
60 -108 92 -215 102 -33 3 -87 8 -120 11 -33 3 -71 7 -85 9 -127 21 -122 23
-233 -52 -121 -81 -223 -178 -263 -250 -22 -40 -35 -53 -52 -53 -17 0 -27 -12
-46 -54 -13 -30 -32 -57 -43 -60 -10 -3 -46 -29 -78 -57 -68 -58 -111 -80
-166 -82 -32 -2 -45 -10 -71 -42 -46 -55 -97 -100 -181 -158 -40 -27 -100 -74
-134 -104 -61 -53 -95 -63 -73 -22 8 15 7 19 -4 19 -8 0 -31 -27 -51 -60 -20
-33 -40 -58 -45 -55 -19 12 -59 -20 -76 -59 -25 -57 -51 -71 -100 -55 -18 6
-24 0 -42 -43 -18 -42 -24 -48 -39 -40 -28 15 -60 -3 -82 -47 -23 -44 -36 -56
-46 -41 -11 17 -44 11 -55 -11 -6 -11 -25 -28 -42 -39 l-31 -18 -106 53 c-155
77 -314 124 -476 140 -33 3 -71 8 -85 10 -14 2 -45 7 -70 10 -129 18 -411 83
-492 114 -34 13 -34 19 -7 68 78 140 220 317 379 474 167 164 417 346 750 545
239 143 249 148 292 135 21 -7 57 -30 81 -53 71 -69 124 -98 179 -98 43 0 50
3 58 25 5 14 13 25 18 25 21 0 21 149 -1 181 -9 13 -54 51 -99 84 -45 33 -96
79 -113 101 -16 22 -43 47 -60 53 -109 46 -259 62 -345 37z m2020 -1015 c0
-56 2 -59 28 -67 15 -4 52 -8 82 -8 63 -1 62 3 28 -106 -30 -92 -69 -176 -119
-255 l-42 -67 23 -43 c12 -23 21 -48 18 -56 -3 -9 -11 -2 -22 19 -10 19 -20
32 -22 29 -3 -3 -28 -40 -55 -83 -51 -82 -64 -121 -57 -178 4 -32 2 -34 -22
-30 -23 4 -29 -4 -77 -103 -44 -90 -109 -209 -213 -389 -80 -138 -179 -294
-187 -294 -7 0 3 326 10 338 3 4 8 33 11 65 4 32 9 64 11 70 3 7 6 23 9 37 18
103 87 317 136 425 16 36 30 68 30 70 0 3 28 62 62 132 82 168 174 333 260
465 62 95 72 106 89 97 15 -8 19 -21 19 -68z m-80 -713 c0 -7 -4 -19 -9 -27
-11 -17 -23 1 -15 23 7 19 24 21 24 4z m-1850 -765 c0 -14 -62 -129 -104 -193
-128 -195 -279 -336 -453 -424 -29 -14 -55 -26 -58 -26 -12 0 60 128 110 195
28 39 99 113 156 165 57 52 146 138 199 190 71 72 102 96 122 97 16 0 28 -1
28 -4z"/>
<path d="M9945 6835 c-108 -25 -192 -58 -266 -106 -131 -83 -404 -544 -562
-944 -46 -119 -59 -165 -82 -305 -14 -91 -28 -176 -31 -190 -2 -14 -11 -72
-19 -130 -8 -58 -18 -121 -21 -140 -12 -79 -5 -177 19 -256 27 -90 109 -226
169 -279 98 -87 321 -231 370 -239 104 -16 145 -19 258 -19 69 1 139 4 155 7
17 4 48 9 70 12 99 13 395 203 649 417 128 108 228 206 421 413 147 158 429
441 588 589 109 102 118 114 120 150 2 31 8 41 22 43 32 6 53 31 60 71 6 35
14 52 77 153 15 23 34 60 43 81 l16 38 -36 -7 -35 -6 0 45 c0 28 -7 53 -18 66
-32 41 -127 32 -191 -17 -19 -14 -45 -25 -58 -24 -15 1 -23 -4 -23 -14 0 -11
6 -14 18 -10 25 9 -48 -55 -96 -83 -46 -27 -86 -92 -47 -77 24 9 18 -10 -9
-27 -13 -9 -29 -22 -37 -29 -8 -7 -61 -53 -119 -103 -110 -94 -199 -182 -645
-636 -148 -151 -317 -316 -375 -368 -99 -87 -270 -209 -370 -264 -159 -87
-158 -86 -223 -82 -34 2 -90 9 -124 16 -56 10 -65 15 -103 60 -45 53 -90 151
-85 184 2 11 6 63 9 115 4 53 8 105 10 116 2 12 7 45 11 75 3 30 8 65 10 79 3
14 7 41 10 60 3 19 19 90 35 157 81 339 210 628 379 848 60 78 180 205 195
205 6 0 17 -9 24 -20 6 -11 36 -32 64 -46 62 -32 177 -43 246 -25 46 13 112
64 112 87 0 8 6 17 14 20 20 8 -3 63 -55 130 -21 27 -47 71 -59 96 -21 48 -61
80 -140 113 -71 29 -221 29 -345 0z"/>
<path d="M4018 3225 c-2 -2 -78 -6 -168 -9 -91 -3 -178 -8 -195 -11 -199 -37
-461 -75 -615 -90 -213 -20 -239 -25 -473 -89 -53 -15 -105 -29 -115 -31 -33
-6 -288 -67 -427 -102 -77 -19 -151 -37 -164 -39 -72 -14 -513 -129 -552 -144
-46 -19 -232 -74 -279 -84 -128 -27 -195 -44 -315 -82 -230 -73 -300 -92 -448
-118 -85 -15 -163 -53 -223 -108 -52 -47 -52 -58 -4 -163 74 -166 267 -212
519 -123 144 51 433 148 496 166 69 21 92 27 147 37 65 12 87 18 172 46 50 17
134 41 186 54 52 13 122 31 155 40 33 9 69 18 81 21 23 4 554 153 724 202 58
17 123 33 145 37 22 3 65 10 95 15 30 5 69 12 85 14 17 3 44 7 60 10 17 3 89
15 160 26 72 11 141 23 155 25 14 2 43 7 65 10 22 3 78 12 125 20 47 7 105 17
130 20 25 3 88 13 140 21 52 9 113 18 135 20 22 3 50 7 63 9 63 11 225 19 372
19 213 0 329 -9 545 -44 136 -22 140 -20 131 65 -4 33 -6 83 -6 111 1 47 -2
53 -46 97 -72 71 -169 115 -314 142 -38 8 -535 16 -542 10z"/>
</g>
</svg>
