<svg xmlns="http://www.w3.org/2000/svg" viewBox="0 0 600 600"><path d="M164.276 383.249l49.406-5.036 8.094 40.373c-4.774 1.79-11.048 3.11-15.779 4.922-2.739 1.05-4.553 2.265-6.315 3.832 4.84-2.957 7.734-2.264 11.239-2.718 7.395-.771 13.33 4.594 19.5 8.97 1.724 1.74 3.648 2.98 4.897 5.906l-2.801 4.21-6.049 9.101c-2.93 2.71-5.712 5.76-10.38 4.497-6.299-.05-12.63-.083-17.429-.883-4.326.478-9.013.233-11.377 4.636-3.631 4.206-8.282 5.064-13.709 3.369-5.529-4.842-13.594-6.471-11.931-20.422l-2.38-39.058c1.671-6.197 3.342-13.506 5.013-21.699z" color="#000" fill="#c9c2c1"/><path d="M177.887 135.157c-8.443.23-18.855 5.618-26.333 7.933-2.41 1.006-3.727 2.302-6.038 2.99l6.863-7.293c-7.26-.205-15.31 1.126-20.405 4.817-7.552 5.472-10.017 17.405-17.44 23.1-1.678 1.287-2.411 3.46-3.672 5.154 11.258-2.681 21.552-2.177 29.147.252 13.715-6.963 30.759.596 32.96 13.213 3.538-2.682 5.8-7.487 7.815-12.708 10.205.382 18.256 9.486 20.354 19.748.739 3.613-1.735 13.92-.859 19.066.978 5.744 4.244 8.845 7.15 12 .046-3.279.657-7.182 3.25-13.263 2.506 7.017-.079 15.756.472 22.922.513 6.674 1.739 12.481 4.716 16.177 3.69 4.26 8.944 8.132 15.714 11.622 2.527 4.131 2.345 8.454 6.198 13.17 1.78 2.18 3.78 6.043 3.57 8.885-.34 4.597-.976 9.93.21 13.929 1.089 3.663 3.908 6.084 5.643 8.379 3.575 4.728 14.87 5.038 17.07 2.543-4.163-5.449-4.973-11.512-2.24-18.232 3.327 5.71 4.462 5.956 7.529 7.52 3.93 2.006 8.697 2.373 13.945.733l.329.337c-.206-5.567-.188-11.11-2.114-16.893 2.752 2.945 5.3 4.042 7.798 4.699-1.006-8.83-4.638-15.67-11.427-21.676l-5.617-23.799c-.849-8.964-2.91-17.276-11.874-21.929 2.678.146 5.7 1.102 8.758 2.13-9.038-25.497-27.843-21.289-46.688-44.447 2.775-6.815 9.812-9.367 16.439-12.329-10.176-3.239-20.239-7.163-30.753-8.362 2.246-1.485 6.984-3.966 10.888-6.114-19.915-3.561-30.799 2.611-44.009-5.448 3.592-2.372 7.081-4.906 11.37-6.232-2.408-1.983-5.413-2.684-8.717-2.594zm-71.984 41.77c-8.49 5.67-13.141 11.34-19.284 17.01l3.234-.95c-7.999 12.299-4.108 20.257 3.975 26.686l-2.08-4.463c3.524 4.823 7.604 5.718 11.587 7.335l.741.202c-.75-1.78-2.494-4.302-5.297-7.621.39-4.897 2.823-9.799 5.213-14.695 4.259-3.162 9.68-6.32 15.2-9.483-4.46-3.753-9.372-10.093-13.288-14.021z" color="#000" fill="#a39d8f"/><path d="M228.091 168.23c7.377-2.914 14.638-15.004 16.457-25.6-.099-1.157.102-2.016.956-2.068l2.765.068c1.643-.009 2.457 1.153 3.016 2.674 3.516 8.37.626 16.2-1.874 20.634-3.258 5.779-9.247 7.292-16.604 9.49-1.05.308-1.965.278-2.63-.374l-2.256-3.064c-.414-.71-.435-1.281.17-1.76z" color="#000" fill="#a1948e"/><path d="M253.018 151.868c4.664.685 9.785.254 12.248 6.32 3.136 2.603 5.95 4.541 9.323 6.728 3.11 2.016 6.97 5.307 8.747 8.298 20.79 16.63 42.763 33.024 65.365 49.293l-11.433 10.888-29.145.385c-12.22-14.015-24.076-27.451-37.503-43.4-1.078-2.445-2.655-4.016-4.76-4.665-8.03-.426-14.381-3.091-20.113-6.582-3.026-2.884-3.59-6.384-.461-10.807 2.934-1.921 5.288-9.63 7.73-16.46z" color="#000" fill="#e2d1c9"/><path d="M139.597 81.703l105.528 66.492-11.16 19.327-104.667-76.63c-1.962-1.322-4.807-7.739-5.455-11.518 3.947-.584 10.696-.669 15.754 2.33z" color="#000" fill="#faf8f6"/><path d="M100.762 221.838l3.313.911c-.75-1.78-2.496-4.307-5.3-7.627.39-4.896 2.822-9.793 5.212-14.69 4.259-3.162 9.687-6.324 15.207-9.486-5.728-4.818-12.21-13.925-16.356-16.678 14.322-5.228 27.805-5.158 37.172-2.162 13.714-6.963 30.758.598 32.957 13.215 3.538-2.682 5.801-7.49 7.816-12.71 10.206.38 18.255 9.489 20.353 19.751.739 3.613-1.736 13.918-.86 19.065.978 5.744 4.245 8.841 7.151 11.996.046-3.279.656-7.178 3.25-13.26 2.504 7.019-.076 15.754.474 22.92.513 6.675 1.738 12.488 4.715 16.184 3.69 4.26 8.94 8.13 15.711 11.62 2.527 4.132 2.343 8.454 6.196 13.17 1.78 2.179 3.78 6.038 3.57 8.88-.34 4.598-.97 9.934.217 13.932 1.088 3.664 3.902 6.08 5.637 8.375 3.575 4.728 14.87 5.044 17.07 2.549-4.163-5.45-4.967-11.517-2.234-18.237 3.327 5.71 4.46 5.962 7.528 7.527 3.931 2.006 8.69 2.368 13.938.728L404.226 420.33c7.387 14.026 4.176 27.08 6.728 38.428 1.386 6.164 2.876 11.613 5.432 12.578 4.11 7.19 8.22 8.843 12.33 11.555 1.929.735 3.252 3.991 3.607 6.876.346 2.807-.216 5.237-2.803 6.452-4.04 11.037-9.15 22.743-10.496 32.095-.707 3.808 1.482 7.668-.761 11.004.995 1.998 2.3 3.068 3.654 3.99 2.996 1.866 6.689 2.685 8.74 5.967l2.17-.236c1.365 5.91 1.438 11.127.137 16.924-1.953 8.704-7.412 17.51-11.814 22.28-2.697 2.043-6.3 7.4-13.088 2.705l-4.034-5.116c-2.352-3.86-3.037-7.386-4.2-11.008-3.662-3.516-5.973-7.788-8.802-11.542-1.582-2.1-3.747-3.664-5.382-5.748-.91-2.507.322-7.547-.599-11.374.986-11.45 6.053-23.642 10.914-35.797-1.876-2.449-3.586-6.058-5.793-6.184-2.36-.66-3.668-1.76-6.485-1.693-3.751.088-9.906 1.246-13.486.819-9.277-1.106-16.712-3.213-19.644-9.38l-33.275 7.574c-2.953 4.401-5.946 8.813-9.904 13.466 3.721 3.426 6.925 6.564 9.019 9.086 3.606-1.037 6.312-3.199 9.237-5.087 1.75-.738 3.548-2.463 5.126.22l9.604 7.285c4.052 4.236 8.451 8.55 8.03 11.793-3.932 6.204-9.418 10.543-15.913 13.671-5.711 1.527-9.394 3.46-13.968 5.215-2.204 1.564-6.264 3.318-9.592-1.68-5.84-7.023-13.489-17.677-16.637-19.731-2.377-2.283-5.687-2.655-8.416-4.524-3.156-2.162-5.536-6.052-4.804-12.783-.188-5.033-.63-10.067.906-15.1-.466-1.82-2.519-4.908-4.19-7.692l-40.889-71.655c-22.827-8.672-49.19-6.766-65.443-39.39-2.49-.335-4.545-.72-5.264-1.252-5.395.4-9.36.32-13.245.213-.64 4.125-2.576 7.098-5.525 9.17.89 1.31.694 3.835 1.355 5.629.888 2.41 2.626 4.116 3.997 5.67 1.434 1.626 3.907 1.01 6.135 1.696 2.902-1.234 8.664-1.752 14.587-2.23 2.117 1.001 3.774 2.64 5.563 3.756 5.099 3.18 9.208 6.226 12.07 10.18 3.624 5.005 5.715 10.54 6.927 16.379-3.182 3.061-8.479 6.402-13.095 8.205-6.002 2.344-12.244 1.537-18.673 2.412-1.969.268-4.803.934-6.085 2.434-7.548 5.605-15.277 4.929-23.188-2.17-7.034-5.204-10.354-11.697-9.287-20.865-4.126-12.523-8.858-24.312-19.77-28.621-5.357-4.526-9.242-9.707-4.913-18.538 1.57-11.675 6.296-21.8 29.028-23.074l21.13-8.373c-4.891-20.237 7.304-49.132 19.587-62.69-.01-4.095.844-8.469 1.184-12.742.099-1.249-.22-2.365-.153-3.617.07-1.315.694-2.887.612-4.162-.175-2.711-1.62-4.457-2.468-7.318-2.124-1.366-3.702-3.934-5.193-6.693-1.21-1.96-2.923-3.096-2.82-7.204-5.968 4.984-9.869 4.453-13.705 3.753-2.218 7.094-3.886 13.637-5.015 19.642 1.769 5.948 1.65 9.99.154 15.938-5.692 8.382-30.567 18.58-41.562 2.46-1.429-.47-3.378-3.161-5.146-6.154-2.193-3.712-3.959-8.033-2.373-10.88z" color="#000" fill="#f3f8f4"/><path d="M380.924 399.606c-30.72.003-55.623 25.259-55.623 56.405 0 1.284.043 2.553.126 3.815l-10.14-.935 12.81 40.153 13.566-3.091 8.893-2.021c.088.185.181.369.278.547.015.029.035.056.05.084.07.127.137.256.21.38l.127.201c.072.114.144.227.22.337.045.069.095.135.142.202l.06.085c.071.1.143.197.218.294.016.02.035.039.05.06.044.055.091.105.135.16.063.077.12.16.186.235l.017.017c.133.155.27.306.412.455.087.09.172.18.261.269a12.956 12.956 0 00.623.573l.017.016.118.101c.117.098.242.192.362.287.127.099.257.199.388.294.022.017.044.035.067.051.07.05.14.103.21.152.113.078.23.151.346.227l.05.034a16 16 0 00.514.32c.071.042.138.084.21.126.118.068.234.136.354.202.357.196.724.379 1.103.556l.093.042c.196.09.396.184.598.27.064.027.13.049.194.075l.185.076c.297.12.6.234.91.345l.042.017c.15.054.302.108.454.16.132.045.263.092.396.135.173.056.346.106.522.16.095.029.191.056.287.084.196.058.397.113.597.168a39.705 39.705 0 001.305.337c.15.036.304.067.456.101.158.036.32.075.48.11.456.098.918.19 1.389.278.113.021.223.046.337.067v-.008c1.493.27 3.054.497 4.674.69 3.58.427 9.731-.728 13.482-.817 2.817-.066 4.124 1.032 6.484 1.693 2.208.126 3.918 3.733 5.794 6.181-4.861 12.155-9.928 24.35-10.914 35.798.922 3.827-.312 8.87.598 11.377 1.635 2.085 3.8 3.644 5.381 5.744 2.83 3.754 5.147 8.029 8.81 11.545 1.161 3.622 1.84 7.147 4.193 11.007l4.034 5.12c6.787 4.695 10.39-.669 13.086-2.712 2.876-3.116 6.21-7.949 8.716-13.356l-28.953-21.895c-.728-13.182-3.777-25.43 5.238-42.51-2.453-18.687-9.153-19.642-18.265-25.011-2.493-1.469-5.181-3.34-7.916-5.432 2.28.03 4.507-1.032 6.83-1.591 5.3-4.49 9.708-9.614 13.743-15.007 3.434-5.584-1.967-14.715 4.69-19.782l3.1-1.743c.228-1.131.554-2.054.96-2.813-.501-6-1.644-12.281-5.062-18.77l-20.337-20.641a55.772 55.772 0 00-2.973-.084z" opacity=".155" color="#000"/><path d="M270.849 454.445v32.556l4.926 8.64c1.671 2.784 3.727 5.869 4.194 7.689-1.537 5.033-1.098 10.066-.91 15.099-.733 6.731 1.653 10.622 4.809 12.784 2.73 1.87 6.035 2.247 8.413 4.53 3.148 2.055 10.801 12.709 16.64 19.731 3.328 4.999 7.388 3.24 9.592 1.676 4.574-1.755 8.25-3.686 13.962-5.213 6.496-3.128 11.985-7.471 15.917-13.676.42-3.243-3.975-7.553-8.026-11.79l-9.608-7.284c-1.578-2.683-3.38-.957-5.129-.219-2.925 1.888-5.632 4.05-9.238 5.086-2.094-2.52-5.297-5.66-9.02-9.086 3.96-4.653 6.96-9.064 9.913-13.466l33.272-7.57z" color="#000" fill="#c9c2c1"/><path d="M325.02 74.014c14.264-.19 54.336 35.14 62.064 63.7l-66.866 11.956L293.464 136l3.244-18.839c5.227-19.2 23.467-41.661 28.312-43.146z" color="#000" fill="#7b7c77"/><path d="M298.836 172.534l15.208-27.171 27.242 1.32 24.821-4.754 8.354 54.963c1.792 13.412 6.739 27.495 6.74 40.724 0 9.04-2.373 17.661-7.536 25.997-5.11 6.602-9.76 10.468-13.7 16-4.905 6.883-7.793 14.398-7.689 22.66 1.318 6.12 2.667 11.154 5.258 16.154 3.393 6.548 5.388 12.925 6.277 19.772l-61.657-41.912c1.022-3.985 4.392-7.266 7.1-10.746-.282-2.626-.614-5.153-.339-8.386.21-2.453.884-5.456 1.53-8.386-12.931-2.603-26.545-4.238-39.52-4.864L259.687 274.5c-2.367 1.776-4.494 3.128-6.861 3.412-1.876.225-3.992-.983-5.867-2.213-2.767-1.631-5.534-2.407-8.3-2.958-2.204 1.342-4.625 2.521-6.487 1.627-2.26-1.085-4.96-3.188-5.953-7.079 2.962-6.855 6.647-13.59 10.695-20.264-1.757-2.62-2.815-3.614-2.71-5.624.755-3.059 5.586-5.682 9.227-5.838 4.68-.2 14.424 2.18 22.134 4.913 24.017-4.066 45.87-6.778 72.463-12.454 3.067-1.93 6.273-3.16 9.585-6.566 4.775-4.911-1.512-7.956-2.964-11.457-9.45-.821-20.05 1.992-27.921-3.762-9.269-6.774-15.058-19.622-17.89-33.696z" color="#000" fill="#e9dbd8"/><path d="M330.493 152.641c17.815-4.734 34.319-11.305 56.985-9.25l1.696 3.977c20.298 4.21 35.25 6.782 44.583 15.377 3.23 2.975 3.309 9.467 3.418 14.044 7.227 4.482 13.878 11.867 17.235 19.394 2.476 5.55.684 13.776-.533 19.979 3.882 4.741 10.205 7.462 12.758 13.722 2.206 5.41.914 14.048.982 21.9 13.428 7.906 21.473 19.457 19.027 38.116 13.948 4.983 24.314 13.415 24.48 31.67 12.785 4.566 15.769 13.729 17.08 23.675 9.356 4.946 16.357 9.534 19.213 15.76 3.102 6.765 1.559 15.265-.713 23.088 6.116 8.688 10.807 17.495 4.046 27.258.34 5.517 2.446 12.665 1.62 17.508-.657 3.852-3.82 5.645-6.531 8.308 1.273 4.97 2.424 12.12.385 17.09-2.021 4.93-5.572 8.362-12.63 12.61 1.158 7.737-2.542 14.971-6.48 18.858-3.778 3.729-11.092 2.489-16.884 3.69-2.841 6.208-6.48 9.968-10.783 11.694-4.421 1.772-8.857.877-15.503-.559-2.575 3.387-7.873 6.002-11.809 5.287-3.707-.674-7.959-2.987-11.122-9.822-14.609.849-16.03-11.762-16.124-21.037-4.995-.843-8.303-5.979-9.821-10.994-1.502-4.96-1.254-11.268.844-18.997-16.072-1.309-17.847-45.335 13.878-60.31-8.878 5.784-13.4 12.44-11.4 20.4 5.06-22.938 36.27-28.745 52.3-9.817-13.115-6.97-28.992-2.828-33.886 14.006 7.157-4.46 16.403-2.494 20.379-1.357-5.215-.81-9.787.5-11.743 2.65-4.17 4.585-1.722 11.89-.901 17.445 1.488 10.078-7.093 17.927-18.97 16.82 3.22 9.422 10.936 10.512 14.272 15.921 1.761 2.854 2.606 5.773 1.71 8.817 7.465 2.208 11.627 5.518 11.473 10.266 5.674 1.341 12.317 1.843 12.788 7.694 2.224-1.238 4.583-2.524 6.807-4.102 3.936-2.792 7.735-5.626 11.671-4.501 1.417-5.938 2.325-10.644 5.43-13.582 2.674-2.53 6.17-4.05 10.128-5.003-1.87-5.042-1.832-11.957-.27-15.945 1.19-3.04 4.297-4.397 8.438-5.191-5.36-8.696-1.748-17.273 3.129-23.954-9.858-6.708-13.191-21.854-4.736-32.782-6.414-3.66-11.781-6.549-15.562-10.571-3.781-4.025-5.975-9.183-7.127-13.57-18.61-4.137-27.89-12.564-28.354-25.048-22.87-1.551-30.996-13.358-30.287-31.311-20.778-4.64-32.047-17.11-35.375-36.118-9.94-4.942-20.423-7.047-27.236-28.317-1.88-10.02-4.857-24.429-7.728-38.412-30.62-.698-45.183-20.322-44.238-46.464z" color="#000" fill="#ebe1c7"/><path d="M299.704 71.428l3.513 3.89c-11.681 31.278-5.542 51.626 2.025 58.76 10.373 9.779 23.661 10.928 39.299 9.642 12.096-.996 27.107-3.334 44.202-6.419l1.631 6.378c-27.54 3.418-68.07 7.103-86.147 22.88-6.349 5.543-9.175 22.263-.434 33.95l-3.818 3.486c-29.683-40.952-18.875-94.525-.272-132.568z" color="#000" fill="#faf8f6"/><path d="M357.749 148.319l29.333-2.828 2.046 3.504-9.707 1.108 4.54 5.915-13.896 1.284c6.099 15.936 2.743 22.388-2.994 26.453-6.531.542-15.944-2.462-19.94-11.978z" opacity=".192" color="#000"/><path d="M367.353 7.488c12.96 5.647 19.106 31.918 16.925 48.892 5.38-8.348 8.596-18.861 11.173-30.014 3.266 3.724 4.745 20.933 4.017 31.45-.553 7.977-1.497 16.076-7.111 24.022 6.274-5.348 13.721-10.528 17.674-16.207 2.167 4.123-.982 11.388-3.564 16.712-3.181 6.56-8.558 12.72-13.819 18.92 6.993-.729 13.987-3.094 20.98-5.589-1.326 5.84-4.646 9.6-9.791 13.854-4.486 3.71-10.653 7.77-20.437 9.162 2.523 2.442 5.712 4.198 10.146 5.645-3.91 3.411-14.356 8.275-19.826 5.28 2.488 3.904 4.932 7.586 7.062 9.7-3.109 2.114-6.6 3.911-10.796 5.12.683 2.914 2.18 4.897 4.13 6.362-4.034 1.469-8.17 2.958-13.1 4.606 4.407 2.522 7.732 9.618 8.19 14.882.292 3.373-2.523 8.337-4.709 8.98-2.53.257-9.294-.813-13.602-3.294-7.681-5.624-9.769-14.605-13.986-22.308.841-12.759 7.802-19.856 14.356-30.33 4.16-6.647 7.637-16.782 10.94-23.772 11.461-28.533 18.057-60.738 5.148-92.073z" color="#000" fill="#fefffd"/><path d="M209.036 356.867c-6.71 16.511-24.134 19.299-40.069 16.337-10.088 3.933-20.177-.243-30.265-3.183 4.703 11.947-.83 18.777-6.122 25.727 4.782 4.502 6.775 10.246 5.027 17.65 15.319-2.792 29.519-9.488 48.954 2.123l1.516.53c-2.785-3.325-6.521-6.028-11.032-8.842-1.79-1.115-3.45-2.754-5.567-3.756-5.923.479-11.683.998-14.585 2.232-2.229-.687-4.697-.076-6.131-1.701-1.37-1.554-3.112-3.258-4-5.668-.661-1.793-.465-4.324-1.356-5.633 2.95-2.073 4.884-5.038 5.524-9.163 3.885.107 7.852.182 13.247-.219.719.533 2.772.92 5.263 1.255 16.252 32.623 42.613 30.715 65.44 39.387l6.098 10.687h.008v-62.36l-31.284 10.99c4.19-8.247 3.347-17.122-.665-26.393z" opacity=".155" color="#000"/><path d="M287.167 292.962c-.091-1.893-.159-3.641.803-4.28 1.136-.756 3.466-.207 5.405-.007 6.5 3.285 13.032 6.556 17.941 10.548 15.637 11.891 34.003 23.782 52.09 35.671 9.157 2.605 16.677 5.21 23.114 7.813.742 1.788 1.909 2.726 3.02 3.775l.715 1.934c5.556 6.95 11.637 13.236 17.737 19.099 4.974 4.78 9.8 9.473 15.686 12.427 3.446 2.08 3.006 3.441 3.135 4.907 2.197 3.447 2.174 7.047.653 10.75l-1.68-2.477c-3.41 4.992-6.497 9.984-8.867 14.976-1.775 3.738-2.046 7.61-4.473 11.212-6.784 5.452-15.992-.302-17.967 9.503l-3.102 1.741c-6.658 5.067-1.253 14.201-4.688 19.785-4.035 5.393-8.442 10.52-13.743 15.01-3.95.951-7.637 3.342-11.755-.631-4.472 1.545-14.642 1.286-19.72 5.475.473 4.285 3.033 6.334 6.02 7.925 3.591 1.948 4.892 4.768 4.675 8.167-1.407 15.145-13.207 16.775-23.776 18.16-2.615 1.205-5.204.862-7.782-.245-1.698-.73-3.294-2.128-4.985-3.298-2.886-1.996-5.862-3.97-8.756-5.485-7.741-4.21-12.84-8.172-24.37-2.846-7.132 4.944-12.718 11.637-9.364 19.662 4.262 1.467 2.206 6.97.084 12.517-5.002 13.052-24.303 19.95-31.488 21.576-9.574 2.216-21.694-8.617-33.195-16.273-5.339 8.293-7.092 16.587-8.932 24.881-5.517-7.004-11.078-15.74-5.828-23.609 11.516-20.98 24.14-41.327 30.829-65.066.112-1.291.584-2.941 1.603-5.139 7.888-27.298 13.851-58.307 11.956-89.02-1.158-5.6-2.835-11.012-2.108-17.298-.474-1.29-.569-2.05-.388-3.338.355-2.535 1.638-5.6 2.234-8.135-.234-3.024 2.07-5.056 4.748-6.94 6.351-4.141 10.107-8.737 16.406-13.893 2.682-2.923 5.248-3.418 7.804-3.691-1.754-4.709.085-8.9 5.083-10.678 2.375-1 4.57-1.168 6.223 1.168 1.53-2.186 1.722-5.96 3.354-7.96.936-1.148 2.714-.151 4.333-1.514-.696-2.003.701-4.53 1.315-6.86z" color="#000" fill="#f2e9e4"/><path d="M365.243 5.648c-.15 0 .44 1.91 1.314 4.244 3.517 9.404 5.278 16.965 6.181 26.561.415 4.407.173 16.556-.421 21.205-1.646 12.875-4.761 24.873-10.122 38.972-.262.69-.303.665-3.428-2.366-7.893-7.658-16.556-14.164-23.647-17.76-3.522-1.787-5.687-2.549-8.42-2.965-1.898-.289-1.999-.274-3.184.421-3.652 2.14-10.748 10.436-16.472 19.268-3.332 5.14-4.773 7.678-7.125 12.53l-1.827 3.773-.008-2.02c-.036-7.335 1.908-17.71 5.094-27.167l1.575-4.657-2.695-2.972c-1.483-1.632-2.726-2.925-2.762-2.88-.035.044-1.044 2.206-2.24 4.8-8.762 19.01-13.808 36.503-16.129 55.92-.575 4.808-.802 18.104-.396 23.2.456 5.725 1.796 14.539 2.594 17.086.07.223-.958-.634-2.282-1.903s-3.9-3.32-5.727-4.556c-5.967-4.038-8.762-6.25-9.271-7.351-.63-1.363-2.94-3.504-4.556-4.22-1.238-.547-5.134-1.372-6.468-1.372-.546 0-.614-.169-.774-1.895-.208-2.238-1.485-6.389-2.358-7.663-.866-1.263-1.833-1.759-3.832-1.945-3.523-.33-4.267.192-4.766 3.326-.162 1.013-.393 1.941-.514 2.063-.122.123-23.172-14.234-51.218-31.9-28.047-17.666-51.882-32.527-52.968-33.028-3.09-1.427-5.288-1.825-10.09-1.828-2.297 0-4.622.086-5.161.194l-.977.194.606 2.35c1.123 4.338 3.357 9.057 5.078 10.737.473.46 17.412 12.937 37.644 27.724 20.231 14.785 37.02 27.107 37.315 27.384.52.497.389.514-6.519.514-9.136 0-12.101-.401-16.471-2.215l-1.971-.817 1.566-1.06c1.927-1.302 4.64-2.704 6.889-3.563.931-.356 2.04-.784 2.467-.952l.775-.303-2.442-1.575c-3.225-2.067-5.003-2.581-8.809-2.56-4.448.026-9.66 1.283-16.708 4.026a298.728 298.728 0 01-6.568 2.442l-3.327 1.187 1.845-2.054 1.844-2.064-5.524.144c-7.596.196-11.674 1.084-16.405 3.57-4.188 2.2-6.796 5.233-11.487 13.34-3.156 5.454-4.565 7.42-7.326 10.248-1.38 1.414-3.017 3.341-3.646 4.286-1.126 1.69-1.177 1.73-3.032 2.207-1.038.266-3.26.943-4.935 1.507l-3.04 1.028 1.903 1.448c1.048.796 1.868 1.477 1.828 1.516-.04.039-.824.621-1.743 1.297-2.24 1.645-7.116 6.005-12.177 10.88l-4.152 4 .615 1.07.623 1.077-1.002 2.493c-1.403 3.506-1.863 5.887-1.676 8.683.313 4.69 2.11 8.15 6.333 12.244 2.13 2.066 2.301 2.159 3.14 1.609.624-.409.731-.417 1.154-.034.257.232 1.344.859 2.417 1.39 1.074.53 1.954 1.125 1.954 1.322 0 .918-6.244 42.181-6.501 42.965-.37 1.128-.355 3.182.034 5.053.618 2.981 4.31 9.266 6.855 11.672.778.736 2 2.022 2.711 2.855 4.329 5.067 11.082 7.495 19.05 6.855 7.976-.641 16.11-4.2 21.111-9.238l2.173-2.181.522-2.56c.71-3.456.72-8.97.017-12.06-.483-2.122-.489-2.32-.05-4.58.522-2.697 2.266-9.58 3.309-13.07l.707-2.358c4.01 0 5.723-.547 9.828-1.777 1.035-.229 1.737-.918 1.794-.918.057 0 .182.354.278.791.096.438.667 1.56 1.271 2.493.604.934 1.738 2.73 2.518 3.992.78 1.26 2.042 2.897 2.796 3.638.754.74 1.373 1.443 1.373 1.566s.354 1.04.791 2.038c1.153 2.626 1.428 4.08 1.061 5.625-.167.704-.289 2.385-.27 3.74s-.207 4.567-.504 7.14c-.298 2.574-.54 5.272-.54 5.996 0 1.193-.142 1.486-1.456 3.1-10.035 12.318-17.507 30.48-19.066 46.35-.345 3.517-.169 10.372.329 12.767.177.855.277 1.591.219 1.633-.059.042-4.614 1.856-10.131 4.034-7.062 2.788-10.36 3.967-11.125 3.967-.598 0-2.33.185-3.848.412-11.518 1.721-18.12 5.71-21.836 13.205-1.19 2.4-1.695 3.97-2.476 7.722-.348 1.672-.958 3.897-1.356 4.935-1.333 3.475-1.203 7.405.345 10.493 1.527 3.045 5.002 6.749 7.234 7.705 3.407 1.46 7.388 5.005 9.828 8.75 2.601 3.992 4.28 7.568 6.703 14.266 1.349 3.73 1.36 3.789 1.364 7.006.01 7.59 2.506 12.639 8.902 18.013 6.166 5.182 9.907 6.931 14.855 6.931 3.787 0 7.469-1.331 10.855-3.916l1.229-.934v1.414c.007 2.03.671 4.87 1.6 6.855 1.095 2.34 3.17 4.43 7.706 7.765 3.669 2.697 3.865 2.8 6.046 3.242 5.293 1.072 10.017-.675 13.289-4.927.93-1.207 1.582-1.756 2.627-2.206 2.648-1.139 6.132-1.401 11.984-.901 2.075.177 6.865.354 10.644.396l6.872.084 1.373-.766c.758-.42 2-1.314 2.762-1.98.76-.665 1.38-1.047 1.38-.85-.002.606-1.557 5.987-2.096 7.25-.28.658-.598 1.682-.707 2.274-.351 1.898-2.54 8.641-4.329 13.348-4.59 12.08-9.452 21.867-22.367 44.995-2.938 5.262-5.565 10.196-5.836 10.965-1.505 4.277-.523 9.415 2.931 15.318 1.615 2.76 6.008 8.586 6.265 8.312.122-.13.61-1.994 1.087-4.143 1.783-8.022 3.66-13.84 5.87-18.199 1.852-3.656 1.065-3.72 7.25.624 12.148 8.532 17.063 11.122 22.628 11.95 3.174.471 7.301-.415 13.567-2.923 11.009-4.406 18.786-10.257 22.535-16.96.552-.988 1.52-3.288 2.156-5.112 2.211-6.344 2.176-8.625-.186-10.922-1.145-1.115-1.31-1.412-1.482-2.788-.106-.848-.123-2.19-.042-2.98.158-1.529 1.365-4.31 2.442-5.635l.649-.8.926 1.878.927 1.878-.388 1.482c-.616 2.348-.782 17.055-.219 19.47.597 2.56 1.875 4.92 3.529 6.535 1.33 1.299 2.299 1.862 7.427 4.27 2.888 1.355 5.276 3.927 15.268 16.48 2.831 3.557 5.488 6.71 5.912 7.015 2.437 1.754 5.29 1.794 8.32.118 1.802-.997 8.709-3.752 12.447-4.969 3.267-1.063 7.303-3.297 10.366-5.734 3.919-3.119 8.582-8.71 8.582-10.291 0-3.534-5.232-9.821-13.197-15.866-2.598-1.972-4.878-3.786-5.06-4.025-.623-.813-1.822-1.412-2.814-1.415-1.352-.003-2.837.679-6.054 2.787-1.505.986-3.406 2.1-4.228 2.476l-1.5.69-3.84-3.814c-2.776-2.753-3.77-3.897-3.586-4.143.14-.188 1.352-1.789 2.686-3.554 1.334-1.766 3.009-4.076 3.73-5.137l1.314-1.928 1.65.909c2.817 1.547 6.064 2.117 8.262 1.457.518-.156 2.762-.586 4.985-.96 8.466-1.424 12.615-3.132 16.127-6.636l2.114-2.114 1.794 1.693c2.903 2.738 6.777 4.462 12.64 5.617 4.328.852 7.645.943 14.156.387l5.718-.488 2.981.994c2.284.76 3.18 1.196 3.798 1.86 1.203 1.293 2.788 3.588 2.788 4.034 0 .215-.495 1.588-1.095 3.057-3.339 8.179-6.424 17.196-7.815 22.856-1.377 5.601-1.588 7.909-1.381 15.031l.185 6.375 2.695 2.788c1.625 1.679 3.946 4.553 5.844 7.234 1.732 2.445 3.77 5.128 4.522 5.97 1.22 1.366 1.492 1.92 2.535 5.12 1.517 4.656 2.685 6.933 5.23 10.182 2.082 2.658 3.18 3.529 5.634 4.463.61.232 1.74.36 2.795.32 4.044-.157 8.307-3.564 12.919-10.325 4.288-6.286 7.21-13.176 8.387-19.773.518-2.9.441-10.034-.143-13.07-.684-3.557-.54-3.32-1.911-3.166-1.12.126-1.28.055-2.569-1.103-.756-.68-2.835-2.001-4.615-2.93-3.664-1.915-5.778-3.704-5.482-4.64.647-2.051.743-3.318.463-6.182-.239-2.44-.223-3.425.101-5.289.918-5.283 2.508-10.32 7.125-22.636 2.585-6.896 2.857-7.494 3.932-8.505 1.6-1.504 2.057-2.73 2.022-5.415-.036-2.726-1-5.986-2.207-7.445-.461-.557-2.42-2.044-4.354-3.31-4.235-2.771-6.14-4.547-8.303-7.705-.898-1.312-1.871-2.508-2.156-2.66-1.263-.677-2.974-5.146-4.168-10.906-.82-3.953-1.12-6.765-1.49-14.013-.475-9.25-1.089-13.332-2.822-18.687-.544-1.68-.95-3.09-.901-3.124.049-.035.638-.213 1.305-.405 1.679-.482 4.056-1.725 4.758-2.484.921-.995 1.88-3.126 3.327-7.369 1.354-3.971 2.153-5.749 4.1-9.162 1.62-2.836 4.897-7.95 5.096-7.95.096 0 .568.61 1.052 1.365 1 1.558.941 1.614 2.021-1.5 1.265-3.644 1.148-8.036-.269-10.248-.192-.3-.437-1.088-.547-1.752-.39-2.348-1.558-3.637-4.986-5.516-2.422-1.327-6.16-4.147-9.432-7.115-9.587-8.7-21.807-21.838-22.602-24.296-.171-.528-.806-1.437-1.407-2.02-.6-.584-1.341-1.51-1.65-2.056-.515-.911-.864-1.112-4.228-2.391-3.935-1.497-12.215-4.302-16.606-5.626l-2.695-.816-.649-2.493c-.992-3.864-2.34-7.493-4.53-12.202-2.553-5.489-3.525-8.18-4.783-13.205-1.007-4.023-1.013-4.056-.725-6.872.5-4.884 1.97-9.543 4.413-14.013 2.079-3.805 3.955-6.256 9.39-12.261 6.494-7.176 8.05-9.299 10.24-13.97 2.005-4.279 4.254-12.142 4.32-15.1.044-1.974.378-1.894 1.289.311 2.905 7.038 7.426 12.843 12.867 16.514 1.862 1.257 9.008 4.963 11.344 5.887.76.301.9.526 1.17 1.87 1.917 9.541 7.123 18.932 13.483 24.312 5.48 4.636 12.642 8.226 20.362 10.206l1.12.287.025 2.762c.054 6.802 2.248 13.453 5.996 18.164 4.067 5.111 11.54 8.81 20.312 10.055 1.186.168 2.54.36 3.007.43.868.13 1.17.527 1.17 1.532 0 2.592 2.61 8.461 5.078 11.411 3.938 4.705 10.722 8.523 19.723 11.1l3.613 1.035.48 1.567c.632 2.077 2.602 6.203 3.89 8.151 1.495 2.26 4.728 5.551 7.226 7.352 2.06 1.486 7.402 4.83 9.196 5.752l.842.43-1.381 2.77c-2.04 4.089-2.45 5.95-2.45 10.998 0 3.53.095 4.532.622 6.467 1.152 4.223 4.172 9.213 6.956 11.495l1.17.96-.69 1.112c-1.39 2.236-3.323 6.562-3.865 8.649-.997 3.837-.684 8.599.783 11.916l.505 1.154-1.12.303c-2.007.533-4.254 1.914-5.33 3.275-1.768 2.237-2.554 6.063-2.316 11.26.085 1.852.337 4.004.556 4.791.365 1.313.355 1.45-.06 1.575-1.614.487-4.213 1.635-5.768 2.552-4.12 2.427-6.156 5.528-7.798 11.865l-.884 3.402-1.676.135c-2.203.177-4.315 1.18-9.087 4.328-2.092 1.382-4.237 2.777-4.775 3.1l-.976.589-.337-.809c-.478-1.152-2.205-2.746-3.933-3.62-.814-.413-2.976-1.115-4.8-1.567l-3.318-.825-.32-1.238c-.863-3.348-4.257-6.372-9.12-8.118l-1.684-.607v-1.532c0-2.89-1.459-6.424-3.664-8.877-.708-.787-2.454-2.31-3.873-3.385-1.42-1.075-3.293-2.611-4.17-3.41-1.524-1.391-3.654-4.282-3.654-4.96 0-.212.767-.376 2.223-.48 4.496-.323 8.313-2.05 11.394-5.154 4.28-4.31 5.208-8.42 3.765-16.649-1.505-8.576-.588-12.45 3.368-14.198 1.685-.744 4.665-1.184 6.644-.977 1.815.19 1.722.261 2.106-1.65l.168-.843-1.97-.446c-5.89-1.341-10.934-1.252-15.95.286-.42.129-.303-.226.631-1.962 3.48-6.467 8.605-10.031 15.655-10.889 3.979-.483 9.28.465 12.96 2.325l1.256.631.732-1.06.741-1.07-.724-.943c-.98-1.286-4.178-4.003-6.4-5.44-6.167-3.99-14.203-6.003-21.011-5.256-8.396.922-15.538 4.327-19.975 9.516-.68.794-1.493 1.752-1.81 2.122l-.582.674.488-.943c.696-1.325 4.72-5.327 7.015-6.981l1.937-1.398-.547-.935c-.303-.513-.666-1.003-.8-1.086-.365-.226-4.115 1.856-6.788 3.764-9.464 6.758-15.805 16.746-18.249 28.732-.723 3.547-1.004 10.228-.564 13.516 1.05 7.845 4.288 13.565 8.842 15.63 1.523.69 1.73.873 1.6 1.39-1.28 5.101-1.516 13.008-.497 16.758 1.44 5.295 4.76 10.011 8.253 11.73l1.668.818.311 3.427c.379 4.15 1.345 8.1 2.535 10.367 1.185 2.256 3.958 4.997 6.021 5.962 1.878.878 4.54 1.5 6.476 1.507l1.356.009 1.044 1.819c1.543 2.69 4.475 5.5 6.973 6.686 2.902 1.378 4.982 1.685 7.587 1.12 2.575-.559 4.956-1.723 7.125-3.478l1.684-1.356 3.545.59c8.303 1.388 12.631.362 17.357-4.127 1.99-1.89 4.186-4.88 5.069-6.88.558-1.265.48-1.238 6.055-1.659 6.719-.507 9.015-1.216 11.487-3.553 4.12-3.898 6.83-10.22 6.922-16.135l.05-2.847 2.771-1.87c6.884-4.628 10.403-10.046 10.763-16.564.149-2.712-.212-6.66-.893-9.668l-.396-1.734 2.282-2.123c1.75-1.622 2.496-2.535 3.175-3.915.88-1.791.89-1.836.884-5.718-.004-2.883-.21-5.233-.766-8.944l-.75-5.036 1.238-2.51c1.592-3.223 2.14-5.759 1.937-8.976-.084-1.334-.344-3.153-.58-4.043-.592-2.216-2.982-7.142-4.936-10.164l-1.625-2.501.792-3.057c2.21-8.552 1.97-15.725-.7-20.893-2.421-4.69-7.156-8.862-15.217-13.399-1.556-.876-2.992-1.694-3.183-1.819-.19-.124-.634-1.67-.993-3.435-1.012-4.97-2.434-8.62-4.54-11.69-2.074-3.024-6.224-6.34-9.996-7.983-2-.87-1.924-.73-2.164-4.1-.547-7.7-4.262-15.354-9.794-20.178-3.4-2.966-7.335-5.34-11.983-7.225l-2.097-.85-.093-5.913c-.1-6.363-.393-8.252-1.92-12.505-2.524-7.03-7.742-13.278-15.327-18.358l-1.86-1.247-.034-8.994c-.036-9.852-.114-10.466-1.769-13.844-1.172-2.394-3.038-4.526-6.77-7.73-1.837-1.578-3.74-3.29-4.236-3.807l-.91-.944.741-4.27c.916-5.29 1.042-10.563.32-13.296-.633-2.398-2.804-6.624-4.985-9.702-2.205-3.111-7.757-8.737-10.737-10.88l-2.182-1.575-.185-3.006c-.22-3.645-.73-6.195-1.634-8.168-.859-1.877-1.663-2.828-3.89-4.607-6.493-5.187-15.653-8.451-35.016-12.455-8.24-1.704-7.79-1.576-7.942-2.156-.104-.4.086-.525 1.02-.665l1.144-.169-1.103-4.438-1.103-4.43h-1.019c-.697 0-1.01-.126-1.01-.387 0-.21-.43-1.495-.952-2.863-.522-1.368-.916-2.508-.876-2.535.04-.026.644-.264 1.34-.522 2.2-.815 9.14-5.335 8.766-5.71-.057-.056-1.414-.59-3.024-1.187-1.61-.597-3.722-1.53-4.69-2.071-2.013-1.126-2.192-.938 2.13-2.249 4.045-1.226 8.328-3.439 12.043-6.223 5.488-4.114 9.046-8.009 10.855-11.874.768-1.643 2.289-6.385 2.105-6.569-.047-.047-2.39.706-5.204 1.668-4.875 1.666-12.65 3.862-13.676 3.865-.34 0 .329-.995 2.299-3.427 4.169-5.148 6.884-9.108 8.631-12.599 2.754-5.501 4.506-10.991 4.506-14.114 0-1.762-1.135-5.962-1.609-5.962-.115 0-.877.88-1.7 1.954-1.786 2.328-5.601 6.124-8.952 8.91-1.334 1.108-2.45 1.995-2.476 1.97s.353-1.262.85-2.745c1.213-3.62 1.922-7.457 2.417-13.087.65-7.39.465-15.11-.547-22.594-.821-6.072-1.786-9.284-3.68-12.211-.746-1.152-1.396-2.057-1.44-2.013s-.704 2.497-1.466 5.457c-1.92 7.466-2.808 10.489-4.16 14.114-1.11 2.975-2.99 7.31-3.166 7.31-.046 0-.118-1.304-.16-2.897-.156-5.834-.985-11.646-2.493-17.457-2.299-8.855-6.708-17.018-11.192-20.717-1.587-1.31-6.442-4.202-7.048-4.202zm4.926 6.038c.058 0 .187.086.388.227.887.622 3.248 3.441 4.463 5.323 3.853 5.966 6.585 14.453 7.798 24.253.423 3.415.57 11.837.253 14.231l-.169 1.306 1.247.353c1.146.321 1.29.307 1.642-.16.762-1.01 4.148-7.839 5.196-10.476 1.313-3.306 3.578-10.319 4.244-13.145.27-1.15.59-1.995.707-1.878.598.598 1.684 7.766 2.114 13.946 1.044 15.005-1.164 27.802-6.004 34.854l-.8 1.18.96.96.96.95 1.297-1.043c5.84-4.732 10.82-9.01 12.724-10.914l2.266-2.266-.177 1.701c-.323 3.083-2.647 9.059-5.348 13.752-1.982 3.444-5.118 7.677-10.072 13.592l-4.471 5.34 1.162-.16c7.31-.986 10.813-1.749 16.75-3.656 1.902-.61 3.645-1.179 3.865-1.263.345-.132.337-.01-.034.893-1.809 4.4-9.179 11.258-15.663 14.577-3.437 1.76-6.654 2.821-11.142 3.68-1.977.378-3.638.741-3.697.8-.282.282 5.024 4.25 7.31 5.465 1.936 1.03 2.5 1.442 2.24 1.65-.81.654-4.831 2.493-6.947 3.176-1.832.59-2.831.738-4.986.758-2.617.023-2.774-.009-5.23-1.12-1.39-.63-2.567-1.105-2.618-1.053-.101.1 6.266 9.67 7.52 11.301l.758.977-1.701.952c-2.102 1.172-3.487 1.765-6.342 2.712-1.222.405-2.223.827-2.223.934 0 .68 1.303 3.901 2.072 5.112.504.794.88 1.471.834 1.507-.046.037-2.956 1.08-6.476 2.316a217.59 217.59 0 00-3.773 1.365c-2.876-.687-5.843-.757-7.428 1.12-.78 1.15-.964 5.086 1.769 8.471 1.44 1.177 2.75 2.463 5.617 1.053-1.071.248-3.259.367-4.093-.825-1.681-1.667-2.53-4.336-1.996-7.074.417-.723 2.146-2.046 3.554-1.592.182.204.803.684 1.533 1.196.872.612 2.207 1.79 2.964 2.62 2.69 2.944 5.129 9.27 4.8 12.454-.185 1.788-1.421 4.495-2.585 5.66-1.003 1.002-1.724 1.06-5.146.454-5.556-.984-8.382-2.313-11.15-5.255-2.704-2.874-3.958-4.965-7.57-12.606l-3.049-6.442.346-2.257c.987-6.55 2.65-10.104 9.886-21.053 5.537-8.38 6.746-10.7 12.152-23.378 5.88-13.79 8.79-22.223 11.377-32.976 2.35-9.765 3.36-17.458 3.563-27.142.199-9.572-.404-16.087-2.24-24.228-.727-3.222-2.246-8.55-2.948-10.333-.25-.634-.35-.875-.253-.876zm-70.124 62.907l.825.826.826.825-1.272 3.84c-5.58 16.887-6.53 32.14-2.745 44.135 2.14 6.786 5.577 11.399 11.31 15.21 6.464 4.296 13.31 6.243 22.973 6.534 2.705.082 4.912.229 4.91.32-.008.341-1.05 5.208-1.13 5.272-.044.036-1.894.582-4.117 1.212-11.788 3.342-20.641 7.419-26.813 12.346-2.468 1.97-3.858 3.625-4.994 5.945-4.246 8.672-3.71 19.786 1.39 28.692l.74 1.288-.825.826-.817.817-.943-1.306c-27.705-38.43-18.506-86.506-.825-123.465l1.507-3.318zm25.862 1.533c.096 0 .187.01.278.025 7.67 1.33 19.748 9.292 31.216 20.582l3.42 3.368-2.552 5.929c-6.133 14.246-5.931 13.855-11.975 23.04-4.414 6.707-7.079 11.236-7.815 13.272l-.362 1.01-4.463-.041c-4.768-.043-4.735-.046-8.683-.649-6.812-1.04-12.678-3.644-17.516-7.772-4.186-3.573-7.072-9.153-8.447-16.33l-.437-2.29.926-2.56c3.684-10.092 10.843-21.902 18.948-31.26 3.93-4.534 6.024-6.324 7.463-6.323zm-198.817 5.01c.2-.005.415-.002.648 0 2.055.023 5.283.344 6.872.759 1.174.306 2.872.966 3.773 1.465 1.756.973 103.526 65.007 103.725 65.265.066.085-.64 4.59-3.15 8.952-2.508 4.362-6.042 7.165-6.206 7.41-.259.39-6.1-3.804-50.964-36.64-28.451-20.823-51.96-38.062-52.236-38.31-.577-.52-2.888-5.218-3.528-7.166-.353-1.072-.375-1.37-.093-1.567.138-.095.565-.152 1.162-.168zm255.78 50.773c.209-.006.366.022.43.085.302.302 2.064 4.989 1.928 5.128-.059.06-.927.27-1.929.463-2.43.47-2.54.462-3.2-.379-.853-1.087-3.065-4.285-3.065-4.43 0-.069.936-.206 2.088-.303 1.152-.096 2.514-.291 3.023-.437.255-.074.515-.12.725-.127zm-204.544 5.424c1.707-.014 3.24.12 3.992.404l1.07.404-1.879 1.036c-1.03.572-3.437 2.061-5.347 3.301-3.99 2.589-3.987 2.185-.017 4.228 6.157 3.168 7.712 3.434 20.733 3.579l10.51.118 1.836 1.355 1.827 1.365-3.25 1.878c-1.793 1.036-3.218 1.927-3.167 1.979.052.051 2.15.399 4.665.774 2.516.376 6.073 1.051 7.908 1.5l3.335.816 4.27 3.116c2.347 1.713 4.332 3.222 4.412 3.352.08.13-.246.436-.733.682-1.26.637-2.096 1.47-2.096 2.088 0 .294-.465.966-1.028 1.5-1.446 1.37-2.548 2.877-3.486 4.74l-.817 1.609 2.442 2.779c5.701 6.512 10.982 10.29 21.727 16.792 9.002 5.446 13.448 7.919 16.767 11.899 2.349 2.818 5.216 9.866 4.774 10.307-.077.077-1.088-.099-2.248-.395-1.16-.297-2.497-.54-2.973-.54-.796 0-.898.09-1.212 1.213-.188.672-.294 1.262-.236 1.306.057.043.655.396 1.322.783 3.953 2.294 7.014 6.776 8.43 12.329.507 1.989 1.078 5.134.951 5.254-.046.045-1.219.255-2.602.472l-2.518.396-2.442-.783c-10.335-3.324-18.741-4.676-22.45-3.605-4.548 1.313-7.954 4.424-7.934 7.251.007.99.823 2.893 1.777 4.143l.674.884-2.4 4.245c-1.323 2.333-2.67 4.76-2.99 5.39-.319.63-.726 1.145-.91 1.145-.477 0-5.379-3.32-7.604-5.146-5.113-4.196-7.853-6.488-9.07-12.623-.88-4.44-.836-9.923-.488-14.25.167-2.07 1.173-4.793 1.179-7.46.01-4.66-.028-4.979-.876-8.085-.082-.3-.114-.43-.185-.69 1.662-8.11 5.344-15.409-.665-26.586 3.907 11.979.917 17.064-.666 23.554-.279.622-.905 2.204-1.574 3.992-1.541 4.116-2.607 7.767-2.628 9.01-.01.656-.064.63-1.078-.522-1.357-1.543-2.814-4.317-3.343-6.35-.551-2.117-1.385-4.367-.741-10.728.677-6.687.673-8.526-.093-11.31-2.273-8.262-6.927-15.07-13.878-17.878-1.935-.781-4.792-1.425-6.358-1.432h-.126c-.808-4.554-2.604-10.051-7.697-10.248 5.162 2.432 5.707 6.91 6.156 11.436a7.09 7.09 0 00-.06.362c-.994 7.329-5 11.273-5.566 10.914-.075-.004-.58-.944-1.128-2.088-1.896-3.962-4.897-8.286-9.18-10.476-3.673-1.88-6.08-2.574-10.526-3.015-3.195-.317-7.745 1.364-10.905 2.762-1.154.51-2.125-.246-3.301-.59-3.913-1.143-5.97-1.355-13.272-1.33-5.3.018-7.697.133-9.297.446-1.186.232-2.204.38-2.257.329-.053-.052 1.225-1.467 2.838-3.15 3.068-3.202 4.684-5.462 7.756-10.847 5.367-9.409 8.799-12.505 15.798-14.265 2.817-.709 6.14-1.23 7.84-1.23h1.086l-2.282 2.493-2.282 2.492.674 1.011c.371.556.809 1.01.968 1.01.16 0 1.502-.632 2.99-1.397 4.651-2.393 19.48-7.75 24.135-8.725 1.438-.3 3.313-.466 5.02-.48zM387.4 139.69c.229.011.357.063.412.151.238.385.885 3.255.758 3.352-.05.038-2.813.392-6.147.792-3.335.4-6.427.786-6.872.859-.605.098-.402-.079.808-.708.89-.462 2.709-1.488 4.043-2.282 2.01-1.196 2.832-1.52 4.817-1.886 1.125-.208 1.798-.298 2.18-.278zm-141.426 2.99l1.448.033c1.116.032 1.56.172 1.912.606.866 1.07 1.87 4.638 2.03 7.175l.151 2.426-1.76 4.75c-2.054 5.53-3.341 8.195-4.64 9.633-1.49 1.65-4.475 3.022-10.535 4.859-1.499.454-2.847.834-2.998.834-.258 0-2.493-2.772-2.493-3.09 0-.081.118-.144.27-.144s.773-.316 1.38-.7l1.104-.698c6.666-4.476 12.489-15.5 13.297-21.567.082-.258.3-1.285.488-2.29l.346-1.828zm140.593 3.68a.676.676 0 01.202.016c.203.079.598.747.884 1.49l.522 1.356 2.038.43c12.083 2.542 15.573 3.306 19.167 4.202 11.179 2.787 18.478 6.035 22.999 10.232 2.258 2.096 3.018 4.515 3.317 10.61l.169 3.445.025.017c-.44 4.16-.694 8.392-1.945 12.228 2.233-2.594 3.114-6.726 4.21-10.62 6.156 4.436 11.236 10.148 14.207 16 2.46 4.848 2.51 9.426.244 20.75-.047.237-.058.416.009.624-.59 4.686-1.974 12.76-3.276 16.75 2.187-2.54 4.116-9.82 5.398-14.325a108.883 108.883 0 004.539 4.102c4.274 3.62 6.024 6.247 6.838 10.257.398 1.958.44 3.417.312 10.779l-.118 6.838c-.673 5.018-3.624 19.188-2.434 23.25.88-7.004 3.085-15.537 4.455-20.328 4.4 2.764 9.196 7.135 11.697 10.695 2.596 3.695 4.43 8.261 5.221 12.994.373 2.232.438 3.757.312 8.059l-.16 5.314 3.15 1.255c13.463 5.364 19.939 13.488 21.052 26.409.07.811.128 1.555.177 2.19-.289 4.641-.757 15.092 2.94 17.364-1.869-5.096-1.514-10.98-.986-14.822 1.969.717 5.456 2.717 6.99 4.026 2.636 2.25 4.93 5.694 6.139 9.196.726 2.103 1.992 7.724 1.995 8.859a.78.78 0 00.034.21c-.173 3.994.277 9.81 2.03 12.498-.473-4.924-.499-7.294.075-10.855.407.236.87.497 1.44.817 5.86 3.276 8.719 5.289 11.672 8.227 2.171 2.16 2.92 3.118 3.706 4.733 2.522 5.181 2.623 10.88.362 19.798l-.725 2.88-.042-.059-1.204 5.095c.047.959.356 1.767 1.297 2.215-.53-1.738.19-3.189 1.12-4.59l.522.792c2.509 3.84 4.4 7.754 5.087 10.51.992 3.985.357 8.153-1.803 11.74-.25.414-.48.87-.648 1.288-1.877 1.937-4.878 4.474-6.78 5.204-.86.33-1.717-.444-2.02-1.17.251.95-.315 2.902.96 2.601 1.543.017 4.805-2.116 7.747-3.848.152 1.234.375 2.928.64 4.758.952 6.557 1.001 10.664.152 12.261-.488.918-1.833 2.354-4.547 4.85l-1.55 1.424.008.042c-1.693 1.604-4.104 3.205-6.66 4.809 2.818-.47 5.08-1.457 7.14-2.61l.026.1c1.203 5.474 1.375 10.632.446 13.609-1.25 4.004-4.762 8-10.089 11.495l-3.057 2.013.009.117-4.363 2.443 4.53-.37c.371 4.85-1.376 10.408-4.572 14.475-2.746 3.495-3.678 3.806-14.14 4.767-4.29.394-4.214.364-5.17 2.274-3.07 6.13-7.657 10.064-12.388 10.627-2.2.262-5.603-.048-9.566-.867l-.177-.034c-1.7-1.01-3.414-1.971-4.885-3.899.437 1.13.725 2.228 1.87 3.52l-1.305 1.322c-1.693 1.729-3.929 3.032-6.257 3.638-2.101.547-2.882.507-5.011-.219-3.29-1.121-5.829-3.48-7.781-7.234l-.986-1.886.042-.008c-1.662-2.622-2.421-5.77-3.006-9.02-.272 2.736-.4 5.538.438 8.792-6.52-.117-10.443-3.28-12.101-9.768-.632-2.47-1.087-6.2-1.087-8.868v-2.08l-.084-.017c-.37-2.86.296-6.726-.26-9.819-.27 2.714-1.852 6.135-1.71 9.289-1.305-.424-2.194-.99-3.377-2.097-1.755-1.642-3.225-4.154-4.278-7.31-1.48-4.435-1.39-10.131.26-16.901.079-.32.133-.565.194-.834l.102.076c.812-3.134 2.543-6.53 4.227-9.912-2.558 1.896-4.45 4.59-5.98 7.074-18.935-4.182-6.666-42.247 2.443-48.499.187-.206.021.461-.362 1.483-.578 1.54-.696 2.345-.716 4.69-.013 1.556.063 3.163.177 3.57.189.676.326.742 1.49.742h1.272l.522-1.82c.761-2.669 2.653-6.267 4.514-8.58 4.332-5.385 10.699-8.64 18.737-9.584 6.615-.776 15.344 1.503 20.287 5.306.834.641.865.712.27.564-3.612-.897-9.009-.746-12.599.362-6.452 1.992-11.561 6.727-14.442 13.373-1.064 2.454-2.45 6.552-2.274 6.728.066.067 1.206-.48 2.526-1.212 2.486-1.38 5.145-2.266 7.84-2.602l1.559-.194-1.508 1.38c-3.42 3.127-4.035 7.247-2.408 16.086 1.245 6.767.237 10.875-3.487 14.223-3.063 2.754-6.77 3.966-12.168 3.966h-3.453l.539 1.415c1.904 4.976 4.09 7.715 9.381 11.748 1.747 1.331 3.556 2.852 4.017 3.377 2.038 2.32 3.188 5.346 2.922 7.68-.036.314-.058.497-.092.808-3.963-1.53-7.293-3.68-10.679-6.257 3.384 4.747 7.48 6.736 10.982 8.312.198.113.482.242.876.396.157.07.325.14.48.21l.008-.025c.172.064.35.128.556.202 3.023 1.09 4.467 1.816 6.231 3.133 1.43 1.067 2.457 2.722 2.72 4.278-5.763-1.328-9.754-.743-14.088-1.49 4.247 2.291 9.976 1.872 14.518 3.486.455.354 1.492.58 3.824 1.095 6.21 1.373 8.53 2.925 8.74 5.945a6.5 6.5 0 01-2.997.488c.426.605 2.655 1.672 4.379.7l.05-.026.017-.008c.551-.264 1.314-.685 2.367-1.297 1.838-1.07 4.616-2.814 6.172-3.874 4.472-3.047 5.594-3.512 8.455-3.512h.413c.174 3.555.165 6.749-.337 8.952 1.244-1.644 2.021-6.266 2.366-9.12l.826-3.368c1.228-4.98 1.911-6.892 3.099-8.666 1.758-2.627 4.97-4.648 9.566-6.021l.767-.227c1.069 3.248 1.37 6.122 1.734 9.019 1.282-1.93.4-7.579-.168-10.493l-.025.008c-.065-.479-.267-1.158-.548-2.181-.736-2.681-1.002-7.341-.572-10.097.718-4.603 2.185-6.052 7.562-7.352 1.79 2.444 4.485 4.944 8.312 5.718-2.183-1.96-4.491-3.841-5.98-6.265l.093-.025-1.044-1.904c-3.6-6.566-2.8-13.3 2.5-21.078l1.5-2.198-1.423-1.078c-5.608-4.234-8.536-10.202-8.531-17.39.003-4.62 1.164-8.375 3.773-12.202.095-.14.18-.27.27-.404 4.482 1.347 7.034 4.722 5.961 8.219 4.218-4.47-2.748-8.618-5.136-10.375l-.06.135c-.577-.402-1.942-1.227-3.528-2.123-8.038-4.54-12.048-7.707-14.754-11.62-1.428-2.066-3.11-5.578-3.966-8.228 5.36.475 9.494 1.397 14.433 4.648-3.425-5.57-10.288-6.812-15.806-7.326-.5-.25-1.287-.439-2.644-.775-5.484-1.358-12.013-4.13-15.37-6.518-5.786-4.117-8.76-8.956-9.397-15.318 5.558.364 7.946-1.291 13.533.783-4.284-3.529-9.363-2.958-14.914-3.461v.025c-.437-.063-1.027-.114-1.845-.185-12.409-1.084-20.944-6.039-24.716-14.359-1.57-3.461-2.15-6.413-2.299-11.688l-.067-2.476c5.821.61 6.69.804 9.676 3.124-2.022-4.106-5.225-4.21-10.535-5.676l.008.076-1.676-.412a53.02 53.02 0 01-11.352-4.169c-11.473-5.726-18.46-15.258-21.322-29.08 6.05.693 11.896 2.19 17.591 4.304-4.283-3.529-11.675-5.077-18.67-6.88l.034.21-4.808-2.35c-6.747-3.286-9.118-4.82-12.034-7.798-3.549-3.622-5.902-7.45-8.21-13.339-1.143-2.913-1.606-4.932-5.155-22.501a10128.72 10128.72 0 00-3.73-18.41c10.936-2.4 14.94-9.527 28.422-10.694-9.27-.806-18.39 5.722-29.417 8.32-.482-.194-1.273-.261-2.551-.261-3.87 0-10.725-1.295-15.319-2.889-6.231-2.162-12.314-6.177-15.95-10.526-5.971-7.144-8.96-15.324-9.684-26.519l-.185-2.88 1.06-.286a36.63 36.63 0 011.92-.455l.86-.177 2.568 5.356c4.975 10.38 5.95 11.993 9.289 15.352 2.97 2.987 6.836 4.72 12.623 5.66 3.151.51 4.45.482 5.676-.144 2.369-1.208 4.846-5.918 4.868-9.255.025-3.953-2.51-10.104-5.82-14.14-.397-.484-.673-.922-.614-.968s2.838-1.031 6.172-2.19c3.335-1.157 6.117-2.15 6.182-2.206.064-.056-.785-.963-1.887-2.02l-2.004-1.93.809-.201c1.34-.335 11.58-1.525 13.17-1.55zm-132.62 7.705l1.651.185c4.585.508 6.562 1.616 8.118 4.548.6 1.13 3.728 3.63 8.893 7.115 4.163 2.81 7.12 5.352 8.581 7.36.64.88 1.684 1.991 2.316 2.477 1.063.815 1.241 1.142 2.29 4.252 1.614 4.78 2.355 6.572 4.742 11.453 2.274 4.649 4.487 8.428 7.377 12.598l1.828 2.636 1.12-.994c.615-.55 1.93-1.749 2.922-2.66l1.802-1.66-.952-1.322c-1.788-2.493-3.487-6.32-4.227-9.524-.208-.901-.33-1.634-.27-1.634s.754.484 1.541 1.078c.926.699 1.61 1.484 1.937 2.223 2.446 5.527 7.568 12.226 11.647 15.243 3.726 2.755 6.909 3.877 12.43 4.37 1.717.154 3.268.327 3.444.388.809.277 14.083 10.177 13.945 10.4-.229.37-2.9 2.138-5.423 3.587-2.181 1.253-2.31 1.295-10.914 2.998-4.788.948-11.28 2.152-14.417 2.678s-5.744.955-5.794.952c-.44-.027-36.242-41.77-37.466-43.68-1.089-1.702-2.533-3.042-3.899-3.613-.535-.224-2.128-.533-3.537-.69-5.013-.56-9.752-2.11-14.594-4.767-2.385-1.309-2.947-1.737-3.604-2.804-1.484-2.411-.831-5.39 1.82-8.337 1.419-1.58 2.945-4.607 4.597-9.13.677-1.852 1.42-3.9 1.66-4.547l.437-1.179zm-40.782.892c.268-.018.637.158 1.103.523.658.514.683.587.135.404-.149-.05-.614-.17-1.028-.261s-.678-.277-.59-.421a.472.472 0 01.38-.245zm115.765 1.39l.194 2.19c.161 1.763.357 3.411.581 4.977-.623-.192-1.32-.225-2.274.244-.521.414-.516.913-.698 1.415-.147.404-.475.793-.843 1.237-4.253 3.438-8.35 7.809-12.152 13.963-2.563-3.827-2.242-9.515 4.261-15.091-3.026.618-4.59 3.296-5.507 5.676-1.82 4.727-1.827 8.26.716 10.922.232 1.446.53 2.567.943 3.107l.033 1.146 2.409-.245c-.032-1.165-.579-2.388 1.583-3.31 3.068-1.144 6.596-1.976 7.84-4.336-2.402 1.882-5.052 3.006-7.907 3.528 3.65-2.49 9.146-3.097 8.345-10.122.119-1.396-.174-2.785 1.137-4.202.744-1.156 1.546-2.115 2.148-3.697 1.128 7.7 3.102 13.208 6.535 18.543 7.049 10.958 19.233 17.482 34.762 18.62 2.243.164 2.512.24 2.628.75.333 1.469 4.202 20.32 4.707 22.939 6.321 30.01-9 41.772-23.58 61.93-2.283 4.792-3.172 7.939-3.67 12.985l-.32 3.234 1.018 4.042c1.36 5.422 2.366 8.232 5.078 14.147 1.925 4.199 3.265 7.7 4.102 10.712.092.334.07.6-.051.598-.323-.007-29.805-19.742-35.79-23.958a641.374 641.374 0 01-10.67-7.722c-3.05-2.265-6.385-4.632-7.41-5.264a130.884 130.884 0 01-1.97-1.23c-.184-.132 1.243-2.14 3.46-4.875l2.123-2.62-.548-2.702c-.674-3.314-.582-6.795.337-11.243.201-.972.543-1.937.842-2.703 7.255 1.102 14.713 2.732 22.216 4.455 1.605.762 3.27 1.503 3.503 2.888.651-1.161 1.084-2.342-1.541-3.755-8.361-2.447-16.194-3.672-24.203-5.297-3.128-.753-17.728-3.007-24.54-3.748-4.165-.452-13.75-1.2-15.427-1.204-.943-.002-1.095.831-6.45 5.903-5.861 5.55-7.926 7.56-10.275 8.354-1.805.611-2.824.39-5.7-1.238-2.736-1.548-5.62-3.153-8.43-3.856l-1.954-.489-1.507.817c-2.282 1.236-3.393 1.404-4.708.733-1.6-.816-3.176-2.338-3.916-3.798-.359-.709-.845-2.025-.842-2.215.01-.934 5.694-10.953 9.272-16.944l1.726-2.888-1.373-2.021c-1.906-2.826-1.958-3.295-.539-4.834 1.725-1.87 3.03-3.989 5.82-4.135 3.636-.191 12.622 2.462 19.68 4.8l3.276 1.078 10.872-1.752c5.982-.964 14.033-2.241 17.886-2.846 15.083-2.37 29.053-5.727 38.806-7.748 3.683-.763 5.176-.542 6.72-1.044 5.766.018 13.641-1.862 15.815 1.39-.237-4.447-8.768-3.227-12.43-3.251 5.318-3.354 7.546-5.963 7.546-8.75 0-1.696-.631-2.992-2.737-5.617-.871-1.086-1.772-2.329-1.996-2.762-.487-.941.132-.887-11.167-.927-8.428-.029-10.228-.229-13.54-1.473-7.822-2.938-15.48-14.141-19.463-28.482l-.985-3.553.85-2.055c1.158-2.78 2.741-4.826 5.13-6.645 5.067-3.86 11.037-6.878 18.846-9.532l3.369-1.146zm-177.67 15.26c3.288.01 6.43.647 9.38 1.903 5.508 2.343 9.61 7.023 10.906 12.438.263 1.098.56 2.089.657 2.198.286.32 3.7-2.935 5.02-4.784.668-.937 1.945-3.23 2.837-5.094 1.548-3.237 1.664-3.386 2.442-3.386 1.194 0 4.494 1.175 6.341 2.257 5.08 2.977 9.451 9.33 10.78 15.655.364 1.737.355 2.38-.186 7.824-.685 6.907-.768 10.728-.278 12.8.866 3.657 3.092 7.176 7.512 11.857 1.866 1.976 1.907 2.003 1.929 1.213.103-3.836 1.139-10.106 1.667-10.106.33 0 .276 2.083-.219 9.028-.373 5.23-.39 6.724-.11 9.566.87 8.804 2.482 13.252 6.182 17.079 2.633 2.723 5.54 5.072 8.918 7.217 1.479.938 2.69 1.803 2.695 1.92.004.116-.669 1.674-1.49 3.47l-1.491 3.267.412 1.212c.978 2.87 3.388 5.552 6.224 6.94 1.383.676 1.602.714 3.032.454.847-.154 1.782-.359 2.08-.455.442-.142.705.09 1.431 1.289 1.922 3.17 1.998 3.623 1.785 10.408-.311 9.952.177 11.54 5.592 17.98 3.203 3.808 6.222 5.17 12.017 5.415 3.998.169 6.204-.307 7.731-1.65l.96-.843-.825-1.212c-2.217-3.235-3.248-6.159-3.284-9.348-.027-2.278.251-4.396.572-4.396.11 0 .583.533 1.053 1.187 1.075 1.497 2.946 2.88 5.482 4.051 3.198 1.476 5.008 1.832 8.767 1.726 3.271-.092 3.276-.09 2.787.447-.688.755-1.17 1.807-2.021 4.387-.535 1.623-.824 2.16-1.053 1.97-.173-.143-.883-.398-1.574-.572-1.104-.278-1.506-.246-3.327.295-2.396.711-4.846 2.195-5.895 3.57-1.208 1.584-1.811 3.534-1.743 5.643l.059 1.86-1.743.59c-2.328.784-2.437.862-8.076 5.904-8.226 7.353-9.769 8.668-12.118 10.315-4.224 2.962-6.435 5.592-6.443 7.672-.002.372-.504 2.373-1.111 4.447-1.2 4.095-1.223 4.407-.986 11.318.114 3.305.346 5.05 1.264 9.566 1.098 5.402 1.123 5.68 1.28 12.531.236 10.292-.298 19.645-1.81 31.664-1.003 7.959-1.413 10.391-1.744 10.291-.144-.043-1.595-.488-3.225-.994-1.63-.505-7.027-2.023-11.992-3.368s-10.362-2.883-11.992-3.42c-16.56-5.447-26.351-13.338-34.316-27.664-.893-1.607-1.67-2.977-1.735-3.04-.063-.064-1.077-.283-2.248-.489-1.171-.205-2.435-.51-2.804-.673-.477-.212-2.823-.24-8.068-.093l-7.402.21-.346 1.702c-.586 2.9-2.528 5.85-5.06 7.688-.518.376-.518.436-.076 1.701.25.718.588 2.094.749 3.057.16.964.646 2.48 1.078 3.369.907 1.87 3.478 5.032 4.69 5.768.458.278 2.048.694 3.537.927 2.392.373 2.867.38 4.017.033 1.91-.574 5.46-1.146 9.474-1.515l3.537-.32 3.065 2.164c1.687 1.19 3.62 2.506 4.287 2.93 4.057 2.583 7.812 6.07 9.945 9.23 2.177 3.225 4.423 8.334 5.5 12.506l.395 1.54-1.078.978c-.392.354-.902.754-1.49 1.178-.55-6.63-4.16-13.888-11.723-19.511 7.277 7.295 10.225 14.845 8.564 21.575-2.435 1.464-5.15 2.86-6.955 3.503-2.267.806-4.993 1.202-10.956 1.6-8.868.591-10.705 1.013-13.491 3.107-1.804 1.356-3.957 2.468-5.912 3.049-1.957.58-5.386.541-7.343-.085-2.439-.78-4.967-2.309-8.388-5.069-3.714-2.997-5.473-5.03-6.922-8.017-1.42-2.927-1.887-5.16-1.887-9.028 0-3.105-.042-3.299-1.254-6.787-4.859-13.98-9.942-21.135-17.862-25.138-2.771-1.4-5.708-4.783-6.762-7.78-.885-2.519-.642-5.292.758-8.666.307-.741.755-2.47.994-3.832.951-5.426 2.516-8.657 5.81-11.975 2.033-2.048 2.663-2.502 5.129-3.672 4.154-1.97 8.17-2.976 14.13-3.545 2.599-.248 3.084-.41 13.576-4.573 5.985-2.375 10.944-4.384 11.023-4.463.079-.079-.087-1.446-.37-3.04-.692-3.89-.696-12.064-.009-16.472 2.255-14.458 9.102-30.085 18.072-41.239 2.034-2.528 2.035-2.53 2.038-4.176 0-.906.242-3.825.539-6.493s.534-5.882.522-7.142.115-2.927.286-3.705c.397-1.8.104-3.28-1.406-7.074-.942-2.366-1.335-3.02-2.4-3.983-1.087-.983-4.44-5.864-5.87-8.548-.277-.52-.46-1.697-.522-3.3v-.051c6.743-4.355 11.935-9.389 15.765-17.196 7.504-15.302.288-29.719-3.461-32.279 1.683 2.388 3.204 6.153 4 9.491 2.319 9.73 1.776 18.229-3.605 25.575-4.136 5.648-8.977 10.26-12.943 12.01-.012-.029-.03-.043-.042-.043-.102 0-1.209.819-2.535 1.727-2.385 1.576-7.434 3.86-11.587 3.183-1.329-.215-1.594-.192-1.786.177-.591 1.132-3.522 12.07-4.707 17.566l-.674 3.116.581 2.14c.776 2.878.822 8.458.101 11.494-.468 1.97-.58 2.164-2.156 3.638-2.163 2.023-4.143 3.314-7.528 4.926-4.781 2.278-9 3.263-14.064 3.268-5.818.006-10.342-1.762-13.66-5.322a144.61 144.61 0 00-3.225-3.31c-2.13-2.114-3.598-4.262-5.255-7.688-1.365-2.825-1.74-4.988-1.204-6.956.172-.634 1.648-10.18 3.276-21.222 1.627-11.042 3.025-20.405 3.107-20.8l.152-.716 2.273.623c1.251.344 2.274.57 2.274.497 0-.617-3.058-5.8-4.48-7.596-1.76-2.224-1.775-2.278-1.608-3.537.276-2.084 2.348-7.69 4.143-11.209.707-1.386 3.469-3.271 12.59-8.607.622-.363 1.081-.636 1.617-.951 2.823 1.447 8.128 1.172 9.128-1.508-2.213.706-4.282.522-6.796-.311-.308-.35-.93-.972-1.7-1.676-1.124-1.024-3.837-3.834-6.03-6.248-2.194-2.415-4.832-5.26-5.862-6.317l-1.87-1.92 1.306-.42c5.073-1.642 10.854-2.606 16.809-2.796 5.422-.174 8.95.137 13.373 1.179l3.032.715 2.223-.875c3.095-1.224 5.553-1.688 8.91-1.676zm76.254.85l1.053 1.339c1.582 2 2.51 2.193 5.853 1.23a119.621 119.621 0 005.078-1.61l2.459-.858v1.903c.003 2.812 1.359 5.353 3.604 6.77 2.14 1.351 6.857 3.574 9.331 4.397 2.736.91 7.317 1.917 8.733 1.92 2.313.003 4.02 1.037 5.272 3.191.72 1.238 16.997 20.339 29.777 34.941 5.207 5.95 6.518 7.586 6.173 7.74.168.583-5.262 1.737-11.487 2.711-5.51.862-13.359 2.23-19.453 3.242-.95.159-.313-.66-.91-4.118-.724-4.196-2.766-9.01-4.968-11.714-.672-.825-1.193-1.499-1.154-1.499.039 0 1.046.297 2.232.666 1.186.368 2.234.67 2.332.673.277.006-2.597-6.99-3.722-9.061-3.12-5.746-6.81-9.879-12.581-14.089-.864-.63-4.245-2.783-7.52-4.783-6.426-3.925-9.126-5.69-11.655-7.604-3.263-2.47-7.03-5.89-9.34-8.49l-2.366-2.669.464-.8c.254-.442.983-1.393 1.625-2.113l1.17-1.314zm-111.597 6.728c-.813.006-1.628.033-2.433.085 5.747.984 11.538 1.832 16.935 4.042l-4.986 3.697c2.112-.635 6.353-2.546 7.672-4.438a44.087 44.087 0 00-17.187-3.386zm-10.265.337c.019 0 .037-.005.05 0 .095.038 1.535 1.592 3.2 3.445 1.666 1.852 4.13 4.486 5.474 5.852 1.345 1.367 2.39 2.53 2.324 2.594-.066.065-1.815 1.12-3.89 2.341-2.075 1.222-5.19 3.181-6.914 4.354l-3.133 2.13-1.558 3.42c-2.62 5.758-4.384 11.889-3.689 12.8.137.178.94 1.208 1.786 2.282.846 1.075 1.44 1.948 1.322 1.945-.118-.002-1.117-.447-2.223-.985-1.377-.67-2.6-1.558-3.882-2.813l-1.878-1.827-.75.53-.75.54-1.11-1.415c-3.852-4.871-4.194-10.44-1.02-16.784.447-.894 1.429-2.643 2.173-3.882.905-1.507 1.248-2.316 1.044-2.442-.69-.426 12.235-12.031 13.423-12.085zm194.176 3.015l.573 1.693c.317.933.546 1.701.505 1.701-.041 0-.343-.219-.665-.48-.476-.385-.566-.701-.497-1.693l.084-1.22zm110.934 8.893c-.19-.003-.381.004-.572.008-.407.01-.817.036-1.23.076 4.428 1.083 8.877 2.12 12.775 4.438.195 12.771-4.265 23.561-1.086 36.23-16.937.191-30.007-3.88-38.056-13.483 7.278 12.914 22.701 14.29 38.52 15.108l4.9 8.842c-6.513-13.97-3.878-30.273-2.98-46.14 1.639.556 2.87.62 4.21.816-5.325-2.799-10.605-5.843-16.48-5.894zm-71.396 20.396c1.699.006 3.485.079 3.908.202.559.164 2.627 2.518 4.034 4.59.368.543.623 1.315.623 1.903 0 .544-.156 1.198-.345 1.457-.314.429-.865.096-6.038-3.655-3.13-2.269-5.634-4.209-5.567-4.32.074-.122 1.687-.183 3.385-.177zm-224.972.952c-2.35 4.731-6.404 14.317-2.518 18.375 1.74-1.414 3.48-2.854 5.095-6.4 1.294-2.372-.248-5.065-1.104-7.68-.959-.683-1.115-2.652-1.473-4.295zm-8.506 51.058c-.923 3.43-.857 6.336.304 9.584 1.068.78 1.828.133 2.256-.48-2.527-2.589-2.43-5.538-2.56-9.104zm165.58 2.055l1.625.168c.891.094 2.217.177 2.948.177 1.246 0 1.426.095 2.964 1.55 3.66 3.462 6.878 8.929 8.177 13.895.381 1.458.634 2.717.556 2.796-.32.32-2.845-1.494-5.6-4.026-1.608-1.477-2.923-2.599-2.923-2.493 0 .107.48 1.846 1.07 3.866 1.19 4.074 1.757 7.486 2.038 12.228l.185 3.158-.775.303c-.425.166-2.04.369-3.596.446-3.293.164-5.218-.227-8.27-1.667-2.622-1.24-3.954-2.548-6.164-6.064-1.03-1.638-1.934-2.972-2.012-2.972-.318 0-2.163 6.204-2.443 8.219-.502 3.622.31 7.779 2.156 11.108.521.938.684 1.479.489 1.6-.357.22-5.393.364-6.527.185-1.86-.293-4.44-1.224-5.482-1.98-1.37-.991-5.068-5.414-6.072-7.258-1.463-2.688-1.794-6.225-1.238-13.079.33-4.065.059-5.537-1.6-8.833-.578-1.149-.958-2.089-.85-2.089.742 0 4.139 1.394 6.998 2.872 4.004 2.07 4.942 2.252 7.503 1.473 2.863-.87 5.37-2.716 11.352-8.379l5.49-5.204zm13.667.556c7.133.087 23.221 3.434 23.572 4.135.05.054-.152 1.253-.455 2.66-.439 2.038-.56 3.61-.581 7.706l-.025 5.154-1.643 1.988c-.9 1.095-2.022 2.571-2.5 3.275-.48.704-.897 1.267-.927 1.255-.03-.012-2.016-1.046-4.413-2.299-3.15-1.647-4.733-2.325-5.718-2.442-1.271-.15-1.371-.22-1.499-1.002-.075-.461-.272-1.622-.43-2.585-.966-5.918-3.996-12.419-7.63-16.371-.682-.743-.882-1.038-.64-1.146.55-.244 1.568-.344 2.89-.328zm-.918 19.461c.037 0 .838.364 1.777.809.94.444 1.873.808 2.08.808s-.035.276-.539.615c-1.209.814-1.618 1.752-1.743 3.958-.056 1.004-.21 2.1-.337 2.442-.217.588-.235.574-.404-.27-.098-.49-.182-1.505-.185-2.265-.003-.76-.167-2.442-.362-3.739-.195-1.297-.323-2.358-.287-2.358zm5.828 4.489c.225-.004.46 0 .707.008 1.645.05 2.13.22 5.693 2.021 5.914 2.988 10.103 5.613 16.32 10.224 8.75 6.489 16.416 11.79 33.796 23.36l10.358 6.897c-5.421-1.72-10.793-3.377-12.657-.867 4.975-.213 11.839 2.559 18.215 4.564l.093.068 3.393 1.027c9.59 2.924 19.48 6.457 19.672 7.023.061.179.68.932 1.381 1.676.702.744 1.472 1.818 1.71 2.392.879 2.117 8.528 10.69 16.506 18.501 8.132 7.963 11.732 10.963 16.615 13.836 2.846 1.676 3.299 2.164 3.671 3.967.136.657.555 1.923.935 2.813.491 1.149.695 2.104.7 3.3.006 1.805-.227 2.09-.81 1.003-.2-.374-.481-.645-.622-.598-.469.156-6.821 10.4-8.615 13.887-.97 1.883-2.37 5.196-3.108 7.36-.737 2.164-1.589 4.427-1.895 5.027-.995 1.95-2.97 2.788-8.387 3.58-5.31.774-6.242 1.101-7.942 2.761-1.016.994-1.582 1.82-1.936 2.846-.437 1.265-.673 1.55-1.878 2.232-1.715.972-3.11 2.307-4.009 3.84-1.105 1.886-1.475 4.313-1.482 9.735-.003 2.668-.132 5.305-.286 5.861-.503 1.812-5.1 7.446-10.257 12.582-3.38 3.366-3.404 3.387-5.516 4.008-3.988 1.174-5.672 1.058-7.697-.53-1.034-.81-1.664-.93-2.737-.522-.358.136-2.7.565-5.204.951-6.935 1.07-10.486 2.106-13.213 3.874-11.058-24.139-21.568-58.752-33.273-70.612 12.536 20.88 21.662 47.607 31.89 72.44l.068.513c.194 1.551 1.126 3.736 2.181 5.12.401.526 1.915 1.736 3.36 2.686 3.287 2.16 4.193 3.117 4.741 4.977.367 1.245.39 1.796.127 3.68-1.28 9.155-6.287 13.29-18.392 15.192-1.982.312-4.215.743-4.969.96-.754.218-1.805.396-2.333.396-1.748 0-4.344-1.017-6.425-2.51-8.054-5.774-17.233-10.871-21.651-12.025-4.105-1.072-9.245-.494-13.634 1.533-4.598 2.123-9.87 7.638-11.605 12.135-.908 2.353-1.007 5.65-.244 8.219.52 1.754.718 2.086 1.415 2.375 1.09.451 1.626 1.78 1.39 3.427-.252 1.743-1.885 6.543-2.999 8.809-2.506 5.098-7.692 9.743-15.166 13.575-7.214 3.698-13.263 5.753-16.978 5.777-5.131.033-9.863-2.31-22.552-11.158-3.233-2.255-6.445-4.504-7.133-5.002l-1.246-.91-.093.16c-5.69-2.393-10.597.011-13.246 7.116 3.413-5.385 7.333-6.527 11.831-4.733l-.168.287c-.92 1.555-2.275 4.252-3.015 5.996-1.291 3.044-3.718 10.822-4.118 13.204-.105.63-.287 1.208-.404 1.28-.578.358-4.413-6.465-5.297-9.423-.657-2.2-.63-5.78.059-7.42.281-.669 3.714-6.975 7.63-14.012 7.622-13.7 13.631-25.313 16.58-32.06 3.58-8.185 7.072-17.907 8.237-22.906.19-.815.56-1.982.817-2.585.257-.604 1.145-3.575 1.97-6.603 7.818-28.689 11.375-53.772 10.855-76.508-.167-7.334-.18-7.465-1.271-12.665-1.083-5.157-1.336-7.877-1.398-15.091-.006-.667.496-2.933 1.111-5.028.616-2.094 1.12-4.151 1.12-4.58 0-1.475 1.346-2.983 4.977-5.567 2.698-1.92 4.573-3.49 9.862-8.261 5.115-4.615 7.11-6.357 7.991-6.973.87-.61 2.379-1.12 4.127-1.415 1.282 5.645 1.232 11.735 4.252 16.8l.666-.943c-1.446-2.676-2.342-5.854-2.653-9.574 3.545 9.298 7.599 18.862 11.806 27.664 1.892 3.958 3.543 7.546 5.769 11.15-1.565-3.801-3.636-7.89-5.483-12.042-4.793-10.78-9.558-21.994-12.32-33.602.138-.276.003-.767-.295-1.743-1.28-4.22.729-7.523 5.415-8.893 1.724-.504 2.55-.231 3.815 1.246.501.586 1 1.07 1.103 1.07.374 0 1.883-3.17 2.712-5.693.468-1.424 1.004-2.804 1.196-3.065.204-.28.931-.568 1.76-.7.773-.121 1.826-.48 2.34-.8.904-.557.932-.626.775-1.835-.123-.955.013-1.793.573-3.537.427-1.329.75-3 .775-3.975.024-.923.138-1.772.253-1.886.086-.086.62-.148 1.296-.16zm1.55 20.86c3.728 4.216 24.027 9.78 52.624 17.827-23.779-8.184-38.89-13.008-52.63-17.826zm-5.878 10.054c-.236-.003-.416.187-.48.7 6.854 13.237 11.668 24.827 20.135 40.354-5.275-12.874-11.496-26.128-18.047-39.511-.315-.588-1.09-1.536-1.608-1.542zm55.176 53.071l-1.44.868c18.48 19.515 27.724 39.28 43.79 64.001-5.948-11.364-12.072-21.908-19.226-33.272-6.457-10.259-13.72-21.338-23.125-31.597zm-178.868 11.075c.272 0 .428 0 .438.008.124.108-2.33 11.175-3.377 15.225-.919 3.556-1.06 3.9-1.676 4.051-.73.178-4.583-.351-5.204-.716-.717-.42-3.132-3.383-3.68-4.514-.3-.62-.746-2.188-.985-3.477l-.43-2.342 1.12-1.086c1.483-1.439 2.568-3.193 3.251-5.246l.556-1.676 5.179-.135c2.136-.059 3.994-.094 4.809-.093zm3.327.513c.192-.015.878.066 1.65.202l1.6.287.918 1.768c3.279 6.323 8.475 12.918 13.474 17.112 7.511 6.3 15.77 10.337 28.042 13.702l3.638.993-2.02.59c-6.969 2.023-11.686 4.12-13.315 5.92-.498.55-.49.573.236 1.524.406.532.874.91 1.044.834 4.077-1.816 5.587-2.126 10.687-2.156 3.582-.021 4.055.038 5.71.674.992.381 2.688 1.198 3.772 1.819 2.3 1.316 8.032 5.367 9.331 6.594 1.072 1.012 1.085.854-.522 7.562-1.049 4.376-1.16 4.655-2.661 6.888-1.758 2.614-4.034 4.838-5.937 5.803l-1.272.648-8.59-.261c-4.724-.14-9.49-.375-10.585-.522-2.385-.321-6.325.037-8.935.808-2.184.646-3.675 1.7-5.07 3.588-1.313 1.778-3.506 3.272-5.59 3.814-1.832.477-3.175.492-5.222.043-1.179-.259-2.144-.818-4.716-2.712-1.779-1.31-3.758-2.884-4.396-3.495-2.514-2.41-3.639-5.137-3.671-8.91l-.017-2.408.943-.194c.519-.107 3.78-.392 7.25-.631 7.127-.49 10.05-1.024 13.29-2.442 4.255-1.863 8.907-4.774 11.73-7.335l1.415-1.28-.556-2.156c-2.13-8.305-5.413-14.505-10.114-19.058-2.171-2.103-3.518-3.148-7.385-5.76-1.556-1.05-3.837-2.596-5.07-3.436-2.015-1.372-2.38-1.527-3.637-1.524-1.534.003-8.392.722-9.146.96-.625.198-.62.128.455-4.143a352.83 352.83 0 002.012-8.649c.597-2.726 1.129-4.993 1.18-5.044.006-.006.023-.015.05-.017zm101.146 4.22c3.025 29.52 6.953 69.062 4.624 106.713 3.849-25.013 2.018-91.499-4.624-106.714zm-14.703 22.593c-6.684 30.198-16.416 87.506-21.5 112.702 6.099-27.02 19.516-79.496 21.5-112.702zm-32.27 8.615l1.886.472c2.081.518 10.098 2.889 11.217 3.318l.708.27-.523 2.913c-.285 1.604-.664 3.419-.842 4.025l-.32 1.095-1.751-1.305c-7.82-5.85-12.796-8.253-17.247-8.32-1.048-.016-.665-.178 2.83-1.238l4.042-1.23zm184.36 2.754c.785 0 2.38 4.823 3.309 10.005.524 2.927.705 5.086 1.38 15.966.644 10.365 3.196 19.789 5.997 22.165.498.423 1.53 1.684 2.29 2.796 2.03 2.964 4.309 5.055 8.548 7.866 3.599 2.386 3.81 2.576 4.547 4.1.594 1.226.803 2.122.91 3.833.167 2.674-.133 3.57-1.508 4.488-.942.628-1.131 1.05-4.286 9.516-6.134 16.464-7.513 21.464-7.343 26.653.18 5.54.15 6.18-.38 7.352-.504 1.117-.504 1.15 0 2.122 1.019 1.959 3.059 3.65 6.595 5.474 2.591 1.336 3.693 2.085 4.876 3.3 1.283 1.32 1.636 1.548 2.198 1.407.63-.158.69-.075 1.019 1.406.582 2.635.445 9.682-.253 12.944-1.189 5.55-3.673 11.2-7.42 16.901-2.52 3.836-6.275 7.744-8.53 8.868-1.974.984-3.69.933-5.836-.177-.547-.283-1.884-1.773-3.15-3.377 12.175-3.322 20.681-20.873 24.094-31.109-5.646 11.136-14.475 28.848-26.502 27.654-.032-.06-.073-.12-.101-.176-.821-1.621-1.194-2.647-2.366-6.426-.818-2.633-1.045-3.041-2.645-4.876-.96-1.101-3.062-3.873-4.674-6.156-1.611-2.282-4.051-5.318-5.423-6.754l-2.493-2.619-.067-4.791c-.095-6.806-.024-8.177.606-11.47 1.133-5.919 3.74-13.912 8.228-25.205 1.093-2.751 1.907-5.136 1.81-5.296-.92-1.532-4.02-5.572-4.606-6.005-1.023-.756-6.196-2.51-7.924-2.686-.78-.08-3.37.048-5.76.286-7.284.725-10.893.502-16.8-1.06-4.569-1.21-8.166-3.406-9.736-5.946l-.58-.952.563-1.937c1.268-4.326 1.36-7.44.287-9.87-.87-1.966-1.74-2.87-4.514-4.699-3.05-2.01-4.461-3.445-4.935-5.027-.319-1.064-.295-1.145.329-1.617 1.263-.957 5.512-2.103 11.452-3.09l5.946-.994 1.027.699c2.198 1.491 4.835 1.576 9.18.278 2.334-.698 2.523-.817 5.077-3.167 4.209-3.871 11.28-12.167 12.144-14.24.597-1.433.746-3.075.791-8.623.04-4.809.09-5.316.665-6.594.753-1.67 1.669-2.576 4.017-4 1.632-.99 1.812-1.19 2.165-2.426.461-1.616 1.418-2.947 2.526-3.52.74-.383 4.313-1.196 5.255-1.196zM293.07 492.09c3.27.045 5.628 1.023 12.127 4.632 5.79 3.215 9.889 5.886 9.718 6.341-.254.675-4.165 6.107-6.729 9.348l-2.551 3.234 4.699 4.716c2.584 2.593 4.914 4.986 5.179 5.322l.48.606 1.431-.547c2.164-.829 4.55-2.078 6.653-3.495 2.15-1.448 3.972-2.426 4.53-2.426.211 0 .552.19.75.43.2.24 2.549 2.105 5.222 4.143 6.273 4.785 10.425 9.078 11.932 12.346l.657 1.431-.985 1.491c-3.41 5.136-10.58 10.478-16.59 12.37-2.976.938-9.88 3.691-12.152 4.843-2.78 1.41-4.349 1.425-5.937.067-.393-.336-3.56-4.183-7.04-8.556-10.059-12.64-10.731-13.304-16.455-16.017-5.03-2.385-6.633-4.129-7.478-8.194-.486-2.336-.168-16.407.421-18.729l.463-1.844-1.38-2.711c-1.617-3.166-1.719-2.829 1.624-5.323 2.73-2.036 6.252-3.255 9.946-3.444.519-.026.998-.04 1.465-.033z"/><path d="M273.844 258.439c.786.266 1.262.947 1.159 1.587-.2 1.237-1.823 2.789-2.35 4.164l-2.79.068c.965-1.338 2.583-2.555 3.467-3.937.379-.593.623-1.171.514-1.882z" color="#000"/><path d="M317.068 179.684c.846-1.583 8.506-8.945 8.506-8.945s.123 4.248-1.865 6.154c-1.87 1.792-7.219 5.293-7.219 5.293s-.25-.952.578-2.502z" color="#000" fill="#b39190"/><path d="M112.166 226.233c.076-1.792 2.63-8.89 2.63-8.89s2.156 4.115 1.191 6.695c-.907 2.425-3.256 5.313-3.256 5.313s-.673-.545-.565-3.118z" color="#000" fill="#de8787"/><path d="M127.966 82.086c3.296.329 5.7-.316 11.64 2.895l100.766 64.616c.367 2.388-.913 7.689-5.356 11.23L134.78 89.23l-1.024-1.492L234.1 158.355l.364-.9zM296.71 88.028c-1.804 8.457-3.739 16.964-2.722 24.363-4.173 20.78-1.852 37.655 5.58 55.532-5.523 9.347-4.381 19.115-2.45 27.358-16.48-26.727-18.728-70.61-.408-107.253z" color="#000" fill="#605e5f"/><path d="M295.654 123.478c1.305 4.959 3.03 8.446 5.061 10.866 1.452 9.972 4.57 17.32 8.045 26.028-2.388 1.687-4.974 3.175-7.106 5.117-4.244-14.67-7.086-28.357-6-42.011z" color="#000" fill="#605e5f"/><path d="M325.565 77.957c12.753 3.347 22.447 12.815 32.394 21.777.255 3.854-1.374 7.393-3.267 10.889-9.706-8.897-19.272-18.771-29.67-22.822-13.228 5.158-16.59 14.8-22.322 23.366 5.755-12.44 11.773-24.686 22.867-33.21z" color="#000" fill="#faf8f6"/><path d="M324.913 90.66c9.77 3.832 19.27 12.797 28.68 23.484l-2.95 5.79c-7.55-11.395-14.994-23.004-26.431-26.627l-5.459 1.01z" color="#000" fill="#faf8f6"/><path d="M301.338 129.134c7.382 3.79 20.48 7.304 30.041 1.015 11.83-7.664 21.798-20.36 31.48-31.23l-24.499 47.094c-24.663-2.142-30.947-4.81-37.023-16.88zM286.825 180.788c7.29-19.728 26.502-27.915 49.608-32.337l-.205 4.12c-20.87 8.63-48.285 12.284-32.327 48.903l-4.373 3.465z" opacity=".377" color="#000"/><path d="M380.733 39.598c2.57 12.277 2.306 35.372-3.586 56.1 11.835-12.785 14.802-31.232 20.172-49.045.097 21.467-5.258 33.987-12.147 47.995 12.008-4.943 15.903-12.59 21.785-19.574-2.521 9.601-12.097 21.058-21.312 32.421 9.041.636 15.599-1.921 22.16-4.473-5.836 6.295-13.55 11.964-28.03 15.377l9.245 8.693-4.654 2.736 6.332 15.794c-7.213-1.293-12.465.115-19.402 2.057l4.92 4.19-12.993 4.426c4.492 7.239 6.4 15.998 3.842 20.111-.13-6.027-1.722-12.207-8.695-18.954-3.13 4.739-.692 7.035 2.761 7.273l-.355 4.039c-4.862.067-9.718-4.907-12.765-11.695-5.967-11.277 10.677-26.476 17.204-42.923 8.001-20.158 14.877-35.22 15.519-74.546zM299.889 176.124c4.44-15.553 19.657-19.12 30.028-20.404l6.205-2.167 1.739 4.797c-6.085.254-5.024 6.183-5.235 11.1-15.103 15.302-16.095 25.991-12.438 35.16l-4.859 2.193c-6.647-9.155-11.313-19.724-15.44-30.68z" opacity=".192" color="#000"/><path d="M329.416 210.14c9.06-1.57 13.513-3.432 20.648-6.67 2.355-1.068 4.202-.374 4.46 2.655.42 4.946.747 8.787.984 12.863-5.725 9.176-9.538 8.285-15.612 9.8 8.858-5.997 14.185-11.86 3.989-17.138z" opacity=".155" color="#000"/><path d="M254.268 178.048c7.52 2.728 16.943-2.16 22.523 8.325l24.289 23.933c8.069 4.833 17.487 7.958 33.178 3.136l12.98 8.492-9.193 6.695-29.88 5.24-40.937-46.817c-9.128-1.298-15.55-4.76-22.198-8.042z" opacity=".088" color="#000"/><path d="M273.333 254.885c-2.963 7.091-11.063 12.253-17.87 17.903-4.736-.614-9.155-2.963-12.867-9.204l-13.222 8.918a12.008 12.008 0 002.796 1.861c1.862.894 4.29-.29 6.493-1.634 2.767.552 5.528 1.333 8.295 2.965 1.875 1.23 3.994 2.431 5.87 2.206 2.367-.284 4.495-1.634 6.863-3.41l11.234-10.594c12.974.626 26.59 2.264 39.522 4.867-.646 2.93-1.324 5.927-1.533 8.38-.18 2.12-.089 3.935.067 5.675h.666c6.465-5.21 17.332-6.697 27.791-5.844 7.087-1.739 10.193-6.72 14.426-10.956-20.84.53-45.842-1.319-73.862-4.893-.1-2.212-1.743-4.284-4.665-6.24z" opacity=".134" color="#000"/><path d="M333.129 173.256c11.159 9.21 25.62 14.6 38.479 16.302 17.925 2.372 32.354-9.191 59.76 3.57-11.22 16-6.302 26.238-8.512 39.02-3.334-10.897-6.309-11.537-10.001-32.695-20.696-.542-23.345 7.118-28.77 13.517l-1.015 27.373-5.601 16.858c2.386-13.337.05-31.61-6.5-50.36-21.997-4.94-35.962-17.047-37.838-33.586z" opacity=".155" color="#000"/><path d="M382.73 239.654c11.404 14.14 35.175 21.867 66.149 25.86-4.617 5.627-14.796 7.714-27.369 8.279 13.47 19.166 34.208 21.151 55.521 21.772-5.799 5.326-12.48 10.21-23.36 12.997 13.763 21.164 32.221 21.197 48.727 30.02l-14.916.838c13.299 12.962 22.783 15.115 33.192 19.889l.772 6.985c-2.862 7.955 12.246 15.094 19.394 22.595-14.694 6.208-10.661 17.618-7.398 28.815-11.093-8.85-15.547-24.006-5.921-33.946-11.337-6.385-19.092-14.202-22.73-23.666-14.815-5.267-28.637-11.143-27.829-25.984-15.9-2.511-31.02-6.119-30.815-31.276-21.051-1.688-29.63-16.983-34.836-35.957-19.427-4.831-24.042-16.01-28.583-27.223z" opacity=".155" color="#000"/><path d="M433.799 404.349c-3.18 11.956-4.594 21.91-.196 28.053.12-14.368 11.28-39.072 20.259-37.487-8.733 8.523-17.445 22.133-9.89 41.332 6.694-2.055 8.618-8.2 11.998-13.095-2.039 8.21-3.27 17.008-10.73 21.275-5.476 6.343-8.645 13.882-.408 27.336 4.024 10.647 8.364 19.02 14.92 11.438 6.56 8.451 12.11 22.968 22.052 11.129 8.073 3.404 15.704.609 22.751-10.353 10.319.775 18.492-1.613 19.13-15.105 7.087-6.973 18.524-12.174 12.634-24.434 7.269-7.44 12.845-17.248 14.995-31.853 1.009 10.198 4.25 21.465-6.005 26.276 5.822 13.556 2.006 23.465-11.164 29.834-.841 16.318-10.994 20.895-23.543 22.451-7.09 9.594-15.255 14.162-25.418 9.413-9.765 8.717-18.088 6.475-25.288-4.307-8.534 1.727-13.907-5.742-16.797-20.435-9.73-9.965-8.765-19.93-7.994-29.894-16.611-5.895-8.567-30.623-1.307-41.572zM326.066 310.667l16.783 16.447-37.156-10.67 38.52 21.895c10.248-2.675 24.404.684 40.28 6.703 7.375 17.836 21.731 26.529 24.177 39.242-2.014 8.575-5.889 16.903-9.895 22.106-5.106 6.63-7.514 7.652-11.411 17.23-14.91-20.358-37.051-45.332-57.222-59.722 12.563 15.13 39.282 55.911 50.226 83.26-2.681 4.122-7.367 8.65-14.645 11.749-7.469-13.205-14.939-30.045-22.408-35.219 5.148 13.033 10.703 26.28 10.383 36.329-7.686 2.142-11.499 1.517-15.723 1.187-10.946-23.415-17.906-42.844-34.687-72.094 15.494 38.005 28.144 74.943 32.092 108.617-11.415 2.007-18.67-5.758-23.36-7.276-11.967-3.874-29.498-3.933-40.102-2.729 1.907-25.431-1.158-54.596-3.124-82.932-2.66 43.842-3.09 89.128-13.996 127.631-10.584 7.097-19.62 9.564-27.134.8 10.358-36.03 15.55-74.411 22.56-111.877-9.685 36.964-19.787 72.897-33.518 99.75-7.095 1.54-14.185 2.234-21.28 8.186l-.54.034c-.37.67-.742 1.341-1.11 2.012-5.251 7.87.31 16.602 5.827 23.605 1.84-8.294 3.596-16.582 8.935-24.876 11.5 7.656 23.614 18.485 33.189 16.27 7.184-1.627 26.485-8.523 31.486-21.575 2.121-5.546 4.177-11.055-.084-12.523-3.354-8.025 2.233-14.712 9.364-19.655 11.53-5.326 16.63-1.364 24.371 2.846 2.893 1.515 5.873 3.486 8.758 5.483 1.691 1.17 3.288 2.571 4.986 3.3 2.577 1.108 5.166 1.45 7.781.245 10.57-1.386 22.366-3.02 23.773-18.165.217-3.398-1.083-6.22-4.674-8.168-2.987-1.59-5.548-3.64-6.02-7.924 5.077-4.19 15.25-3.93 19.722-5.474 4.118 3.973 7.806 1.583 11.756.631 5.3-4.489 9.708-9.613 13.743-15.006 3.435-5.584-1.976-14.724 4.682-19.79l3.108-1.735c1.975-9.805 11.178-4.056 17.962-9.508 2.427-3.6 2.697-7.471 4.472-11.208 2.37-4.993 5.458-9.99 8.867-14.982l1.685 2.476c1.52-3.703 1.54-7.3-.657-10.746-.129-1.465.313-2.829-3.133-4.91-5.886-2.954-10.715-7.64-15.689-12.42-6.1-5.863-12.179-12.15-17.735-19.1l-.716-1.937c-1.11-1.049-2.273-1.985-3.015-3.773-6.437-2.604-13.96-5.21-23.116-7.815-12.13-7.974-24.383-15.95-35.857-23.924l-1.482-.303z" opacity=".155" color="#000"/><path d="M267.74 322.535c7.518 21.786 23.619 39.506 25.159 60.04-12.176-22.178-27.611-41.015-25.16-60.04zM287.377 324.529c10.663 10.445 16.361 24.455 22.52 44.079-8.93-9.675-19.248-28.306-22.52-44.079zM177.313 191.877c10.88 34.136-10.479 41.953-34.56 47.548l-7.85 22.004c1.456 5.056 3.357 10.108.64 15.192-10.752 5.28-20.915 11.966-40.818-4.573l-.1.261c.54 1.376 1.26 2.761 2.037 4.076 1.768 2.993 3.717 5.687 5.146 6.156 10.995 16.121 35.868 5.923 41.559-2.459 1.497-5.947 1.618-9.993-.152-15.941 1.13-6.005 2.801-12.544 5.02-19.638 3.836.7 7.732 1.227 13.7-3.756-.102 4.107 1.612 5.249 2.822 7.208 1.491 2.76 3.071 5.33 5.196 6.695.848 2.861 2.293 4.607 2.467 7.318.083 1.275-.544 2.845-.614 4.16-.067 1.252.25 2.364.151 3.613-.339 4.273-1.188 8.646-1.179 12.741-1.515 1.672-3.033 3.583-4.514 5.676l5.222-5.221 10.99-25.02c11.754-22.783 9.013-51.783-5.163-66.038zM193.474 425.234c-10.257 12.023-24.503 8.538-38.35 6.594-3.9 13.51-15.783 8.839-28.101 3.174 1.536 3.718 4.224 6.859 7.975 9.634 7.911 7.098 15.643 7.77 23.192 2.165 1.281-1.5 4.12-2.166 6.088-2.434 6.428-.875 12.668-.064 18.67-2.409 4.616-1.803 9.913-5.14 13.095-8.202-.607-2.926-1.437-5.778-2.568-8.522z" opacity=".155" color="#000"/><path d="M265.406 364.6c3.783-.793 6.74 1.713 8.983 7.078 7.523 39.662 16.078 78.562 29.945 111.88-10.88.372-20.906-6.569-26.951-1.36-1.812-37.855-2.964-76.862-11.978-117.6zM243.298 377.644l.77 17.323c-4.452 33.087-5.43 68.09-28.872 120.496l-7.315 2.694c20.135-45.504 33.405-92.108 35.418-140.515zM270 319.509c.103-3.22-1.073-6.963 4.388-7.991 4.2 19.135 13.209 34.94 20.416 51.993l-.816 8.705c-8.284-17.543-20.066-34.602-23.988-52.719z" opacity=".448" color="#000" fill="#fff"/><path d="M397.109 27.317c-6.848 41.524-11.251 83.291-30.67 123.557 12.193 16.63 18.86 37.156-10.34 48.078 39.799 43.825-9.436 78.75-21.307 117.41l5.036 10.08c13.039 16.117 33.575 30.41 6.392 56.337-3.68 3.238-11.445 8.736-11.487 17.702-.066 14.384-13.845 23.953-19.217 7.983-6.254 4.042-12.21 21.82-14.3 32.631-3.26 16.876-20.3 25.998-29.542 7.31-8.907-5.136-18.083-4.397-28.514 22.998-9.446 9.262-22.018 31.012-22.847 5.803l-.859.833c-.068.183-.135.38-.202.556-4.59 12.08-9.451 21.867-22.367 44.995-2.938 5.262-5.565 10.196-5.835 10.965-1.505 4.277-.524 9.415 2.93 15.318 1.615 2.76 6.008 8.586 6.266 8.312.122-.13.608-1.994 1.086-4.143 1.783-8.022 3.66-13.84 5.87-18.199 1.852-3.656 1.066-3.72 7.25.624 12.148 8.532 17.063 11.122 22.628 11.95 3.174.472 7.301-.415 13.567-2.923 11.01-4.406 18.786-10.257 22.535-16.96.552-.988 1.52-3.288 2.156-5.112 2.211-6.344 2.176-8.625-.185-10.922-1.146-1.115-1.31-1.411-1.483-2.788-.106-.848-.123-2.19-.042-2.98.158-1.529 1.366-4.31 2.443-5.635l.648-.8.926 1.878.927 1.878-.388 1.482c-.616 2.348-.782 17.055-.219 19.47.597 2.56 1.875 4.92 3.529 6.535 1.33 1.3 2.299 1.862 7.427 4.27 2.888 1.355 5.276 3.927 15.268 16.48 2.831 3.557 5.488 6.71 5.912 7.015 2.437 1.754 5.29 1.794 8.32.118 1.802-.997 8.709-3.753 12.447-4.969 3.267-1.063 7.303-3.297 10.366-5.734 3.92-3.118 8.582-8.71 8.582-10.291 0-3.534-5.232-9.821-13.197-15.866-2.598-1.972-4.878-3.786-5.06-4.025-.622-.813-1.822-1.412-2.813-1.415-1.353-.003-2.838.679-6.055 2.787-1.505.986-3.406 2.1-4.228 2.476l-1.499.69-3.84-3.814c-2.777-2.753-3.771-3.897-3.587-4.143.14-.188 1.352-1.789 2.686-3.554 1.334-1.766 3.009-4.076 3.73-5.137l1.314-1.928 1.651.91c2.817 1.546 6.063 2.116 8.261 1.456.518-.156 2.762-.586 4.986-.96 8.465-1.424 12.614-3.132 16.126-6.636l2.114-2.114 1.794 1.693c2.903 2.738 6.777 4.462 12.64 5.617 1.614.318 3.089.528 4.64.64 5.097-14.049 13.562-28.627 30.848-44.599l17.886 32.9c-10.665 35.75-9.773 68.028-8.952 100.33.413.206.864.397 1.373.59.611.233 1.74.361 2.796.32 4.044-.156 8.307-3.563 12.918-10.324 4.288-6.286 7.21-13.176 8.388-19.773.518-2.9.44-10.034-.143-13.07-.685-3.558-.54-3.32-1.912-3.166-1.12.126-1.28.055-2.568-1.103-.757-.68-2.836-2.001-4.615-2.93-3.664-1.915-5.778-3.704-5.483-4.641.647-2.05.744-3.317.464-6.181-.24-2.44-.223-3.425.1-5.289.919-5.284 2.508-10.321 7.125-22.636 2.586-6.897 2.857-7.494 3.933-8.506 1.599-1.503 2.056-2.729 2.021-5.415-.036-2.726-1-5.986-2.206-7.444-.462-.558-2.421-2.045-4.354-3.31-4.235-2.771-6.14-4.547-8.303-7.705-.899-1.312-1.872-2.509-2.156-2.661-1.264-.676-2.974-5.145-4.169-10.906-.82-3.952-1.119-6.765-1.49-14.013-.474-9.249-1.088-13.332-2.821-18.686-.544-1.68-.95-3.09-.902-3.125.05-.034.639-.212 1.306-.404 1.678-.483 4.055-1.725 4.758-2.484.92-.996 1.88-3.127 3.326-7.369 1.354-3.972 2.153-5.749 4.101-9.162 1.62-2.836 4.897-7.95 5.095-7.95.096 0 .569.61 1.053 1.364 1 1.559.94 1.614 2.02-1.499 1.266-3.644 1.148-8.037-.269-10.248-.192-.3-.437-1.088-.547-1.752-.39-2.348-1.558-3.637-4.985-5.516-2.422-1.327-6.161-4.147-9.432-7.116-9.588-8.7-21.807-21.837-22.603-24.295-.17-.528-.806-1.437-1.406-2.021-.6-.584-1.342-1.508-1.65-2.055-.516-.912-.864-1.112-4.228-2.392-3.935-1.496-12.216-4.3-16.607-5.625l-2.695-.817-.648-2.492c-.993-3.864-2.34-7.494-4.53-12.203-2.554-5.488-3.526-8.18-4.784-13.204-1.007-4.023-1.013-4.056-.724-6.872.5-4.884 1.97-9.543 4.413-14.013 2.078-3.805 3.954-6.256 9.39-12.261 6.494-7.176 8.05-9.299 10.24-13.971 2.004-4.278 4.254-12.142 4.32-15.1.044-1.974.377-1.894 1.288.312 2.906 7.038 7.426 12.842 12.868 16.514 1.21.817 4.642 2.66 7.545 4.11-9.88-19.646-17.263-41.786-18.594-69.982 9.776-10.615 26.424-7.045 41.958 1.662l22.969 31.04 14.215 33.851 23.823 23.487-.025-1.44c-.034-2.194-.096-3.853-.219-5.263l-1.238-5.878c-.143-.433-.29-.881-.463-1.364-2.524-7.03-7.742-13.279-15.327-18.359l-1.86-1.246-.035-8.994c-.035-9.852-.113-10.466-1.768-13.845-1.172-2.393-3.038-4.526-6.77-7.73-1.837-1.577-3.74-3.29-4.237-3.807l-.91-.943.742-4.27c.916-5.291 1.042-10.563.32-13.297-.633-2.397-2.804-6.623-4.985-9.701-2.206-3.112-7.758-8.737-10.738-10.88l-2.18-1.575-.186-3.006c-.22-3.645-.73-6.195-1.634-8.169-.859-1.877-1.663-2.827-3.89-4.606-6.493-5.187-15.653-8.452-35.017-12.456-8.24-1.704-7.79-1.575-7.941-2.155-.105-.4.086-.526 1.019-.666l1.145-.168-1.103-4.438-1.103-4.43h-1.019c-.697 0-1.01-.126-1.01-.387 0-.21-.43-1.495-.952-2.863-.522-1.368-.916-2.509-.876-2.535.04-.027.644-.265 1.339-.522 2.201-.816 9.141-5.336 8.766-5.71-.056-.056-1.413-.59-3.023-1.187-1.61-.597-3.722-1.53-4.69-2.072-2.013-1.125-2.192-.938 2.13-2.248 4.044-1.227 8.328-3.44 12.043-6.224 5.488-4.113 9.046-8.008 10.855-11.874.768-1.642 2.289-6.384 2.105-6.568-.047-.047-2.39.705-5.204 1.667-4.875 1.666-12.651 3.863-13.676 3.866-.34 0 .329-.995 2.299-3.428 4.169-5.147 6.885-9.108 8.631-12.598 2.754-5.501 4.506-10.992 4.506-14.114 0-1.762-1.135-5.962-1.609-5.962-.115 0-.877.879-1.7 1.953-1.786 2.329-5.601 6.124-8.953 8.91-1.334 1.109-2.449 1.995-2.476 1.97s.354-1.262.851-2.745c1.213-3.62 1.921-7.457 2.417-13.086.65-7.39.464-15.11-.547-22.595-.706-5.218-1.522-8.32-2.94-10.947zm-33.852 248.14a1450.002 1450.002 0 00-3.706 4.758c.14-.202.27-.406.413-.606a54.996 54.996 0 013.293-4.152zm51.268 8.21a43.861 43.861 0 002.375 3.622zm109.021 101.4l-.564 1.138c-2.04 4.089-2.45 5.949-2.45 10.998 0 3.529.095 4.532.623 6.467 1.15 4.223 4.17 9.213 6.955 11.495l1.171.96-.69 1.112c-1.392 2.236-3.324 6.561-3.866 8.648-.536 2.065-.686 4.397-.488 6.628l1.886 3.503 11.697-15.158-.985-28.985z" opacity=".106" color="#000"/></svg>